font.ufo
<glyph name="question" format="1">
  <advance width="609"/>
  <unicode hex="003F"/>
  <outline>
    <contour>
      <point x="263" y="400" type="line"/>
      <point x="442" y="446"/>
      <point x="598" y="528"/>
      <point x="606" y="660" type="curve" smooth="yes"/>
      <point x="612" y="771"/>
      <point x="522" y="879"/>
      <point x="415" y="879" type="curve" smooth="yes"/>
      <point x="319" y="879"/>
      <point x="185" y="827"/>
      <point x="79" y="742" type="curve"/>
      <point x="85" y="659"/>
      <point x="127" y="602"/>
      <point x="153" y="602" type="curve" smooth="yes"/>
      <point x="163" y="602"/>
      <point x="174" y="605"/>
      <point x="188" y="612" type="curve"/>
      <point x="173" y="680" type="line"/>
      <point x="251" y="734"/>
      <point x="375" y="782"/>
      <point x="482" y="787" type="curve"/>
      <point x="510" y="765"/>
      <point x="524" y="731"/>
      <point x="522" y="691" type="curve" smooth="yes"/>
      <point x="517" y="602"/>
      <point x="377" y="520"/>
      <point x="214" y="482" type="curve"/>
      <point x="191" y="467"/>
      <point x="170" y="436"/>
      <point x="166" y="404" type="curve"/>
      <point x="231" y="205" type="line" smooth="yes"/>
      <point x="238" y="184"/>
      <point x="256" y="178"/>
      <point x="285" y="188" type="curve"/>
    </contour>
    <contour>
      <point x="250" y="-4" type="curve" smooth="yes"/>
      <point x="285" y="-4"/>
      <point x="332" y="24"/>
      <point x="360" y="60" type="curve"/>
      <point x="356" y="99"/>
      <point x="322" y="143"/>
      <point x="293" y="143" type="curve"/>
      <point x="252" y="138"/>
      <point x="208" y="91"/>
      <point x="199" y="47" type="curve"/>
      <point x="202" y="17"/>
      <point x="223" y="-4"/>
    </contour>
  </outline>
</glyph>
<glyph name="U" format="1">
  <advance width="605"/>
  <unicode hex="0055"/>
  <outline>
    <contour>
      <point x="378" y="787" type="move" name="top"/>
    </contour>
    <contour>
      <point x="299" y="0" type="move" name="ogonek"/>
    </contour>
    <contour>
      <point x="344" y="69" type="curve" smooth="yes"/>
      <point x="499" y="96"/>
      <point x="543" y="243"/>
      <point x="584" y="454" type="curve" smooth="yes"/>
      <point x="602" y="566"/>
      <point x="606" y="649"/>
      <point x="618" y="734" type="curve"/>
      <point x="597" y="739"/>
      <point x="575" y="739"/>
      <point x="553" y="732" type="curve" smooth="yes"/>
      <point x="537" y="732"/>
      <point x="530" y="676"/>
      <point x="508" y="663" type="curve"/>
      <point x="504" y="631"/>
      <point x="498" y="442"/>
      <point x="486" y="420" type="curve"/>
      <point x="424" y="276"/>
      <point x="405" y="179"/>
      <point x="336" y="136" type="curve"/>
      <point x="245" y="110"/>
      <point x="172" y="200"/>
      <point x="182" y="294" type="curve" smooth="yes"/>
      <point x="177" y="434"/>
      <point x="211" y="594"/>
      <point x="246" y="734" type="curve"/>
      <point x="225" y="739"/>
      <point x="203" y="739"/>
      <point x="181" y="732" type="curve" smooth="yes"/>
      <point x="161" y="694"/>
      <point x="141" y="659"/>
      <point x="112" y="609" type="curve"/>
      <point x="102" y="424"/>
      <point x="104" y="296"/>
      <point x="112" y="131" type="curve"/>
      <point x="161" y="83"/>
      <point x="234" y="28"/>
    </contour>
  </outline>
</glyph>
<glyph name="e" format="1">
  <advance width="515"/>
  <unicode hex="0065"/>
  <outline>
    <contour>
      <point x="315" y="587" type="move" name="top"/>
    </contour>
    <contour>
      <point x="282" y="0" type="move" name="ogonek"/>
    </contour>
    <contour>
      <point x="119" y="242" type="curve"/>
      <point x="141" y="246"/>
      <point x="182" y="220"/>
      <point x="199" y="229" type="curve"/>
      <point x="303" y="275"/>
      <point x="371" y="326"/>
      <point x="433" y="374" type="curve"/>
      <point x="411" y="451"/>
      <point x="361" y="512"/>
      <point x="244" y="526" type="curve"/>
      <point x="137" y="474"/>
      <point x="81" y="394"/>
      <point x="47" y="323" type="curve"/>
      <point x="38" y="274"/>
      <point x="47" y="228"/>
      <point x="83" y="196" type="curve" smooth="yes"/>
      <point x="103" y="104"/>
      <point x="182" y="34"/>
      <point x="304" y="24" type="curve"/>
      <point x="352" y="48"/>
      <point x="430" y="94"/>
      <point x="443" y="124" type="curve"/>
      <point x="430" y="139"/>
      <point x="412" y="142"/>
      <point x="373" y="140" type="curve"/>
      <point x="334" y="118"/>
      <point x="279" y="103"/>
      <point x="238" y="103" type="curve"/>
      <point x="155" y="146"/>
      <point x="144" y="214"/>
      <point x="156" y="305" type="curve" smooth="yes"/>
      <point x="158" y="363"/>
      <point x="218" y="449"/>
      <point x="289" y="484" type="curve"/>
      <point x="294" y="480"/>
      <point x="311" y="475"/>
      <point x="307" y="460" type="curve"/>
      <point x="349" y="431"/>
      <point x="346" y="391"/>
      <point x="333" y="330" type="curve"/>
      <point x="261" y="298"/>
      <point x="202" y="262"/>
    </contour>
  </outline>
</glyph>
<glyph name="dieresis" format="1">
  <advance width="327"/>
  <unicode hex="00A8"/>
  <outline>
    <contour>
      <point x="235" y="587" type="move" name="_top"/>
    </contour>
    <contour>
      <point x="141" y="615" type="curve" smooth="yes"/>
      <point x="173" y="615"/>
      <point x="199" y="641"/>
      <point x="199" y="672" type="curve" smooth="yes"/>
      <point x="199" y="704"/>
      <point x="173" y="729"/>
      <point x="141" y="729" type="curve" smooth="yes"/>
      <point x="109" y="729"/>
      <point x="83" y="704"/>
      <point x="83" y="672" type="curve" smooth="yes"/>
      <point x="83" y="641"/>
      <point x="109" y="615"/>
    </contour>
    <contour>
      <point x="329" y="615" type="curve" smooth="yes"/>
      <point x="361" y="615"/>
      <point x="386" y="641"/>
      <point x="386" y="672" type="curve" smooth="yes"/>
      <point x="386" y="704"/>
      <point x="361" y="729"/>
      <point x="329" y="729" type="curve" smooth="yes"/>
      <point x="296" y="729"/>
      <point x="271" y="704"/>
      <point x="271" y="672" type="curve" smooth="yes"/>
      <point x="271" y="641"/>
      <point x="296" y="615"/>
    </contour>
  </outline>
</glyph>
<glyph name="uni0122" format="1">
  <advance width="648"/>
  <unicode hex="0122"/>
  <outline>
    <contour>
      <point x="317" y="-264" type="curve"/>
      <point x="368" y="-220"/>
      <point x="416" y="-152"/>
      <point x="422" y="-89" type="curve"/>
      <point x="408" y="-48"/>
      <point x="359" y="-20"/>
      <point x="311" y="-58" type="curve"/>
      <point x="330" y="-169" type="line"/>
      <point x="281" y="-246" type="line"/>
      <point x="287" y="-259"/>
      <point x="301" y="-264"/>
    </contour>
    <component base="G"/>
  </outline>
</glyph>
<glyph name="uni0123" format="1">
  <advance width="534"/>
  <unicode hex="0123"/>
  <outline>
    <contour>
      <point x="362" y="593" type="curve"/>
      <point x="412" y="636"/>
      <point x="461" y="704"/>
      <point x="467" y="768" type="curve"/>
      <point x="453" y="808"/>
      <point x="404" y="836"/>
      <point x="356" y="799" type="curve"/>
      <point x="375" y="687" type="line"/>
      <point x="326" y="611" type="line"/>
      <point x="332" y="598"/>
      <point x="346" y="592"/>
    </contour>
    <component base="g"/>
  </outline>
</glyph>
<glyph name="uni0136" format="1">
  <advance width="622"/>
  <unicode hex="0136"/>
  <outline>
    <contour>
      <point x="231" y="-264" type="curve"/>
      <point x="282" y="-220"/>
      <point x="330" y="-152"/>
      <point x="336" y="-89" type="curve"/>
      <point x="322" y="-48"/>
      <point x="273" y="-20"/>
      <point x="226" y="-58" type="curve"/>
      <point x="245" y="-169" type="line"/>
      <point x="195" y="-246" type="line"/>
      <point x="201" y="-259"/>
      <point x="216" y="-264"/>
    </contour>
    <component base="K"/>
  </outline>
</glyph>
<glyph name="uni0137" format="1">
  <advance width="529"/>
  <unicode hex="0137"/>
  <outline>
    <contour>
      <point x="191" y="-264" type="curve"/>
      <point x="241" y="-220"/>
      <point x="290" y="-152"/>
      <point x="296" y="-89" type="curve"/>
      <point x="282" y="-48"/>
      <point x="233" y="-20"/>
      <point x="185" y="-58" type="curve"/>
      <point x="204" y="-169" type="line"/>
      <point x="155" y="-246" type="line"/>
      <point x="161" y="-259"/>
      <point x="175" y="-264"/>
    </contour>
    <component base="k"/>
  </outline>
</glyph>
<glyph name="uni013B" format="1">
  <advance width="485"/>
  <unicode hex="013B"/>
  <outline>
    <contour>
      <point x="179" y="-264" type="curve"/>
      <point x="230" y="-220"/>
      <point x="278" y="-152"/>
      <point x="284" y="-89" type="curve"/>
      <point x="270" y="-48"/>
      <point x="221" y="-20"/>
      <point x="174" y="-58" type="curve"/>
      <point x="192" y="-169" type="line"/>
      <point x="143" y="-246" type="line"/>
      <point x="149" y="-259"/>
      <point x="163" y="-264"/>
    </contour>
    <component base="L"/>
  </outline>
</glyph>
<glyph name="uni013C" format="1">
  <advance width="272"/>
  <unicode hex="013C"/>
  <outline>
    <contour>
      <point x="44" y="-264" type="curve"/>
      <point x="95" y="-220"/>
      <point x="143" y="-152"/>
      <point x="149" y="-89" type="curve"/>
      <point x="135" y="-48"/>
      <point x="86" y="-20"/>
      <point x="38" y="-58" type="curve"/>
      <point x="57" y="-169" type="line"/>
      <point x="8" y="-246" type="line"/>
      <point x="14" y="-259"/>
      <point x="28" y="-264"/>
    </contour>
    <component base="l"/>
  </outline>
</glyph>
<glyph name="Lcaron" format="1">
  <advance width="485"/>
  <unicode hex="013D"/>
  <outline>
    <contour>
      <point x="394" y="637" type="curve"/>
      <point x="451" y="685"/>
      <point x="505" y="761"/>
      <point x="512" y="832" type="curve"/>
      <point x="495" y="877"/>
      <point x="441" y="908"/>
      <point x="388" y="866" type="curve"/>
      <point x="409" y="742" type="line"/>
      <point x="354" y="657" type="line"/>
      <point x="361" y="643"/>
      <point x="377" y="637"/>
    </contour>
    <component base="L"/>
  </outline>
</glyph>
<glyph name="Lslash" format="1">
  <advance width="545"/>
  <unicode hex="0141"/>
  <outline>
    <contour>
      <point x="393" y="445" type="curve"/>
      <point x="173" y="400" type="line"/>
      <point x="57" y="407" type="line"/>
      <point x="36" y="391"/>
      <point x="39" y="357"/>
      <point x="71" y="335" type="curve"/>
      <point x="229" y="359" type="line"/>
      <point x="407" y="375" type="line"/>
      <point x="433" y="403"/>
      <point x="418" y="436"/>
    </contour>
    <component base="L" xOffset="60"/>
  </outline>
</glyph>
<glyph name="uni0145" format="1">
  <advance width="667"/>
  <unicode hex="0145"/>
  <outline>
    <contour>
      <point x="280" y="-264" type="curve"/>
      <point x="331" y="-220"/>
      <point x="379" y="-152"/>
      <point x="385" y="-89" type="curve"/>
      <point x="371" y="-48"/>
      <point x="322" y="-20"/>
      <point x="275" y="-58" type="curve"/>
      <point x="294" y="-169" type="line"/>
      <point x="244" y="-246" type="line"/>
      <point x="250" y="-259"/>
      <point x="265" y="-264"/>
    </contour>
    <component base="N"/>
  </outline>
</glyph>
<glyph name="uni0146" format="1">
  <advance width="553"/>
  <unicode hex="0146"/>
  <outline>
    <contour>
      <point x="204" y="-264" type="curve"/>
      <point x="255" y="-220"/>
      <point x="303" y="-152"/>
      <point x="309" y="-89" type="curve"/>
      <point x="295" y="-48"/>
      <point x="246" y="-20"/>
      <point x="199" y="-58" type="curve"/>
      <point x="217" y="-169" type="line"/>
      <point x="168" y="-246" type="line"/>
      <point x="174" y="-259"/>
      <point x="188" y="-264"/>
    </contour>
    <component base="n"/>
  </outline>
</glyph>
<glyph name="uni0156" format="1">
  <advance width="608"/>
  <unicode hex="0156"/>
  <outline>
    <contour>
      <point x="234" y="-264" type="curve"/>
      <point x="284" y="-220"/>
      <point x="333" y="-152"/>
      <point x="339" y="-89" type="curve"/>
      <point x="324" y="-48"/>
      <point x="276" y="-20"/>
      <point x="228" y="-58" type="curve"/>
      <point x="247" y="-169" type="line"/>
      <point x="198" y="-246" type="line"/>
      <point x="204" y="-259"/>
      <point x="218" y="-264"/>
    </contour>
    <component base="R"/>
  </outline>
</glyph>
<glyph name="uni0157" format="1">
  <advance width="432"/>
  <unicode hex="0157"/>
  <outline>
    <contour>
      <point x="25" y="-264" type="curve"/>
      <point x="76" y="-220"/>
      <point x="124" y="-152"/>
      <point x="130" y="-89" type="curve"/>
      <point x="116" y="-48"/>
      <point x="67" y="-20"/>
      <point x="20" y="-58" type="curve"/>
      <point x="39" y="-169" type="line"/>
      <point x="-11" y="-246" type="line"/>
      <point x="-5" y="-259"/>
      <point x="10" y="-264"/>
    </contour>
    <component base="r"/>
  </outline>
</glyph>
<glyph name="uni0218" format="1">
  <advance width="598"/>
  <unicode hex="0218"/>
  <outline>
    <contour>
      <point x="221" y="-264" type="curve"/>
      <point x="271" y="-220"/>
      <point x="320" y="-152"/>
      <point x="326" y="-89" type="curve"/>
      <point x="311" y="-48"/>
      <point x="263" y="-20"/>
      <point x="215" y="-58" type="curve"/>
      <point x="234" y="-169" type="line"/>
      <point x="184" y="-246" type="line"/>
      <point x="191" y="-259"/>
      <point x="205" y="-264"/>
    </contour>
    <component base="S"/>
  </outline>
</glyph>
<glyph name="uni0219" format="1">
  <advance width="492"/>
  <unicode hex="0219"/>
  <outline>
    <contour>
      <point x="155" y="-264" type="curve"/>
      <point x="206" y="-220"/>
      <point x="254" y="-152"/>
      <point x="260" y="-89" type="curve"/>
      <point x="246" y="-48"/>
      <point x="197" y="-20"/>
      <point x="150" y="-58" type="curve"/>
      <point x="169" y="-169" type="line"/>
      <point x="119" y="-246" type="line"/>
      <point x="125" y="-259"/>
      <point x="140" y="-264"/>
    </contour>
    <component base="s"/>
  </outline>
</glyph>
<glyph name="uni021A" format="1">
  <advance width="577"/>
  <unicode hex="021A"/>
  <outline>
    <contour>
      <point x="195" y="-264" type="curve"/>
      <point x="246" y="-220"/>
      <point x="294" y="-152"/>
      <point x="300" y="-89" type="curve"/>
      <point x="286" y="-48"/>
      <point x="237" y="-20"/>
      <point x="190" y="-58" type="curve"/>
      <point x="209" y="-169" type="line"/>
      <point x="159" y="-246" type="line"/>
      <point x="166" y="-259"/>
      <point x="180" y="-264"/>
    </contour>
    <component base="T"/>
  </outline>
</glyph>
<glyph name="uni021B" format="1">
  <advance width="422"/>
  <unicode hex="021B"/>
  <outline>
    <contour>
      <point x="156" y="-264" type="curve"/>
      <point x="207" y="-220"/>
      <point x="255" y="-152"/>
      <point x="261" y="-89" type="curve"/>
      <point x="247" y="-48"/>
      <point x="198" y="-20"/>
      <point x="151" y="-58" type="curve"/>
      <point x="170" y="-169" type="line"/>
      <point x="120" y="-246" type="line"/>
      <point x="126" y="-259"/>
      <point x="141" y="-264"/>
    </contour>
    <component base="t"/>
  </outline>
</glyph>
<glyph name="dvCandrabindu" format="1">
  <advance width="0"/>
  <unicode hex="0901"/>
  <outline>
    <contour>
      <point x="-83" y="645" type="move" name="_abvm_Ekaar"/>
    </contour>
    <contour>
      <point x="24" y="789" type="curve" smooth="yes"/>
      <point x="53" y="789"/>
      <point x="77" y="813"/>
      <point x="77" y="841" type="curve" smooth="yes"/>
      <point x="77" y="871"/>
      <point x="53" y="895"/>
      <point x="24" y="895" type="curve" smooth="yes"/>
      <point x="-6" y="895"/>
      <point x="-30" y="871"/>
      <point x="-30" y="841" type="curve" smooth="yes"/>
      <point x="-30" y="813"/>
      <point x="-6" y="789"/>
    </contour>
    <contour>
      <point x="131" y="840" type="curve"/>
      <point x="100" y="781"/>
      <point x="56" y="745"/>
      <point x="-9" y="736" type="curve"/>
      <point x="-56" y="772"/>
      <point x="-90" y="837"/>
      <point x="-93" y="910" type="curve"/>
      <point x="-129" y="925"/>
      <point x="-161" y="911"/>
      <point x="-187" y="872" type="curve"/>
      <point x="-166" y="781"/>
      <point x="-75" y="687"/>
      <point x="-11" y="687" type="curve" smooth="yes"/>
      <point x="63" y="687"/>
      <point x="157" y="735"/>
      <point x="198" y="797" type="curve"/>
      <point x="188" y="830"/>
      <point x="164" y="848"/>
    </contour>
  </outline>
</glyph>
<glyph name="dvAnusvara" format="1">
  <advance width="0"/>
  <unicode hex="0902"/>
  <outline>
    <contour>
      <point x="-83" y="645" type="move" name="_abvm_Ekaar"/>
    </contour>
    <contour>
      <point x="0" y="683" type="curve" smooth="yes"/>
      <point x="31" y="683"/>
      <point x="56" y="709"/>
      <point x="56" y="740" type="curve" smooth="yes"/>
      <point x="56" y="772"/>
      <point x="31" y="797"/>
      <point x="0" y="797" type="curve" smooth="yes"/>
      <point x="-33" y="797"/>
      <point x="-58" y="772"/>
      <point x="-58" y="740" type="curve" smooth="yes"/>
      <point x="-58" y="709"/>
      <point x="-33" y="683"/>
    </contour>
  </outline>
</glyph>
<glyph name="dvNNA" format="1">
  <advance width="660"/>
  <unicode hex="0923"/>
  <outline>
    <contour>
      <point x="814" y="609" type="curve"/>
      <point x="802" y="621" type="line"/>
      <point x="239" y="621" type="line"/>
      <point x="148" y="564"/>
      <point x="48" y="422"/>
      <point x="48" y="353" type="curve" smooth="yes"/>
      <point x="48" y="279"/>
      <point x="126" y="169"/>
      <point x="196" y="169" type="curve" smooth="yes"/>
      <point x="265" y="169"/>
      <point x="391" y="238"/>
      <point x="421" y="358" type="curve"/>
      <point x="429" y="426"/>
      <point x="412" y="497"/>
      <point x="380" y="571" type="curve"/>
      <point x="788" y="571" type="line"/>
      <point x="802" y="580"/>
      <point x="810" y="595"/>
    </contour>
    <contour>
      <point x="289" y="571" type="line"/>
      <point x="321" y="493"/>
      <point x="333" y="435"/>
      <point x="334" y="373" type="curve"/>
      <point x="319" y="302"/>
      <point x="263" y="255"/>
      <point x="205" y="237" type="curve"/>
      <point x="166" y="259"/>
      <point x="147" y="301"/>
      <point x="141" y="351" type="curve"/>
      <point x="151" y="420"/>
      <point x="207" y="509"/>
      <point x="274" y="571" type="curve"/>
    </contour>
    <contour>
      <point x="694" y="614" type="line"/>
      <point x="675" y="643"/>
      <point x="643" y="654"/>
      <point x="576" y="651" type="curve"/>
      <point x="432" y="32" type="line"/>
      <point x="462" y="4"/>
      <point x="509" y="-8"/>
      <point x="552" y="5" type="curve"/>
      <point x="608" y="436" type="line"/>
    </contour>
  </outline>
</glyph>
<glyph name="dvLA" format="1">
  <advance width="653"/>
  <unicode hex="0932"/>
  <outline>
    <contour>
      <point x="687" y="614" type="line"/>
      <point x="668" y="643"/>
      <point x="636" y="654"/>
      <point x="568" y="651" type="curve"/>
      <point x="500" y="356" type="line"/>
      <point x="514" y="342" type="line"/>
      <point x="486" y="294" type="line"/>
      <point x="425" y="32" type="line"/>
      <point x="455" y="4"/>
      <point x="502" y="-8"/>
      <point x="544" y="5" type="curve"/>
      <point x="601" y="436" type="line"/>
    </contour>
    <contour>
      <point x="781" y="571" type="line"/>
      <point x="795" y="580"/>
      <point x="803" y="595"/>
      <point x="807" y="609" type="curve"/>
      <point x="795" y="621" type="line"/>
      <point x="27" y="621" type="line"/>
      <point x="14" y="612"/>
      <point x="5" y="597"/>
      <point x="0" y="584" type="curve"/>
      <point x="14" y="571" type="line"/>
    </contour>
    <contour>
      <point x="317" y="269" type="line"/>
      <point x="327" y="285"/>
      <point x="337" y="308"/>
      <point x="344" y="326" type="curve"/>
      <point x="339" y="382"/>
      <point x="315" y="429"/>
      <point x="266" y="454" type="curve"/>
      <point x="247" y="459"/>
      <point x="200" y="458"/>
      <point x="173" y="452" type="curve"/>
      <point x="104" y="420"/>
      <point x="17" y="317"/>
      <point x="17" y="251" type="curve" smooth="yes"/>
      <point x="17" y="176"/>
      <point x="75" y="69"/>
      <point x="179" y="0" type="curve"/>
      <point x="232" y="10"/>
      <point x="259" y="44"/>
      <point x="243" y="75" type="curve"/>
      <point x="161" y="119"/>
      <point x="123" y="183"/>
      <point x="110" y="258" type="curve"/>
      <point x="117" y="312"/>
      <point x="166" y="380"/>
      <point x="214" y="394" type="curve"/>
      <point x="247" y="383"/>
      <point x="264" y="353"/>
      <point x="270" y="319" type="curve"/>
      <point x="263" y="297"/>
      <point x="251" y="278"/>
      <point x="236" y="256" type="curve"/>
      <point x="233" y="226"/>
      <point x="273" y="197"/>
      <point x="327" y="193" type="curve"/>
      <point x="401" y="252"/>
      <point x="501" y="347"/>
      <point x="550" y="393" type="curve"/>
      <point x="524" y="456" type="line"/>
      <point x="460" y="380"/>
      <point x="383" y="306"/>
      <point x="322" y="265" type="curve"/>
    </contour>
  </outline>
</glyph>
<glyph name="dvNukta" format="1">
  <advance width="0"/>
  <unicode hex="093C"/>
  <outline>
    <contour>
      <point x="71" y="-16" type="curve" smooth="yes"/>
      <point x="102" y="-16"/>
      <point x="127" y="9"/>
      <point x="127" y="40" type="curve" smooth="yes"/>
      <point x="127" y="71"/>
      <point x="102" y="96"/>
      <point x="71" y="96" type="curve" smooth="yes"/>
      <point x="40" y="96"/>
      <point x="15" y="71"/>
      <point x="15" y="40" type="curve" smooth="yes"/>
      <point x="15" y="9"/>
      <point x="40" y="-16"/>
    </contour>
  </outline>
</glyph>
<glyph name="dvmI" format="1">
  <advance width="243"/>
  <unicode hex="093F"/>
  <outline>
    <contour>
      <point x="520" y="684" type="move" name="abvm_Reph_alt"/>
    </contour>
    <contour>
      <point x="177" y="883" type="curve"/>
      <point x="143" y="593" type="line"/>
      <point x="8" y="32" type="line"/>
      <point x="38" y="3"/>
      <point x="85" y="-7"/>
      <point x="127" y="5" type="curve"/>
      <point x="154" y="296"/>
      <point x="235" y="661"/>
      <point x="281" y="873" type="curve"/>
      <point x="289" y="880" type="line"/>
      <point x="360" y="833"/>
      <point x="425" y="750"/>
      <point x="493" y="653" type="curve"/>
      <point x="535" y="659"/>
      <point x="565" y="679"/>
      <point x="567" y="712" type="curve"/>
      <point x="509" y="804"/>
      <point x="366" y="958"/>
      <point x="308" y="958" type="curve" smooth="yes"/>
      <point x="263" y="958"/>
      <point x="202" y="922"/>
    </contour>
    <contour>
      <point x="359" y="571" type="line"/>
      <point x="373" y="580"/>
      <point x="381" y="595"/>
      <point x="385" y="609" type="curve"/>
      <point x="373" y="621" type="line"/>
      <point x="27" y="621" type="line"/>
      <point x="13" y="612"/>
      <point x="5" y="597"/>
      <point x="0" y="584" type="curve"/>
      <point x="13" y="571" type="line"/>
    </contour>
  </outline>
</glyph>
<glyph name="dvmvRR" format="1">
  <advance width="0"/>
  <unicode hex="0944"/>
  <outline>
    <contour>
      <point x="-309" y="-106" type="curve"/>
      <point x="-313" y="-140"/>
      <point x="-281" y="-184"/>
      <point x="-211" y="-164" type="curve"/>
      <point x="-208" y="-170" type="line"/>
      <point x="-243" y="-181"/>
      <point x="-287" y="-200"/>
      <point x="-324" y="-238" type="curve"/>
      <point x="-326" y="-273"/>
      <point x="-302" y="-304"/>
      <point x="-251" y="-315" type="curve"/>
      <point x="-187" y="-315"/>
      <point x="-120" y="-295"/>
      <point x="-78" y="-261" type="curve"/>
      <point x="-74" y="-235"/>
      <point x="-87" y="-206"/>
      <point x="-113" y="-205" type="curve"/>
      <point x="-154" y="-239"/>
      <point x="-205" y="-259"/>
      <point x="-244" y="-263" type="curve"/>
      <point x="-254" y="-251" type="line"/>
      <point x="-219" y="-218"/>
      <point x="-184" y="-203"/>
      <point x="-136" y="-187" type="curve"/>
      <point x="-123" y="-160"/>
      <point x="-136" y="-127"/>
      <point x="-168" y="-118" type="curve"/>
      <point x="-189" y="-125"/>
      <point x="-212" y="-130"/>
      <point x="-233" y="-134" type="curve"/>
      <point x="-238" y="-124" type="line"/>
      <point x="-201" y="-97"/>
      <point x="-162" y="-82"/>
      <point x="-111" y="-69" type="curve"/>
      <point x="-103" y="-39"/>
      <point x="-113" y="-20"/>
      <point x="-152" y="-16" type="curve"/>
      <point x="-197" y="-29"/>
      <point x="-263" y="-59"/>
    </contour>
  </outline>
</glyph>
<glyph name="dvmAU" format="1">
  <advance width="232"/>
  <unicode hex="094C"/>
  <outline>
    <contour>
      <point x="266" y="618" type="line"/>
      <point x="247" y="647"/>
      <point x="215" y="654"/>
      <point x="148" y="651" type="curve"/>
      <point x="5" y="32" type="line"/>
      <point x="35" y="4"/>
      <point x="82" y="-8"/>
      <point x="124" y="5" type="curve"/>
      <point x="181" y="436" type="line"/>
    </contour>
    <contour>
      <point x="360" y="571" type="line"/>
      <point x="374" y="580"/>
      <point x="382" y="595"/>
      <point x="386" y="609" type="curve"/>
      <point x="374" y="621" type="line"/>
      <point x="27" y="621" type="line"/>
      <point x="13" y="612"/>
      <point x="5" y="597"/>
      <point x="0" y="584" type="curve"/>
      <point x="13" y="571" type="line"/>
    </contour>
    <contour>
      <point x="175" y="741" type="curve"/>
      <point x="171" y="737" type="line"/>
      <point x="135" y="775"/>
      <point x="94" y="804"/>
      <point x="63" y="807" type="curve" smooth="yes"/>
      <point x="27" y="804"/>
      <point x="1" y="787"/>
      <point x="-17" y="758" type="curve"/>
      <point x="-12" y="725"/>
      <point x="16" y="706"/>
      <point x="66" y="699" type="curve"/>
      <point x="96" y="735" type="line"/>
      <point x="134" y="724"/>
      <point x="154" y="707"/>
      <point x="182" y="680" type="curve"/>
      <point x="208" y="680"/>
      <point x="225" y="691"/>
      <point x="228" y="709" type="curve"/>
      <point x="194" y="803"/>
      <point x="101" y="954"/>
      <point x="33" y="954" type="curve" smooth="yes"/>
      <point x="-6" y="954"/>
      <point x="-46" y="933"/>
      <point x="-65" y="907" type="curve"/>
      <point x="-68" y="864"/>
      <point x="-38" y="841"/>
      <point x="17" y="825" type="curve"/>
      <point x="63" y="866" type="line"/>
      <point x="113" y="839"/>
      <point x="151" y="785"/>
    </contour>
  </outline>
</glyph>
<glyph name="dvOm" format="1">
  <advance width="1055"/>
  <unicode hex="0950"/>
  <outline>
    <contour>
      <point x="491" y="305" type="line"/>
      <point x="510" y="272" type="line"/>
      <point x="615" y="286" type="line"/>
      <point x="705" y="364"/>
      <point x="755" y="462"/>
      <point x="818" y="522" type="curve"/>
      <point x="867" y="468"/>
      <point x="888" y="386"/>
      <point x="898" y="300" type="curve"/>
      <point x="848" y="191"/>
      <point x="784" y="123"/>
      <point x="651" y="75" type="curve"/>
      <point x="630" y="44"/>
      <point x="645" y="14"/>
      <point x="690" y="0" type="curve"/>
      <point x="843" y="66"/>
      <point x="940" y="183"/>
      <point x="966" y="302" type="curve"/>
      <point x="959" y="410"/>
      <point x="926" y="565"/>
      <point x="821" y="600" type="curve"/>
      <point x="730" y="566"/>
      <point x="652" y="380"/>
      <point x="567" y="325" type="curve"/>
    </contour>
    <contour>
      <point x="425" y="328" type="line"/>
      <point x="461" y="306"/>
      <point x="512" y="251"/>
      <point x="522" y="210" type="curve"/>
      <point x="493" y="139"/>
      <point x="417" y="79"/>
      <point x="327" y="59" type="curve"/>
      <point x="236" y="105"/>
      <point x="189" y="183"/>
      <point x="148" y="285" type="curve"/>
      <point x="110" y="295"/>
      <point x="79" y="277"/>
      <point x="61" y="226" type="curve"/>
      <point x="112" y="127"/>
      <point x="197" y="42"/>
      <point x="320" y="0" type="curve"/>
      <point x="473" y="15"/>
      <point x="608" y="136"/>
      <point x="608" y="216" type="curve" smooth="yes"/>
      <point x="608" y="261"/>
      <point x="530" y="326"/>
      <point x="466" y="350" type="curve"/>
    </contour>
    <contour>
      <point x="354" y="291" type="curve"/>
      <point x="478" y="318"/>
      <point x="613" y="407"/>
      <point x="634" y="522" type="curve"/>
      <point x="612" y="579"/>
      <point x="560" y="634"/>
      <point x="489" y="652" type="curve"/>
      <point x="389" y="644"/>
      <point x="325" y="613"/>
      <point x="255" y="569" type="curve"/>
      <point x="238" y="541"/>
      <point x="261" y="508"/>
      <point x="310" y="496" type="curve"/>
      <point x="364" y="540"/>
      <point x="417" y="576"/>
      <point x="476" y="585" type="curve"/>
      <point x="505" y="573"/>
      <point x="531" y="546"/>
      <point x="546" y="510" type="curve"/>
      <point x="513" y="422"/>
      <point x="465" y="382"/>
      <point x="333" y="349" type="curve"/>
      <point x="315" y="325"/>
      <point x="327" y="303"/>
    </contour>
    <contour>
      <point x="729" y="716" type="curve" smooth="yes"/>
      <point x="758" y="716"/>
      <point x="780" y="740"/>
      <point x="780" y="768" type="curve" smooth="yes"/>
      <point x="780" y="797"/>
      <point x="758" y="820"/>
      <point x="730" y="820" type="curve" smooth="yes"/>
      <point x="701" y="820"/>
      <point x="677" y="797"/>
      <point x="677" y="768" type="curve" smooth="yes"/>
      <point x="677" y="740"/>
      <point x="700" y="716"/>
    </contour>
    <contour>
      <point x="835" y="767" type="curve"/>
      <point x="805" y="709"/>
      <point x="761" y="674"/>
      <point x="698" y="664" type="curve"/>
      <point x="653" y="700"/>
      <point x="620" y="763"/>
      <point x="616" y="835" type="curve"/>
      <point x="582" y="849"/>
      <point x="551" y="836"/>
      <point x="527" y="798" type="curve"/>
      <point x="547" y="712"/>
      <point x="634" y="617"/>
      <point x="697" y="617" type="curve" smooth="yes"/>
      <point x="769" y="617"/>
      <point x="859" y="665"/>
      <point x="899" y="726" type="curve"/>
      <point x="889" y="757"/>
      <point x="866" y="774"/>
    </contour>
  </outline>
</glyph>
<glyph name="dvZero" format="1">
  <advance width="478"/>
  <unicode hex="0966"/>
  <outline>
    <contour>
      <point x="37" y="288" type="curve"/>
      <point x="37" y="210"/>
      <point x="124" y="84"/>
      <point x="189" y="84" type="curve" smooth="yes"/>
      <point x="305" y="84"/>
      <point x="429" y="186"/>
      <point x="456" y="293" type="curve"/>
      <point x="454" y="409"/>
      <point x="429" y="497"/>
      <point x="345" y="585" type="curve"/>
      <point x="296" y="590"/>
      <point x="238" y="567"/>
      <point x="209" y="553" type="curve"/>
      <point x="136" y="504"/>
      <point x="37" y="364"/>
    </contour>
    <contour>
      <point x="302" y="518" type="curve"/>
      <point x="350" y="464"/>
      <point x="380" y="372"/>
      <point x="372" y="310" type="curve"/>
      <point x="353" y="237"/>
      <point x="297" y="175"/>
      <point x="200" y="148" type="curve"/>
      <point x="155" y="188"/>
      <point x="131" y="234"/>
      <point x="125" y="297" type="curve"/>
      <point x="150" y="388"/>
      <point x="205" y="463"/>
      <point x="263" y="506" type="curve"/>
      <point x="274" y="513"/>
      <point x="288" y="517"/>
    </contour>
  </outline>
</glyph>
<glyph name="dvOne" format="1">
  <advance width="470"/>
  <unicode hex="0967"/>
  <outline>
    <contour>
      <point x="388" y="152" type="curve"/>
      <point x="339" y="110"/>
      <point x="276" y="74"/>
      <point x="246" y="74" type="curve" smooth="yes"/>
      <point x="234" y="74"/>
      <point x="227" y="83"/>
      <point x="226" y="94" type="curve" smooth="yes"/>
      <point x="225" y="147"/>
      <point x="423" y="445"/>
      <point x="422" y="503" type="curve" smooth="yes"/>
      <point x="421" y="569"/>
      <point x="378" y="664"/>
      <point x="307" y="664" type="curve" smooth="yes"/>
      <point x="206" y="664"/>
      <point x="97" y="567"/>
      <point x="62" y="482" type="curve"/>
      <point x="67" y="429"/>
      <point x="115" y="384"/>
      <point x="190" y="356" type="curve"/>
      <point x="253" y="375"/>
      <point x="320" y="413"/>
      <point x="356" y="435" type="curve"/>
      <point x="333" y="466" type="line"/>
      <point x="293" y="447"/>
      <point x="257" y="432"/>
      <point x="207" y="417" type="curve"/>
      <point x="176" y="433"/>
      <point x="164" y="449"/>
      <point x="155" y="481" type="curve"/>
      <point x="176" y="528"/>
      <point x="250" y="594"/>
      <point x="298" y="594" type="curve" smooth="yes"/>
      <point x="322" y="594"/>
      <point x="335" y="548"/>
      <point x="336" y="512" type="curve" smooth="yes"/>
      <point x="336" y="479"/>
      <point x="314" y="448"/>
      <point x="290" y="417" type="curve"/>
      <point x="307" y="391" type="line"/>
      <point x="269" y="359" type="line"/>
      <point x="222" y="253"/>
      <point x="126" y="128"/>
      <point x="126" y="91" type="curve" smooth="yes"/>
      <point x="127" y="51"/>
      <point x="159" y="15"/>
      <point x="239" y="0" type="curve"/>
      <point x="310" y="24"/>
      <point x="378" y="66"/>
      <point x="424" y="115" type="curve"/>
      <point x="421" y="137"/>
      <point x="419" y="152"/>
    </contour>
  </outline>
</glyph>
<glyph name="dvTwo" format="1">
  <advance width="452"/>
  <unicode hex="0968"/>
  <outline>
    <contour>
      <point x="246" y="-67" type="curve"/>
      <point x="295" y="-63"/>
      <point x="324" y="-36"/>
      <point x="319" y="-3" type="curve"/>
      <point x="248" y="55"/>
      <point x="186" y="176"/>
      <point x="166" y="324" type="curve"/>
      <point x="125" y="355"/>
      <point x="53" y="333"/>
      <point x="32" y="301" type="curve"/>
      <point x="23" y="266"/>
      <point x="37" y="231"/>
      <point x="78" y="196" type="curve"/>
      <point x="242" y="203"/>
      <point x="457" y="352"/>
      <point x="461" y="465" type="curve" smooth="yes"/>
      <point x="464" y="539"/>
      <point x="392" y="663"/>
      <point x="298" y="663" type="curve" smooth="yes"/>
      <point x="238" y="663"/>
      <point x="157" y="632"/>
      <point x="102" y="586" type="curve"/>
      <point x="89" y="556"/>
      <point x="107" y="528"/>
      <point x="154" y="515" type="curve"/>
      <point x="194" y="559"/>
      <point x="245" y="586"/>
      <point x="293" y="596" type="curve"/>
      <point x="355" y="563"/>
      <point x="378" y="521"/>
      <point x="383" y="459" type="curve"/>
      <point x="335" y="345"/>
      <point x="223" y="293"/>
      <point x="120" y="264" type="curve"/>
      <point x="128" y="161"/>
      <point x="159" y="52"/>
    </contour>
  </outline>
</glyph>
<glyph name="dvThree" format="1">
  <advance width="504"/>
  <unicode hex="0969"/>
  <outline>
    <contour>
      <point x="196" y="26" type="line"/>
      <point x="301" y="46"/>
      <point x="450" y="130"/>
      <point x="454" y="234" type="curve" smooth="yes"/>
      <point x="456" y="279"/>
      <point x="429" y="322"/>
      <point x="327" y="349" type="curve"/>
      <point x="322" y="358" type="line"/>
      <point x="428" y="398"/>
      <point x="482" y="462"/>
      <point x="504" y="534" type="curve"/>
      <point x="488" y="582"/>
      <point x="454" y="637"/>
      <point x="385" y="659" type="curve"/>
      <point x="301" y="655"/>
      <point x="231" y="637"/>
      <point x="154" y="599" type="curve"/>
      <point x="140" y="566"/>
      <point x="158" y="539"/>
      <point x="200" y="525" type="curve"/>
      <point x="265" y="563"/>
      <point x="315" y="579"/>
      <point x="369" y="589" type="curve"/>
      <point x="398" y="573"/>
      <point x="406" y="560"/>
      <point x="417" y="544" type="curve"/>
      <point x="401" y="473"/>
      <point x="365" y="437"/>
      <point x="262" y="387" type="curve"/>
      <point x="225" y="387"/>
      <point x="199" y="394"/>
      <point x="175" y="395" type="curve"/>
      <point x="150" y="365"/>
      <point x="159" y="307"/>
      <point x="206" y="273" type="curve"/>
      <point x="232" y="283"/>
      <point x="254" y="292"/>
      <point x="279" y="302" type="curve"/>
      <point x="342" y="291"/>
      <point x="377" y="261"/>
      <point x="376" y="224" type="curve" smooth="yes"/>
      <point x="373" y="179"/>
      <point x="301" y="123"/>
      <point x="216" y="95" type="curve"/>
      <point x="182" y="134"/>
      <point x="149" y="190"/>
      <point x="120" y="228" type="curve"/>
      <point x="86" y="239"/>
      <point x="50" y="216"/>
      <point x="14" y="180" type="curve"/>
      <point x="57" y="77"/>
      <point x="90" y="-50"/>
      <point x="108" y="-159" type="curve"/>
      <point x="159" y="-165"/>
      <point x="185" y="-154"/>
      <point x="191" y="-133" type="curve"/>
      <point x="171" y="-33"/>
      <point x="137" y="22"/>
      <point x="112" y="119" type="curve"/>
      <point x="123" y="130" type="line"/>
    </contour>
  </outline>
</glyph>
<glyph name="dvFour" format="1">
  <advance width="537"/>
  <unicode hex="096A"/>
  <outline>
    <contour>
      <point x="74" y="589" type="curve"/>
      <point x="220" y="489"/>
      <point x="329" y="362"/>
      <point x="325" y="125" type="curve"/>
      <point x="305" y="92"/>
      <point x="282" y="76"/>
      <point x="241" y="61" type="curve"/>
      <point x="200" y="90"/>
      <point x="173" y="114"/>
      <point x="163" y="165" type="curve"/>
      <point x="256" y="356"/>
      <point x="412" y="489"/>
      <point x="589" y="621" type="curve"/>
      <point x="590" y="642"/>
      <point x="585" y="660"/>
      <point x="555" y="657" type="curve"/>
      <point x="395" y="548"/>
      <point x="196" y="385"/>
      <point x="79" y="169" type="curve"/>
      <point x="83" y="89"/>
      <point x="145" y="26"/>
      <point x="233" y="0" type="curve"/>
      <point x="322" y="19"/>
      <point x="374" y="62"/>
      <point x="403" y="121" type="curve"/>
      <point x="406" y="371"/>
      <point x="292" y="556"/>
      <point x="140" y="656" type="curve"/>
      <point x="108" y="653"/>
      <point x="90" y="635"/>
    </contour>
  </outline>
</glyph>
<glyph name="dvFive" format="1">
  <advance width="460"/>
  <unicode hex="096B"/>
  <outline>
    <contour>
      <point x="363" y="319" type="curve"/>
      <point x="374" y="314" type="line"/>
      <point x="352" y="217"/>
      <point x="298" y="44"/>
      <point x="239" y="-89" type="curve"/>
      <point x="240" y="-113"/>
      <point x="262" y="-127"/>
      <point x="301" y="-128" type="curve"/>
      <point x="362" y="9"/>
      <point x="429" y="224"/>
      <point x="461" y="349" type="curve"/>
      <point x="458" y="392"/>
      <point x="415" y="416"/>
      <point x="342" y="405" type="curve"/>
      <point x="301" y="340"/>
      <point x="254" y="262"/>
      <point x="190" y="174" type="curve"/>
      <point x="144" y="202"/>
      <point x="123" y="229"/>
      <point x="123" y="278" type="curve" smooth="yes"/>
      <point x="123" y="391"/>
      <point x="283" y="528"/>
      <point x="424" y="612" type="curve"/>
      <point x="423" y="632"/>
      <point x="407" y="645"/>
      <point x="381" y="649" type="curve"/>
      <point x="226" y="583"/>
      <point x="25" y="415"/>
      <point x="24" y="276" type="curve" smooth="yes"/>
      <point x="24" y="184"/>
      <point x="88" y="114"/>
      <point x="217" y="92" type="curve"/>
      <point x="278" y="192"/>
      <point x="339" y="286"/>
    </contour>
  </outline>
</glyph>
<glyph name="dvSix" format="1">
  <advance width="505"/>
  <unicode hex="096C"/>
  <outline>
    <contour>
      <point x="238" y="24" type="curve"/>
      <point x="330" y="130" type="line"/>
      <point x="340" y="119" type="line"/>
      <point x="319" y="28"/>
      <point x="282" y="-36"/>
      <point x="258" y="-133" type="curve"/>
      <point x="260" y="-153"/>
      <point x="284" y="-164"/>
      <point x="334" y="-160" type="curve"/>
      <point x="360" y="-53"/>
      <point x="392" y="74"/>
      <point x="438" y="178" type="curve"/>
      <point x="409" y="213"/>
      <point x="375" y="236"/>
      <point x="338" y="227" type="curve"/>
      <point x="313" y="186"/>
      <point x="266" y="132"/>
      <point x="226" y="93" type="curve"/>
      <point x="159" y="119"/>
      <point x="123" y="166"/>
      <point x="123" y="212" type="curve" smooth="yes"/>
      <point x="125" y="256"/>
      <point x="155" y="296"/>
      <point x="227" y="319" type="curve"/>
      <point x="250" y="310"/>
      <point x="270" y="301"/>
      <point x="293" y="291" type="curve"/>
      <point x="346" y="326"/>
      <point x="371" y="385"/>
      <point x="350" y="412" type="curve"/>
      <point x="326" y="410"/>
      <point x="299" y="402"/>
      <point x="264" y="401" type="curve"/>
      <point x="183" y="450"/>
      <point x="172" y="472"/>
      <point x="169" y="544" type="curve"/>
      <point x="184" y="560"/>
      <point x="197" y="573"/>
      <point x="230" y="589" type="curve"/>
      <point x="281" y="579"/>
      <point x="326" y="563"/>
      <point x="380" y="525" type="curve"/>
      <point x="426" y="539"/>
      <point x="452" y="566"/>
      <point x="449" y="599" type="curve"/>
      <point x="384" y="637"/>
      <point x="318" y="655"/>
      <point x="232" y="658" type="curve"/>
      <point x="160" y="637"/>
      <point x="111" y="582"/>
      <point x="83" y="537" type="curve"/>
      <point x="83" y="461"/>
      <point x="121" y="417"/>
      <point x="200" y="377" type="curve"/>
      <point x="193" y="368" type="line"/>
      <point x="88" y="333"/>
      <point x="45" y="271"/>
      <point x="40" y="212" type="curve" smooth="yes"/>
      <point x="33" y="130"/>
      <point x="109" y="48"/>
    </contour>
  </outline>
</glyph>
<glyph name="dvSeven" format="1">
  <advance width="589"/>
  <unicode hex="096D"/>
  <outline>
    <contour>
      <point x="526" y="353" type="line"/>
      <point x="483" y="338"/>
      <point x="442" y="324"/>
      <point x="404" y="312" type="curve"/>
      <point x="332" y="348"/>
      <point x="333" y="438"/>
      <point x="387" y="476" type="curve"/>
      <point x="417" y="484" type="line"/>
      <point x="483" y="452"/>
      <point x="506" y="420"/>
      <point x="512" y="337" type="curve"/>
      <point x="489" y="310" type="line"/>
      <point x="503" y="287" type="line"/>
      <point x="462" y="261" type="line"/>
      <point x="396" y="152"/>
      <point x="316" y="85"/>
      <point x="213" y="57" type="curve"/>
      <point x="71" y="221"/>
      <point x="145" y="476"/>
      <point x="208" y="573" type="curve"/>
      <point x="206" y="617"/>
      <point x="162" y="626"/>
      <point x="112" y="603" type="curve"/>
      <point x="21" y="435"/>
      <point x="-3" y="128"/>
      <point x="192" y="-4" type="curve"/>
      <point x="377" y="0"/>
      <point x="551" y="216"/>
      <point x="587" y="356" type="curve"/>
      <point x="580" y="446"/>
      <point x="549" y="515"/>
      <point x="441" y="547" type="curve"/>
      <point x="375" y="540"/>
      <point x="326" y="520"/>
      <point x="290" y="479" type="curve"/>
      <point x="252" y="421"/>
      <point x="243" y="311"/>
      <point x="386" y="251" type="curve"/>
      <point x="439" y="274"/>
      <point x="493" y="301"/>
      <point x="535" y="321" type="curve"/>
    </contour>
  </outline>
</glyph>
<glyph name="dvEight" format="1">
  <advance width="521"/>
  <unicode hex="096E"/>
  <outline>
    <contour>
      <point x="454" y="255" type="curve"/>
      <point x="400" y="183"/>
      <point x="342" y="120"/>
      <point x="251" y="76" type="curve"/>
      <point x="172" y="104"/>
      <point x="127" y="158"/>
      <point x="117" y="226" type="curve"/>
      <point x="186" y="344"/>
      <point x="304" y="480"/>
      <point x="448" y="600" type="curve"/>
      <point x="443" y="622"/>
      <point x="433" y="636"/>
      <point x="410" y="635" type="curve"/>
      <point x="274" y="541"/>
      <point x="92" y="365"/>
      <point x="21" y="232" type="curve"/>
      <point x="31" y="124"/>
      <point x="147" y="10"/>
      <point x="245" y="10" type="curve"/>
      <point x="325" y="10"/>
      <point x="458" y="157"/>
      <point x="499" y="220" type="curve"/>
      <point x="499" y="242"/>
      <point x="486" y="252"/>
    </contour>
  </outline>
</glyph>
<glyph name="dvNine" format="1">
  <advance width="382"/>
  <unicode hex="096F"/>
  <outline>
    <contour>
      <point x="297" y="190" type="curve"/>
      <point x="263" y="259"/>
      <point x="173" y="372"/>
      <point x="140" y="452" type="curve"/>
      <point x="169" y="526"/>
      <point x="226" y="564"/>
      <point x="278" y="571" type="curve"/>
      <point x="326" y="545"/>
      <point x="322" y="477"/>
      <point x="297" y="423" type="curve"/>
      <point x="177" y="349" type="line"/>
      <point x="204" y="312" type="line"/>
      <point x="362" y="401" type="line"/>
      <point x="415" y="529"/>
      <point x="378" y="639"/>
      <point x="285" y="639" type="curve" smooth="yes"/>
      <point x="195" y="639"/>
      <point x="63" y="541"/>
      <point x="62" y="459" type="curve" smooth="yes"/>
      <point x="62" y="396"/>
      <point x="188" y="268"/>
      <point x="231" y="160" type="curve"/>
      <point x="227" y="143" type="line"/>
      <point x="168" y="80"/>
      <point x="89" y="30"/>
      <point x="-5" y="-15" type="curve"/>
      <point x="-13" y="-36"/>
      <point x="-10" y="-55"/>
      <point x="22" y="-65" type="curve"/>
      <point x="90" y="-40"/>
      <point x="205" y="36"/>
      <point x="272" y="96" type="curve"/>
      <point x="303" y="126"/>
      <point x="312" y="168"/>
    </contour>
  </outline>
</glyph>
<glyph name="indianrupee" format="1">
  <advance width="549"/>
  <unicode hex="20B9"/>
  <outline>
    <contour>
      <point x="86" y="303" type="curve"/>
      <point x="118" y="200"/>
      <point x="204" y="88"/>
      <point x="302" y="0" type="curve"/>
      <point x="358" y="0"/>
      <point x="388" y="42"/>
      <point x="389" y="84" type="curve"/>
      <point x="216" y="188" type="line"/>
      <point x="173" y="295" type="line"/>
      <point x="346" y="296"/>
      <point x="453" y="394"/>
      <point x="453" y="532" type="curve" smooth="yes"/>
      <point x="453" y="609"/>
      <point x="414" y="715"/>
      <point x="328" y="715" type="curve" smooth="yes"/>
      <point x="290" y="715"/>
      <point x="267" y="698"/>
      <point x="249" y="673" type="curve"/>
      <point x="334" y="654"/>
      <point x="357" y="596"/>
      <point x="357" y="524" type="curve" smooth="yes"/>
      <point x="357" y="478"/>
      <point x="347" y="426"/>
      <point x="297" y="378" type="curve"/>
      <point x="238" y="352"/>
      <point x="180" y="346"/>
      <point x="141" y="364" type="curve"/>
      <point x="115" y="356"/>
      <point x="97" y="339"/>
    </contour>
    <contour>
      <point x="589" y="702" type="curve"/>
      <point x="348" y="686" type="line"/>
      <point x="112" y="691" type="line"/>
      <point x="96" y="664"/>
      <point x="92" y="645"/>
      <point x="104" y="631" type="curve"/>
      <point x="577" y="639" type="line"/>
      <point x="598" y="668"/>
      <point x="602" y="692"/>
    </contour>
    <contour>
      <point x="561" y="543" type="curve"/>
      <point x="320" y="528" type="line"/>
      <point x="84" y="532" type="line"/>
      <point x="68" y="506"/>
      <point x="64" y="487"/>
      <point x="76" y="472" type="curve"/>
      <point x="549" y="480" type="line"/>
      <point x="570" y="510"/>
      <point x="574" y="533"/>
    </contour>
  </outline>
</glyph>
<glyph name="fi" format="1">
  <advance width="528"/>
  <unicode hex="FB01"/>
  <outline>
    <contour>
      <point x="386" y="359" type="line"/>
      <point x="364" y="250"/>
      <point x="339" y="141"/>
      <point x="304" y="36" type="curve"/>
      <point x="328" y="2"/>
      <point x="388" y="-8"/>
      <point x="433" y="7" type="curve"/>
      <point x="446" y="151"/>
      <point x="455" y="268"/>
      <point x="468" y="385" type="curve"/>
      <point x="504" y="507" type="line"/>
      <point x="475" y="533"/>
      <point x="439" y="529"/>
      <point x="382" y="502" type="curve"/>
    </contour>
    <contour>
      <point x="336" y="768" type="curve"/>
      <point x="376" y="742"/>
      <point x="390" y="693"/>
      <point x="388" y="621" type="curve"/>
      <point x="449" y="603"/>
      <point x="492" y="615"/>
      <point x="509" y="648" type="curve"/>
      <point x="497" y="731"/>
      <point x="444" y="820"/>
      <point x="347" y="833" type="curve"/>
      <point x="260" y="823"/>
      <point x="199" y="781"/>
      <point x="143" y="712" type="curve"/>
      <point x="152" y="468" type="line"/>
      <point x="125" y="304"/>
      <point x="92" y="170"/>
      <point x="45" y="31" type="curve"/>
      <point x="63" y="2"/>
      <point x="118" y="-8"/>
      <point x="168" y="7" type="curve"/>
      <point x="201" y="208"/>
      <point x="248" y="570"/>
      <point x="242" y="720" type="curve"/>
      <point x="272" y="746"/>
      <point x="304" y="761"/>
    </contour>
    <contour>
      <point x="167" y="463" type="line"/>
      <point x="15" y="463" type="line"/>
      <point x="-6" y="434"/>
      <point x="-6" y="407"/>
      <point x="14" y="383" type="curve"/>
      <point x="210" y="419" type="line"/>
      <point x="406" y="430" type="line"/>
      <point x="428" y="464"/>
      <point x="427" y="495"/>
      <point x="408" y="509" type="curve"/>
    </contour>
  </outline>
</glyph>
<glyph name="fl" format="1">
  <advance width="593"/>
  <unicode hex="FB02"/>
  <outline>
    <contour>
      <point x="164" y="445" type="line"/>
      <point x="12" y="445" type="line"/>
      <point x="-10" y="418"/>
      <point x="-10" y="390"/>
      <point x="11" y="365" type="curve"/>
      <point x="207" y="403" type="line"/>
      <point x="365" y="410" type="line"/>
      <point x="388" y="444"/>
      <point x="387" y="476"/>
      <point x="367" y="489" type="curve"/>
    </contour>
    <contour>
      <point x="586" y="721" type="line"/>
      <point x="552" y="779"/>
      <point x="500" y="819"/>
      <point x="394" y="837" type="curve"/>
      <point x="288" y="822"/>
      <point x="208" y="783"/>
      <point x="142" y="711" type="curve"/>
      <point x="147" y="447" type="line"/>
      <point x="121" y="280"/>
      <point x="90" y="169"/>
      <point x="43" y="31" type="curve"/>
      <point x="62" y="2"/>
      <point x="116" y="-8"/>
      <point x="166" y="7" type="curve"/>
      <point x="202" y="213"/>
      <point x="243" y="570"/>
      <point x="240" y="699" type="curve"/>
      <point x="296" y="742"/>
      <point x="368" y="778"/>
      <point x="461" y="745" type="curve"/>
      <point x="467" y="540" type="line"/>
      <point x="445" y="390"/>
      <point x="414" y="242"/>
      <point x="357" y="36" type="curve"/>
      <point x="376" y="2"/>
      <point x="444" y="-8"/>
      <point x="489" y="7" type="curve"/>
      <point x="511" y="211"/>
      <point x="528" y="384"/>
      <point x="549" y="583" type="curve"/>
    </contour>
  </outline>
</glyph>
<glyph name="dvCH_NA" format="1">
  <advance width="1201"/>
  <outline>
    <contour>
      <point x="724" y="571" type="line"/>
      <point x="738" y="580"/>
      <point x="746" y="595"/>
      <point x="750" y="609" type="curve"/>
      <point x="738" y="621" type="line"/>
      <point x="32" y="621" type="line"/>
      <point x="18" y="612"/>
      <point x="9" y="597"/>
      <point x="4" y="584" type="curve"/>
      <point x="18" y="571" type="line"/>
    </contour>
    <contour>
      <point x="538" y="121" type="curve"/>
      <point x="544" y="198"/>
      <point x="467" y="346"/>
      <point x="477" y="420" type="curve" smooth="yes"/>
      <point x="480" y="433"/>
      <point x="486" y="442"/>
      <point x="496" y="445" type="curve"/>
      <point x="515" y="437"/>
      <point x="539" y="416"/>
      <point x="541" y="401" type="curve" smooth="yes"/>
      <point x="528" y="317"/>
      <point x="320" y="161"/>
      <point x="175" y="124" type="curve"/>
      <point x="164" y="133" type="line"/>
      <point x="205" y="192"/>
      <point x="270" y="263"/>
      <point x="325" y="308" type="curve"/>
      <point x="336" y="351"/>
      <point x="313" y="385"/>
      <point x="262" y="403" type="curve"/>
      <point x="220" y="393"/>
      <point x="172" y="378"/>
      <point x="134" y="374" type="curve"/>
      <point x="126" y="388" type="line"/>
      <point x="176" y="440"/>
      <point x="272" y="522"/>
      <point x="368" y="571" type="curve"/>
      <point x="331" y="616" type="line"/>
      <point x="221" y="571"/>
      <point x="99" y="478"/>
      <point x="37" y="410" type="curve"/>
      <point x="27" y="371"/>
      <point x="62" y="325"/>
      <point x="105" y="303" type="curve"/>
      <point x="152" y="308"/>
      <point x="204" y="325"/>
      <point x="240" y="336" type="curve"/>
      <point x="244" y="330" type="line"/>
      <point x="181" y="287"/>
      <point x="113" y="217"/>
      <point x="71" y="145" type="curve"/>
      <point x="70" y="100"/>
      <point x="117" y="64"/>
      <point x="168" y="47" type="curve"/>
      <point x="319" y="79"/>
      <point x="613" y="280"/>
      <point x="618" y="403" type="curve" smooth="yes"/>
      <point x="620" y="448"/>
      <point x="555" y="500"/>
      <point x="508" y="517" type="curve"/>
      <point x="464" y="514"/>
      <point x="421" y="477"/>
      <point x="404" y="453" type="curve"/>
      <point x="379" y="341"/>
      <point x="459" y="237"/>
      <point x="467" y="127" type="curve"/>
      <point x="434" y="74"/>
      <point x="362" y="37"/>
      <point x="298" y="4" type="curve"/>
      <point x="287" y="-18"/>
      <point x="296" y="-43"/>
      <point x="344" y="-67" type="curve"/>
      <point x="421" y="-27"/>
      <point x="532" y="55"/>
    </contour>
    <contour>
      <point x="1329" y="571" type="line"/>
      <point x="1343" y="580"/>
      <point x="1351" y="595"/>
      <point x="1355" y="609" type="curve"/>
      <point x="1343" y="621" type="line"/>
      <point x="668" y="621" type="line"/>
      <point x="654" y="612"/>
      <point x="646" y="597"/>
      <point x="641" y="584" type="curve"/>
      <point x="654" y="571" type="line"/>
    </contour>
    <contour>
      <point x="1197" y="496" type="line"/>
      <point x="1174" y="525"/>
      <point x="1139" y="538"/>
      <point x="1081" y="537" type="curve"/>
      <point x="1064" y="472" type="line"/>
      <point x="1074" y="466" type="line"/>
      <point x="972" y="32" type="line"/>
      <point x="1002" y="4"/>
      <point x="1049" y="-8"/>
      <point x="1091" y="5" type="curve"/>
      <point x="1140" y="387" type="line"/>
    </contour>
    <contour>
      <point x="792" y="334" type="line"/>
      <point x="806" y="296"/>
      <point x="812" y="259"/>
      <point x="803" y="218" type="curve"/>
      <point x="793" y="211" type="line"/>
      <point x="756" y="223"/>
      <point x="736" y="243"/>
      <point x="715" y="281" type="curve"/>
      <point x="708" y="249" type="line"/>
      <point x="839" y="330"/>
      <point x="972" y="407"/>
      <point x="1110" y="501" type="curve"/>
      <point x="1081" y="537" type="line"/>
      <point x="963" y="453"/>
      <point x="808" y="369"/>
      <point x="685" y="303" type="curve"/>
      <point x="666" y="287"/>
      <point x="656" y="260"/>
      <point x="656" y="229" type="curve"/>
      <point x="688" y="178"/>
      <point x="744" y="153"/>
      <point x="803" y="145" type="curve"/>
      <point x="836" y="150"/>
      <point x="873" y="168"/>
      <point x="887" y="188" type="curve"/>
      <point x="894" y="248"/>
      <point x="890" y="314"/>
      <point x="863" y="369" type="curve"/>
    </contour>
  </outline>
</glyph>
<glyph name="dvCH_R_YA" format="1">
  <advance width="1184"/>
  <outline>
    <contour>
      <point x="314" y="-172" type="curve"/>
      <point x="270" y="-121"/>
      <point x="260" y="-86"/>
      <point x="253" y="-11" type="curve"/>
      <point x="227" y="13"/>
      <point x="208" y="21"/>
      <point x="175" y="20" type="curve"/>
      <point x="115" y="-17"/>
      <point x="58" y="-88"/>
      <point x="11" y="-163" type="curve"/>
      <point x="11" y="-189"/>
      <point x="31" y="-218"/>
      <point x="89" y="-214" type="curve"/>
      <point x="112" y="-137"/>
      <point x="144" y="-79"/>
      <point x="192" y="-37" type="curve"/>
      <point x="198" y="-40" type="line"/>
      <point x="195" y="-104"/>
      <point x="224" y="-167"/>
      <point x="268" y="-215" type="curve"/>
      <point x="298" y="-210"/>
      <point x="315" y="-196"/>
    </contour>
    <contour>
      <point x="1218" y="614" type="line"/>
      <point x="1199" y="643"/>
      <point x="1167" y="654"/>
      <point x="1099" y="651" type="curve"/>
      <point x="1022" y="314" type="line"/>
      <point x="1043" y="296" type="line"/>
      <point x="1002" y="226" type="line"/>
      <point x="956" y="32" type="line"/>
      <point x="986" y="4"/>
      <point x="1033" y="-8"/>
      <point x="1075" y="5" type="curve"/>
      <point x="1132" y="436" type="line"/>
    </contour>
    <contour>
      <point x="1312" y="571" type="line"/>
      <point x="1326" y="580"/>
      <point x="1334" y="595"/>
      <point x="1338" y="609" type="curve"/>
      <point x="1326" y="621" type="line"/>
      <point x="624" y="621" type="line"/>
      <point x="610" y="612"/>
      <point x="601" y="597"/>
      <point x="596" y="584" type="curve"/>
      <point x="610" y="571" type="line"/>
    </contour>
    <contour>
      <point x="685" y="556" type="curve"/>
      <point x="677" y="531"/>
      <point x="698" y="509"/>
      <point x="733" y="500" type="curve"/>
      <point x="767" y="527"/>
      <point x="800" y="545"/>
      <point x="835" y="546" type="curve" smooth="yes"/>
      <point x="855" y="547"/>
      <point x="881" y="538"/>
      <point x="885" y="521" type="curve" smooth="yes"/>
      <point x="881" y="421"/>
      <point x="617" y="349"/>
      <point x="617" y="269" type="curve" smooth="yes"/>
      <point x="617" y="213"/>
      <point x="716" y="136"/>
      <point x="775" y="136" type="curve" smooth="yes"/>
      <point x="852" y="136"/>
      <point x="1016" y="264"/>
      <point x="1080" y="371" type="curve"/>
      <point x="1043" y="403" type="line"/>
      <point x="987" y="311"/>
      <point x="859" y="215"/>
      <point x="802" y="206" type="curve" smooth="yes"/>
      <point x="768" y="206"/>
      <point x="724" y="245"/>
      <point x="725" y="273" type="curve" smooth="yes"/>
      <point x="746" y="329"/>
      <point x="976" y="431"/>
      <point x="976" y="531" type="curve" smooth="yes"/>
      <point x="976" y="577"/>
      <point x="903" y="621"/>
      <point x="839" y="621" type="curve" smooth="yes"/>
      <point x="792" y="621"/>
      <point x="720" y="591"/>
    </contour>
    <contour>
      <point x="724" y="571" type="line"/>
      <point x="738" y="580"/>
      <point x="746" y="595"/>
      <point x="750" y="609" type="curve"/>
      <point x="738" y="621" type="line"/>
      <point x="32" y="621" type="line"/>
      <point x="18" y="612"/>
      <point x="9" y="597"/>
      <point x="4" y="584" type="curve"/>
      <point x="18" y="571" type="line"/>
    </contour>
    <contour>
      <point x="538" y="121" type="curve"/>
      <point x="544" y="198"/>
      <point x="467" y="346"/>
      <point x="477" y="420" type="curve" smooth="yes"/>
      <point x="480" y="433"/>
      <point x="486" y="442"/>
      <point x="496" y="445" type="curve"/>
      <point x="515" y="437"/>
      <point x="539" y="416"/>
      <point x="541" y="401" type="curve" smooth="yes"/>
      <point x="528" y="317"/>
      <point x="320" y="161"/>
      <point x="175" y="124" type="curve"/>
      <point x="164" y="133" type="line"/>
      <point x="205" y="192"/>
      <point x="270" y="263"/>
      <point x="325" y="308" type="curve"/>
      <point x="336" y="351"/>
      <point x="313" y="385"/>
      <point x="262" y="403" type="curve"/>
      <point x="220" y="393"/>
      <point x="172" y="378"/>
      <point x="134" y="374" type="curve"/>
      <point x="126" y="388" type="line"/>
      <point x="176" y="440"/>
      <point x="272" y="522"/>
      <point x="368" y="571" type="curve"/>
      <point x="331" y="616" type="line"/>
      <point x="221" y="571"/>
      <point x="99" y="478"/>
      <point x="37" y="410" type="curve"/>
      <point x="27" y="371"/>
      <point x="62" y="325"/>
      <point x="105" y="303" type="curve"/>
      <point x="152" y="308"/>
      <point x="204" y="325"/>
      <point x="240" y="336" type="curve"/>
      <point x="244" y="330" type="line"/>
      <point x="181" y="287"/>
      <point x="113" y="217"/>
      <point x="71" y="145" type="curve"/>
      <point x="70" y="100"/>
      <point x="117" y="64"/>
      <point x="168" y="47" type="curve"/>
      <point x="319" y="79"/>
      <point x="613" y="280"/>
      <point x="618" y="403" type="curve" smooth="yes"/>
      <point x="620" y="448"/>
      <point x="555" y="500"/>
      <point x="508" y="517" type="curve"/>
      <point x="464" y="514"/>
      <point x="421" y="477"/>
      <point x="404" y="453" type="curve"/>
      <point x="379" y="341"/>
      <point x="459" y="237"/>
      <point x="467" y="127" type="curve"/>
      <point x="434" y="74"/>
      <point x="362" y="37"/>
      <point x="298" y="4" type="curve"/>
      <point x="287" y="-18"/>
      <point x="296" y="-43"/>
      <point x="344" y="-67" type="curve"/>
      <point x="421" y="-27"/>
      <point x="532" y="55"/>
    </contour>
  </outline>
</glyph>
<glyph name="dvCH_VA" format="1">
  <advance width="657"/>
  <outline>
    <contour>
      <point x="321" y="-219" type="move" name="blwm"/>
    </contour>
    <contour>
      <point x="490" y="645" type="move" name="abvm_Ekaar"/>
    </contour>
    <contour>
      <point x="724" y="571" type="line"/>
      <point x="738" y="580"/>
      <point x="746" y="595"/>
      <point x="750" y="609" type="curve"/>
      <point x="738" y="621" type="line"/>
      <point x="32" y="621" type="line"/>
      <point x="18" y="612"/>
      <point x="9" y="597"/>
      <point x="4" y="584" type="curve"/>
      <point x="18" y="571" type="line"/>
    </contour>
    <contour>
      <point x="514" y="159" type="curve"/>
      <point x="502" y="286"/>
      <point x="450" y="414"/>
      <point x="466" y="485" type="curve"/>
      <point x="470" y="498"/>
      <point x="475" y="506"/>
      <point x="483" y="509" type="curve"/>
      <point x="501" y="501"/>
      <point x="523" y="482"/>
      <point x="524" y="467" type="curve"/>
      <point x="507" y="387"/>
      <point x="309" y="199"/>
      <point x="164" y="160" type="curve"/>
      <point x="157" y="167" type="line"/>
      <point x="196" y="219"/>
      <point x="258" y="281"/>
      <point x="313" y="322" type="curve"/>
      <point x="323" y="369"/>
      <point x="299" y="397"/>
      <point x="255" y="411" type="curve"/>
      <point x="216" y="401"/>
      <point x="172" y="390"/>
      <point x="136" y="387" type="curve"/>
      <point x="131" y="397" type="line"/>
      <point x="183" y="447"/>
      <point x="268" y="524"/>
      <point x="366" y="571" type="curve"/>
      <point x="331" y="618" type="line"/>
      <point x="219" y="574"/>
      <point x="106" y="482"/>
      <point x="41" y="417" type="curve"/>
      <point x="30" y="379"/>
      <point x="62" y="336"/>
      <point x="103" y="316" type="curve"/>
      <point x="146" y="324"/>
      <point x="193" y="339"/>
      <point x="229" y="349" type="curve"/>
      <point x="233" y="343" type="line"/>
      <point x="172" y="304"/>
      <point x="106" y="240"/>
      <point x="62" y="176" type="curve"/>
      <point x="59" y="133"/>
      <point x="103" y="99"/>
      <point x="151" y="84" type="curve"/>
      <point x="305" y="119"/>
      <point x="590" y="351"/>
      <point x="601" y="470" type="curve"/>
      <point x="604" y="514"/>
      <point x="545" y="566"/>
      <point x="498" y="582" type="curve"/>
      <point x="454" y="579"/>
      <point x="411" y="543"/>
      <point x="394" y="519" type="curve"/>
      <point x="369" y="411"/>
      <point x="439" y="284"/>
      <point x="452" y="155" type="curve"/>
      <point x="428" y="44"/>
      <point x="370" y="-124"/>
      <point x="322" y="-217" type="curve"/>
      <point x="323" y="-243"/>
      <point x="352" y="-257"/>
      <point x="390" y="-254" type="curve"/>
      <point x="432" y="-144"/>
      <point x="495" y="35"/>
    </contour>
    <contour>
      <point x="353" y="127" type="curve"/>
      <point x="251" y="127"/>
      <point x="152" y="21"/>
      <point x="142" y="-78" type="curve"/>
      <point x="134" y="-151"/>
      <point x="182" y="-197"/>
      <point x="267" y="-199" type="curve"/>
      <point x="321" y="-146"/>
      <point x="377" y="-96"/>
      <point x="429" y="-44" type="curve"/>
      <point x="401" y="-21" type="line"/>
      <point x="355" y="-63"/>
      <point x="304" y="-104"/>
      <point x="261" y="-143" type="curve"/>
      <point x="239" y="-131"/>
      <point x="232" y="-106"/>
      <point x="234" y="-76" type="curve"/>
      <point x="244" y="-6"/>
      <point x="301" y="64"/>
      <point x="353" y="70" type="curve"/>
      <point x="380" y="65"/>
      <point x="398" y="35"/>
      <point x="409" y="0" type="curve"/>
      <point x="448" y="23" type="line"/>
      <point x="429" y="65"/>
      <point x="400" y="127"/>
    </contour>
  </outline>
</glyph>
<glyph name="dvCH_YA" format="1">
  <advance width="1229"/>
  <outline>
    <contour>
      <point x="724" y="571" type="line"/>
      <point x="738" y="580"/>
      <point x="746" y="595"/>
      <point x="750" y="609" type="curve"/>
      <point x="738" y="621" type="line"/>
      <point x="32" y="621" type="line"/>
      <point x="18" y="612"/>
      <point x="9" y="597"/>
      <point x="4" y="584" type="curve"/>
      <point x="18" y="571" type="line"/>
    </contour>
    <contour>
      <point x="538" y="121" type="curve"/>
      <point x="544" y="198"/>
      <point x="467" y="346"/>
      <point x="477" y="420" type="curve" smooth="yes"/>
      <point x="480" y="433"/>
      <point x="486" y="442"/>
      <point x="496" y="445" type="curve"/>
      <point x="515" y="437"/>
      <point x="539" y="416"/>
      <point x="541" y="401" type="curve" smooth="yes"/>
      <point x="528" y="317"/>
      <point x="320" y="161"/>
      <point x="175" y="124" type="curve"/>
      <point x="164" y="133" type="line"/>
      <point x="205" y="192"/>
      <point x="270" y="263"/>
      <point x="325" y="308" type="curve"/>
      <point x="336" y="351"/>
      <point x="313" y="385"/>
      <point x="262" y="403" type="curve"/>
      <point x="220" y="393"/>
      <point x="172" y="378"/>
      <point x="134" y="374" type="curve"/>
      <point x="126" y="388" type="line"/>
      <point x="176" y="440"/>
      <point x="272" y="522"/>
      <point x="368" y="571" type="curve"/>
      <point x="331" y="616" type="line"/>
      <point x="221" y="571"/>
      <point x="99" y="478"/>
      <point x="37" y="410" type="curve"/>
      <point x="27" y="371"/>
      <point x="62" y="325"/>
      <point x="105" y="303" type="curve"/>
      <point x="152" y="308"/>
      <point x="204" y="325"/>
      <point x="240" y="336" type="curve"/>
      <point x="244" y="330" type="line"/>
      <point x="181" y="287"/>
      <point x="113" y="217"/>
      <point x="71" y="145" type="curve"/>
      <point x="70" y="100"/>
      <point x="117" y="64"/>
      <point x="168" y="47" type="curve"/>
      <point x="319" y="79"/>
      <point x="613" y="280"/>
      <point x="618" y="403" type="curve" smooth="yes"/>
      <point x="620" y="448"/>
      <point x="555" y="500"/>
      <point x="508" y="517" type="curve"/>
      <point x="464" y="514"/>
      <point x="421" y="477"/>
      <point x="404" y="453" type="curve"/>
      <point x="379" y="341"/>
      <point x="459" y="237"/>
      <point x="467" y="127" type="curve"/>
      <point x="434" y="74"/>
      <point x="362" y="37"/>
      <point x="298" y="4" type="curve"/>
      <point x="287" y="-18"/>
      <point x="296" y="-43"/>
      <point x="344" y="-67" type="curve"/>
      <point x="421" y="-27"/>
      <point x="532" y="55"/>
    </contour>
    <contour>
      <point x="1263" y="614" type="line"/>
      <point x="1244" y="643"/>
      <point x="1212" y="654"/>
      <point x="1144" y="651" type="curve"/>
      <point x="1067" y="314" type="line"/>
      <point x="1088" y="296" type="line"/>
      <point x="1047" y="226" type="line"/>
      <point x="1001" y="32" type="line"/>
      <point x="1031" y="4"/>
      <point x="1078" y="-8"/>
      <point x="1120" y="5" type="curve"/>
      <point x="1177" y="436" type="line"/>
    </contour>
    <contour>
      <point x="1357" y="571" type="line"/>
      <point x="1371" y="580"/>
      <point x="1379" y="595"/>
      <point x="1383" y="609" type="curve"/>
      <point x="1371" y="621" type="line"/>
      <point x="669" y="621" type="line"/>
      <point x="655" y="612"/>
      <point x="646" y="597"/>
      <point x="641" y="584" type="curve"/>
      <point x="655" y="571" type="line"/>
    </contour>
    <contour>
      <point x="730" y="556" type="curve"/>
      <point x="722" y="531"/>
      <point x="743" y="509"/>
      <point x="779" y="500" type="curve"/>
      <point x="813" y="527"/>
      <point x="845" y="545"/>
      <point x="880" y="546" type="curve" smooth="yes"/>
      <point x="900" y="547"/>
      <point x="926" y="538"/>
      <point x="930" y="521" type="curve" smooth="yes"/>
      <point x="926" y="421"/>
      <point x="662" y="349"/>
      <point x="662" y="269" type="curve" smooth="yes"/>
      <point x="662" y="213"/>
      <point x="761" y="136"/>
      <point x="820" y="136" type="curve" smooth="yes"/>
      <point x="897" y="136"/>
      <point x="1061" y="264"/>
      <point x="1125" y="371" type="curve"/>
      <point x="1088" y="403" type="line"/>
      <point x="1032" y="311"/>
      <point x="904" y="215"/>
      <point x="847" y="206" type="curve" smooth="yes"/>
      <point x="813" y="206"/>
      <point x="769" y="245"/>
      <point x="771" y="273" type="curve" smooth="yes"/>
      <point x="791" y="329"/>
      <point x="1021" y="431"/>
      <point x="1021" y="531" type="curve" smooth="yes"/>
      <point x="1021" y="577"/>
      <point x="948" y="621"/>
      <point x="884" y="621" type="curve" smooth="yes"/>
      <point x="837" y="621"/>
      <point x="765" y="591"/>
    </contour>
  </outline>
</glyph>
<glyph name="dvDDH_R" format="1">
  <advance width="538"/>
  <outline>
    <contour>
      <point x="347" y="-126" type="curve"/>
      <point x="313" y="-78"/>
      <point x="311" y="-57"/>
      <point x="308" y="-2" type="curve"/>
      <point x="284" y="19"/>
      <point x="263" y="26"/>
      <point x="228" y="25" type="curve"/>
      <point x="173" y="-7"/>
      <point x="127" y="-53"/>
      <point x="83" y="-110" type="curve"/>
      <point x="82" y="-132"/>
      <point x="101" y="-157"/>
      <point x="160" y="-154" type="curve"/>
      <point x="184" y="-93"/>
      <point x="210" y="-56"/>
      <point x="245" y="-25" type="curve"/>
      <point x="250" y="-27" type="line"/>
      <point x="248" y="-74"/>
      <point x="263" y="-115"/>
      <point x="298" y="-160" type="curve"/>
      <point x="330" y="-155"/>
      <point x="347" y="-144"/>
    </contour>
    <contour>
      <point x="652" y="571" type="line"/>
      <point x="666" y="580"/>
      <point x="674" y="595"/>
      <point x="678" y="609" type="curve"/>
      <point x="666" y="621" type="line"/>
      <point x="42" y="621" type="line"/>
      <point x="28" y="612"/>
      <point x="20" y="597"/>
      <point x="15" y="584" type="curve"/>
      <point x="28" y="571" type="line"/>
    </contour>
    <contour>
      <point x="291" y="612" type="curve"/>
      <point x="251" y="579" type="line"/>
      <point x="304" y="545"/>
      <point x="336" y="527"/>
      <point x="357" y="492" type="curve"/>
      <point x="353" y="482" type="line"/>
      <point x="297" y="428"/>
      <point x="139" y="360"/>
      <point x="63" y="304" type="curve"/>
      <point x="41" y="282"/>
      <point x="31" y="252"/>
      <point x="31" y="223" type="curve"/>
      <point x="59" y="142"/>
      <point x="159" y="57"/>
      <point x="253" y="55" type="curve"/>
      <point x="333" y="55"/>
      <point x="494" y="145"/>
      <point x="494" y="209" type="curve"/>
      <point x="494" y="246"/>
      <point x="431" y="304"/>
      <point x="357" y="306" type="curve"/>
      <point x="277" y="245"/>
      <point x="237" y="212"/>
      <point x="157" y="151" type="curve"/>
      <point x="189" y="117" type="line"/>
      <point x="261" y="169"/>
      <point x="315" y="212"/>
      <point x="358" y="239" type="curve"/>
      <point x="376" y="233"/>
      <point x="394" y="218"/>
      <point x="399" y="204" type="curve"/>
      <point x="377" y="158"/>
      <point x="323" y="121"/>
      <point x="255" y="108" type="curve"/>
      <point x="194" y="130"/>
      <point x="136" y="184"/>
      <point x="136" y="233" type="curve"/>
      <point x="136" y="289"/>
      <point x="348" y="362"/>
      <point x="418" y="438" type="curve"/>
      <point x="438" y="464"/>
      <point x="445" y="486"/>
      <point x="437" y="508" type="curve"/>
      <point x="410" y="550"/>
      <point x="347" y="580"/>
    </contour>
    <contour>
      <point x="331" y="-348" type="curve"/>
      <point x="348" y="-339"/>
      <point x="357" y="-327"/>
      <point x="352" y="-312" type="curve"/>
      <point x="287" y="-251"/>
      <point x="181" y="-193"/>
      <point x="96" y="-172" type="curve"/>
      <point x="65" y="-179"/>
      <point x="52" y="-204"/>
      <point x="58" y="-245" type="curve"/>
      <point x="168" y="-266"/>
      <point x="241" y="-295"/>
    </contour>
  </outline>
</glyph>
<glyph name="dvDD_NA" format="1">
  <advance width="463"/>
  <outline>
    <contour>
      <point x="211" y="-230" type="move" name="blwm"/>
    </contour>
    <contour>
      <point x="200" y="645" type="move" name="abvm_Ekaar"/>
    </contour>
    <contour>
      <point x="592" y="571" type="line"/>
      <point x="606" y="580"/>
      <point x="614" y="595"/>
      <point x="618" y="609" type="curve"/>
      <point x="606" y="621" type="line"/>
      <point x="27" y="621" type="line"/>
      <point x="14" y="612"/>
      <point x="5" y="597"/>
      <point x="0" y="584" type="curve"/>
      <point x="14" y="571" type="line"/>
    </contour>
    <contour>
      <point x="290" y="611" type="curve"/>
      <point x="254" y="575" type="line"/>
      <point x="292" y="561"/>
      <point x="339" y="544"/>
      <point x="362" y="516" type="curve"/>
      <point x="360" y="511" type="line"/>
      <point x="299" y="481"/>
      <point x="216" y="466"/>
      <point x="135" y="449" type="curve"/>
      <point x="97" y="430"/>
      <point x="83" y="386"/>
      <point x="93" y="350" type="curve"/>
      <point x="164" y="306"/>
      <point x="281" y="299"/>
      <point x="353" y="261" type="curve"/>
      <point x="351" y="255" type="line"/>
      <point x="268" y="209"/>
      <point x="141" y="196"/>
      <point x="43" y="193" type="curve"/>
      <point x="19" y="174"/>
      <point x="29" y="137"/>
      <point x="64" y="113" type="curve"/>
      <point x="179" y="122"/>
      <point x="337" y="155"/>
      <point x="405" y="197" type="curve"/>
      <point x="429" y="224"/>
      <point x="443" y="278"/>
      <point x="419" y="301" type="curve"/>
      <point x="351" y="336"/>
      <point x="241" y="348"/>
      <point x="179" y="380" type="curve"/>
      <point x="180" y="385" type="line"/>
      <point x="244" y="406"/>
      <point x="339" y="420"/>
      <point x="404" y="453" type="curve"/>
      <point x="430" y="475"/>
      <point x="443" y="511"/>
      <point x="436" y="531" type="curve"/>
      <point x="399" y="572"/>
      <point x="343" y="594"/>
    </contour>
    <contour>
      <point x="298" y="193" type="line"/>
      <point x="264" y="48" type="line"/>
      <point x="276" y="13" type="line"/>
      <point x="249" y="-13" type="line"/>
      <point x="196" y="-227" type="line"/>
      <point x="220" y="-250"/>
      <point x="259" y="-260"/>
      <point x="296" y="-248" type="curve"/>
      <point x="333" y="62" type="line"/>
      <point x="389" y="194" type="line"/>
    </contour>
    <contour>
      <point x="75" y="-27" type="line"/>
      <point x="89" y="-51"/>
      <point x="100" y="-89"/>
      <point x="92" y="-122" type="curve"/>
      <point x="84" y="-126" type="line"/>
      <point x="58" y="-116"/>
      <point x="33" y="-99"/>
      <point x="15" y="-59" type="curve"/>
      <point x="2" y="-80" type="line"/>
      <point x="107" y="-40"/>
      <point x="198" y="-11"/>
      <point x="309" y="38" type="curve"/>
      <point x="301" y="86" type="line"/>
      <point x="202" y="38"/>
      <point x="86" y="-7"/>
      <point x="-9" y="-26" type="curve"/>
      <point x="-26" y="-40"/>
      <point x="-39" y="-64"/>
      <point x="-39" y="-89" type="curve"/>
      <point x="-16" y="-142"/>
      <point x="23" y="-168"/>
      <point x="75" y="-176" type="curve"/>
      <point x="116" y="-170"/>
      <point x="135" y="-161"/>
      <point x="152" y="-132" type="curve"/>
      <point x="161" y="-81"/>
      <point x="158" y="-43"/>
      <point x="136" y="-3" type="curve"/>
    </contour>
  </outline>
</glyph>
<glyph name="dvDD_RA" format="1">
  <advance width="460"/>
  <outline>
    <contour>
      <point x="248" y="-233" type="move" name="blwm"/>
    </contour>
    <contour>
      <point x="208" y="645" type="move" name="abvm_Ekaar"/>
    </contour>
    <contour>
      <point x="588" y="571" type="line"/>
      <point x="602" y="580"/>
      <point x="610" y="595"/>
      <point x="614" y="609" type="curve"/>
      <point x="602" y="621" type="line"/>
      <point x="27" y="621" type="line"/>
      <point x="14" y="612"/>
      <point x="5" y="597"/>
      <point x="0" y="584" type="curve"/>
      <point x="14" y="571" type="line"/>
    </contour>
    <contour>
      <point x="260" y="612" type="curve"/>
      <point x="225" y="575" type="line"/>
      <point x="264" y="556"/>
      <point x="313" y="535"/>
      <point x="338" y="501" type="curve"/>
      <point x="335" y="493" type="line"/>
      <point x="274" y="456"/>
      <point x="188" y="436"/>
      <point x="105" y="415" type="curve"/>
      <point x="65" y="393"/>
      <point x="51" y="344"/>
      <point x="62" y="303" type="curve"/>
      <point x="137" y="251"/>
      <point x="257" y="239"/>
      <point x="333" y="192" type="curve"/>
      <point x="333" y="185" type="line"/>
      <point x="253" y="127"/>
      <point x="118" y="106"/>
      <point x="15" y="101" type="curve"/>
      <point x="-7" y="79"/>
      <point x="1" y="43"/>
      <point x="37" y="13" type="curve"/>
      <point x="155" y="24"/>
      <point x="320" y="68"/>
      <point x="386" y="118" type="curve"/>
      <point x="410" y="150"/>
      <point x="421" y="210"/>
      <point x="399" y="237" type="curve"/>
      <point x="329" y="280"/>
      <point x="214" y="296"/>
      <point x="147" y="335" type="curve"/>
      <point x="149" y="344" type="line"/>
      <point x="216" y="370"/>
      <point x="313" y="389"/>
      <point x="378" y="429" type="curve"/>
      <point x="405" y="453"/>
      <point x="416" y="493"/>
      <point x="410" y="516" type="curve"/>
      <point x="372" y="565"/>
      <point x="316" y="590"/>
    </contour>
    <contour>
      <point x="303" y="-215" type="curve"/>
      <point x="260" y="-164"/>
      <point x="249" y="-129"/>
      <point x="243" y="-54" type="curve"/>
      <point x="217" y="-30"/>
      <point x="197" y="-22"/>
      <point x="164" y="-24" type="curve"/>
      <point x="104" y="-60"/>
      <point x="47" y="-131"/>
      <point x="0" y="-206" type="curve"/>
      <point x="0" y="-232"/>
      <point x="20" y="-261"/>
      <point x="78" y="-257" type="curve"/>
      <point x="101" y="-180"/>
      <point x="134" y="-122"/>
      <point x="182" y="-80" type="curve"/>
      <point x="187" y="-84" type="line"/>
      <point x="185" y="-147"/>
      <point x="213" y="-210"/>
      <point x="258" y="-258" type="curve"/>
      <point x="287" y="-253"/>
      <point x="305" y="-239"/>
    </contour>
  </outline>
</glyph>
<glyph name="dvD_YA" format="1">
  <advance width="604"/>
  <outline>
    <contour>
      <point x="633" y="614" type="line"/>
      <point x="614" y="643"/>
      <point x="582" y="654"/>
      <point x="514" y="651" type="curve"/>
      <point x="433" y="300" type="line"/>
      <point x="454" y="277" type="line"/>
      <point x="417" y="231" type="line"/>
      <point x="371" y="32" type="line"/>
      <point x="401" y="4"/>
      <point x="448" y="-8"/>
      <point x="490" y="5" type="curve"/>
      <point x="547" y="436" type="line"/>
    </contour>
    <contour>
      <point x="727" y="571" type="line"/>
      <point x="741" y="580"/>
      <point x="749" y="595"/>
      <point x="753" y="609" type="curve"/>
      <point x="741" y="621" type="line"/>
      <point x="28" y="621" type="line"/>
      <point x="14" y="612"/>
      <point x="5" y="597"/>
      <point x="0" y="584" type="curve"/>
      <point x="14" y="571" type="line"/>
    </contour>
    <contour>
      <point x="129" y="377" type="line"/>
      <point x="197" y="408"/>
      <point x="265" y="448"/>
      <point x="314" y="484" type="curve"/>
      <point x="332" y="506"/>
      <point x="338" y="524"/>
      <point x="333" y="541" type="curve"/>
      <point x="300" y="573"/>
      <point x="263" y="588"/>
      <point x="217" y="602" type="curve"/>
      <point x="184" y="572" type="line"/>
      <point x="217" y="559"/>
      <point x="240" y="545"/>
      <point x="256" y="529" type="curve"/>
      <point x="254" y="521" type="line"/>
      <point x="149" y="436"/>
      <point x="34" y="428"/>
      <point x="34" y="388" type="curve" smooth="yes"/>
      <point x="34" y="357"/>
      <point x="62" y="321"/>
      <point x="101" y="304" type="curve"/>
      <point x="156" y="312"/>
      <point x="210" y="325"/>
      <point x="250" y="338" type="curve"/>
      <point x="254" y="333" type="line"/>
      <point x="160" y="256"/>
      <point x="57" y="206"/>
      <point x="57" y="176" type="curve" smooth="yes"/>
      <point x="57" y="142"/>
      <point x="100" y="106"/>
      <point x="157" y="93" type="curve"/>
      <point x="266" y="126"/>
      <point x="434" y="260"/>
      <point x="497" y="354" type="curve"/>
      <point x="454" y="389" type="line"/>
      <point x="402" y="308"/>
      <point x="278" y="207"/>
      <point x="170" y="166" type="curve"/>
      <point x="163" y="174" type="line"/>
      <point x="213" y="224"/>
      <point x="279" y="277"/>
      <point x="328" y="319" type="curve"/>
      <point x="327" y="364"/>
      <point x="301" y="394"/>
      <point x="268" y="401" type="curve"/>
      <point x="225" y="386"/>
      <point x="178" y="374"/>
      <point x="135" y="368" type="curve"/>
    </contour>
  </outline>
</glyph>
<glyph name="dvD_Y_BHA" format="1">
  <advance width="867"/>
  <outline>
    <contour>
      <point x="488" y="571" type="line"/>
      <point x="502" y="580"/>
      <point x="510" y="595"/>
      <point x="514" y="609" type="curve"/>
      <point x="502" y="621" type="line"/>
      <point x="28" y="621" type="line"/>
      <point x="14" y="612"/>
      <point x="5" y="597"/>
      <point x="0" y="584" type="curve"/>
      <point x="14" y="571" type="line"/>
    </contour>
    <contour>
      <point x="367" y="291" type="line"/>
      <point x="312" y="240"/>
      <point x="239" y="192"/>
      <point x="170" y="166" type="curve"/>
      <point x="163" y="174" type="line"/>
      <point x="213" y="224"/>
      <point x="279" y="277"/>
      <point x="328" y="319" type="curve"/>
      <point x="327" y="364"/>
      <point x="301" y="394"/>
      <point x="268" y="401" type="curve"/>
      <point x="225" y="386"/>
      <point x="178" y="374"/>
      <point x="135" y="368" type="curve"/>
      <point x="129" y="377" type="line"/>
      <point x="197" y="408"/>
      <point x="265" y="448"/>
      <point x="314" y="484" type="curve"/>
      <point x="332" y="506"/>
      <point x="338" y="524"/>
      <point x="333" y="541" type="curve"/>
      <point x="300" y="573"/>
      <point x="263" y="588"/>
      <point x="217" y="602" type="curve"/>
      <point x="184" y="572" type="line"/>
      <point x="217" y="559"/>
      <point x="240" y="545"/>
      <point x="256" y="529" type="curve"/>
      <point x="254" y="521" type="line"/>
      <point x="149" y="436"/>
      <point x="34" y="428"/>
      <point x="34" y="388" type="curve" smooth="yes"/>
      <point x="34" y="357"/>
      <point x="62" y="321"/>
      <point x="101" y="304" type="curve"/>
      <point x="156" y="312"/>
      <point x="210" y="325"/>
      <point x="250" y="338" type="curve"/>
      <point x="254" y="333" type="line"/>
      <point x="160" y="256"/>
      <point x="57" y="206"/>
      <point x="57" y="176" type="curve" smooth="yes"/>
      <point x="57" y="142"/>
      <point x="100" y="106"/>
      <point x="157" y="93" type="curve"/>
      <point x="232" y="116"/>
      <point x="333" y="185"/>
      <point x="409" y="257" type="curve"/>
    </contour>
    <contour>
      <point x="899" y="496" type="line"/>
      <point x="876" y="525"/>
      <point x="841" y="538"/>
      <point x="783" y="537" type="curve"/>
      <point x="766" y="472" type="line"/>
      <point x="776" y="466" type="line"/>
      <point x="674" y="32" type="line"/>
      <point x="704" y="4"/>
      <point x="751" y="-8"/>
      <point x="794" y="5" type="curve"/>
      <point x="842" y="387" type="line"/>
    </contour>
    <contour>
      <point x="995" y="571" type="line"/>
      <point x="1009" y="580"/>
      <point x="1017" y="595"/>
      <point x="1021" y="609" type="curve"/>
      <point x="1009" y="621" type="line"/>
      <point x="763" y="621" type="line"/>
      <point x="749" y="612"/>
      <point x="740" y="597"/>
      <point x="735" y="584" type="curve"/>
      <point x="749" y="571" type="line"/>
    </contour>
    <contour>
      <point x="586" y="613" type="line"/>
      <point x="580" y="572"/>
      <point x="570" y="524"/>
      <point x="561" y="482" type="curve"/>
      <point x="572" y="467" type="line"/>
      <point x="555" y="439" type="line"/>
      <point x="540" y="368"/>
      <point x="517" y="289"/>
      <point x="492" y="218" type="curve"/>
      <point x="482" y="212" type="line"/>
      <point x="447" y="226"/>
      <point x="430" y="243"/>
      <point x="410" y="278" type="curve"/>
      <point x="385" y="239" type="line"/>
      <point x="540" y="328"/>
      <point x="676" y="406"/>
      <point x="807" y="497" type="curve"/>
      <point x="783" y="537" type="line"/>
      <point x="663" y="449"/>
      <point x="513" y="370"/>
      <point x="375" y="297" type="curve"/>
      <point x="354" y="285"/>
      <point x="345" y="256"/>
      <point x="344" y="234" type="curve"/>
      <point x="373" y="181"/>
      <point x="430" y="150"/>
      <point x="487" y="142" type="curve"/>
      <point x="519" y="146"/>
      <point x="559" y="159"/>
      <point x="581" y="181" type="curve"/>
      <point x="625" y="341"/>
      <point x="655" y="502"/>
      <point x="683" y="665" type="curve"/>
      <point x="668" y="689"/>
      <point x="626" y="705"/>
      <point x="591" y="703" type="curve"/>
      <point x="545" y="657"/>
      <point x="450" y="589"/>
      <point x="398" y="561" type="curve"/>
      <point x="386" y="551"/>
      <point x="375" y="526"/>
      <point x="374" y="509" type="curve" smooth="yes"/>
      <point x="380" y="481"/>
      <point x="427" y="443"/>
      <point x="476" y="436" type="curve"/>
      <point x="590" y="485" type="line"/>
      <point x="575" y="515" type="line"/>
      <point x="480" y="489" type="line"/>
      <point x="465" y="493"/>
      <point x="454" y="506"/>
      <point x="449" y="514" type="curve"/>
      <point x="493" y="548"/>
      <point x="539" y="583"/>
      <point x="581" y="616" type="curve"/>
    </contour>
  </outline>
</glyph>
<glyph name="dvD_Y_RA" format="1">
  <advance width="599"/>
  <outline>
    <contour>
      <point x="727" y="571" type="line"/>
      <point x="741" y="580"/>
      <point x="749" y="595"/>
      <point x="753" y="609" type="curve"/>
      <point x="741" y="621" type="line"/>
      <point x="28" y="621" type="line"/>
      <point x="14" y="612"/>
      <point x="5" y="597"/>
      <point x="0" y="584" type="curve"/>
      <point x="14" y="571" type="line"/>
    </contour>
    <contour>
      <point x="129" y="379" type="line"/>
      <point x="197" y="410"/>
      <point x="265" y="449"/>
      <point x="314" y="485" type="curve"/>
      <point x="332" y="507"/>
      <point x="338" y="524"/>
      <point x="333" y="541" type="curve"/>
      <point x="300" y="573"/>
      <point x="263" y="588"/>
      <point x="217" y="602" type="curve"/>
      <point x="184" y="572" type="line"/>
      <point x="217" y="559"/>
      <point x="240" y="545"/>
      <point x="256" y="529" type="curve"/>
      <point x="254" y="521" type="line"/>
      <point x="143" y="433"/>
      <point x="34" y="428"/>
      <point x="34" y="386" type="curve" smooth="yes"/>
      <point x="34" y="357"/>
      <point x="62" y="322"/>
      <point x="101" y="305" type="curve"/>
      <point x="156" y="313"/>
      <point x="210" y="326"/>
      <point x="250" y="340" type="curve"/>
      <point x="254" y="334" type="line"/>
      <point x="163" y="259"/>
      <point x="61" y="208"/>
      <point x="61" y="178" type="curve" smooth="yes"/>
      <point x="61" y="145"/>
      <point x="106" y="112"/>
      <point x="157" y="98" type="curve"/>
      <point x="274" y="134"/>
      <point x="442" y="271"/>
      <point x="504" y="365" type="curve"/>
      <point x="462" y="400" type="line"/>
      <point x="411" y="315"/>
      <point x="279" y="206"/>
      <point x="170" y="167" type="curve"/>
      <point x="163" y="175" type="line"/>
      <point x="213" y="225"/>
      <point x="279" y="278"/>
      <point x="328" y="320" type="curve"/>
      <point x="327" y="365"/>
      <point x="301" y="396"/>
      <point x="268" y="403" type="curve"/>
      <point x="225" y="388"/>
      <point x="178" y="376"/>
      <point x="135" y="370" type="curve"/>
    </contour>
    <contour>
      <point x="114" y="34" type="curve"/>
      <point x="106" y="7"/>
      <point x="116" y="-15"/>
      <point x="159" y="-37" type="curve"/>
      <point x="252" y="15"/>
      <point x="368" y="97"/>
      <point x="423" y="160" type="curve"/>
      <point x="431" y="155" type="line"/>
      <point x="381" y="28" type="line"/>
      <point x="410" y="4"/>
      <point x="453" y="-7"/>
      <point x="496" y="5" type="curve"/>
      <point x="553" y="436" type="line"/>
      <point x="638" y="614" type="line"/>
      <point x="619" y="643"/>
      <point x="587" y="654"/>
      <point x="520" y="651" type="curve"/>
      <point x="440" y="306" type="line"/>
      <point x="462" y="284" type="line"/>
      <point x="399" y="183"/>
      <point x="255" y="89"/>
    </contour>
  </outline>
</glyph>
<glyph name="dvEyelash_HA" format="1">
  <advance width="535"/>
  <outline>
    <contour>
      <point x="362" y="571" type="line"/>
      <point x="376" y="580"/>
      <point x="384" y="595"/>
      <point x="388" y="609" type="curve"/>
      <point x="376" y="621" type="line"/>
      <point x="-3" y="621" type="line"/>
      <point x="-17" y="612"/>
      <point x="-26" y="597"/>
      <point x="-31" y="584" type="curve"/>
      <point x="-17" y="571" type="line"/>
    </contour>
    <contour>
      <point x="123" y="166" type="curve"/>
      <point x="204" y="185"/>
      <point x="257" y="203"/>
      <point x="318" y="239" type="curve"/>
      <point x="298" y="273" type="line"/>
      <point x="250" y="252"/>
      <point x="192" y="234"/>
      <point x="153" y="225" type="curve"/>
      <point x="136" y="246"/>
      <point x="123" y="271"/>
      <point x="112" y="296" type="curve"/>
      <point x="53" y="301"/>
      <point x="30" y="270"/>
      <point x="25" y="229" type="curve"/>
      <point x="46" y="200"/>
      <point x="84" y="179"/>
    </contour>
    <component base="dvHA" xOffset="179"/>
  </outline>
</glyph>
<glyph name="dvG_NNA" format="1">
  <advance width="979"/>
  <outline>
    <contour>
      <point x="464" y="571" type="line"/>
      <point x="478" y="580"/>
      <point x="486" y="595"/>
      <point x="490" y="609" type="curve"/>
      <point x="478" y="621" type="line"/>
      <point x="27" y="621" type="line"/>
      <point x="13" y="612"/>
      <point x="4" y="597"/>
      <point x="-1" y="584" type="curve"/>
      <point x="13" y="571" type="line"/>
    </contour>
    <contour>
      <point x="234" y="413" type="line"/>
      <point x="166" y="372"/>
      <point x="96" y="333"/>
      <point x="32" y="300" type="curve"/>
      <point x="10" y="287"/>
      <point x="2" y="260"/>
      <point x="2" y="232" type="curve"/>
      <point x="31" y="180"/>
      <point x="87" y="150"/>
      <point x="144" y="142" type="curve"/>
      <point x="179" y="146"/>
      <point x="212" y="159"/>
      <point x="232" y="181" type="curve"/>
      <point x="265" y="286"/>
      <point x="299" y="470"/>
      <point x="313" y="610" type="curve"/>
      <point x="192" y="594" type="line"/>
      <point x="207" y="476" type="line"/>
      <point x="203" y="382"/>
      <point x="179" y="291"/>
      <point x="149" y="219" type="curve"/>
      <point x="140" y="212" type="line"/>
      <point x="108" y="223"/>
      <point x="87" y="241"/>
      <point x="67" y="278" type="curve"/>
      <point x="39" y="241" type="line"/>
      <point x="109" y="280"/>
      <point x="180" y="322"/>
      <point x="248" y="364" type="curve"/>
    </contour>
    <contour>
      <point x="1132" y="609" type="curve"/>
      <point x="1120" y="621" type="line"/>
      <point x="557" y="621" type="line"/>
      <point x="467" y="564"/>
      <point x="366" y="422"/>
      <point x="366" y="353" type="curve" smooth="yes"/>
      <point x="366" y="279"/>
      <point x="444" y="169"/>
      <point x="515" y="169" type="curve" smooth="yes"/>
      <point x="583" y="169"/>
      <point x="709" y="238"/>
      <point x="740" y="358" type="curve"/>
      <point x="748" y="426"/>
      <point x="730" y="497"/>
      <point x="699" y="571" type="curve"/>
      <point x="1106" y="571" type="line"/>
      <point x="1120" y="580"/>
      <point x="1128" y="595"/>
    </contour>
    <contour>
      <point x="608" y="571" type="line"/>
      <point x="640" y="493"/>
      <point x="652" y="435"/>
      <point x="653" y="373" type="curve"/>
      <point x="638" y="302"/>
      <point x="581" y="255"/>
      <point x="524" y="237" type="curve"/>
      <point x="484" y="259"/>
      <point x="465" y="301"/>
      <point x="460" y="351" type="curve"/>
      <point x="469" y="420"/>
      <point x="525" y="509"/>
      <point x="592" y="571" type="curve"/>
    </contour>
    <contour>
      <point x="1012" y="614" type="line"/>
      <point x="993" y="643"/>
      <point x="961" y="654"/>
      <point x="894" y="651" type="curve"/>
      <point x="751" y="32" type="line"/>
      <point x="781" y="4"/>
      <point x="828" y="-8"/>
      <point x="870" y="5" type="curve"/>
      <point x="927" y="436" type="line"/>
    </contour>
  </outline>
</glyph>
<glyph name="dvK_SS_M_YA" format="1">
  <advance width="1882"/>
  <outline>
    <contour>
      <point x="123" y="245" type="curve"/>
      <point x="249" y="308"/>
      <point x="458" y="440"/>
      <point x="458" y="549" type="curve" smooth="yes"/>
      <point x="458" y="600"/>
      <point x="389" y="704"/>
      <point x="321" y="704" type="curve" smooth="yes"/>
      <point x="245" y="704"/>
      <point x="150" y="588"/>
      <point x="152" y="522" type="curve" smooth="yes"/>
      <point x="154" y="430"/>
      <point x="290" y="305"/>
      <point x="359" y="264" type="curve"/>
      <point x="418" y="252"/>
      <point x="487" y="253"/>
      <point x="555" y="282" type="curve"/>
      <point x="524" y="331" type="line"/>
      <point x="485" y="314"/>
      <point x="432" y="314"/>
      <point x="384" y="316" type="curve"/>
      <point x="316" y="364"/>
      <point x="259" y="414"/>
      <point x="228" y="518" type="curve"/>
      <point x="243" y="575"/>
      <point x="269" y="623"/>
      <point x="320" y="639" type="curve"/>
      <point x="354" y="620"/>
      <point x="374" y="577"/>
      <point x="380" y="542" type="curve"/>
      <point x="336" y="424"/>
      <point x="165" y="339"/>
      <point x="51" y="290" type="curve"/>
      <point x="1" y="249"/>
      <point x="4" y="163"/>
      <point x="50" y="95" type="curve"/>
      <point x="87" y="67"/>
      <point x="160" y="37"/>
      <point x="242" y="29" type="curve"/>
      <point x="315" y="138" type="line"/>
      <point x="323" y="133" type="line"/>
      <point x="299" y="73"/>
      <point x="244" y="-57"/>
      <point x="208" y="-126" type="curve"/>
      <point x="220" y="-153"/>
      <point x="253" y="-172"/>
      <point x="306" y="-165" type="curve"/>
      <point x="339" y="-59"/>
      <point x="384" y="95"/>
      <point x="413" y="171" type="curve"/>
      <point x="387" y="211"/>
      <point x="357" y="227"/>
      <point x="312" y="222" type="curve"/>
      <point x="288" y="184"/>
      <point x="256" y="131"/>
      <point x="230" y="103" type="curve"/>
      <point x="180" y="112"/>
      <point x="145" y="129"/>
      <point x="112" y="151" type="curve"/>
      <point x="98" y="192"/>
      <point x="96" y="222"/>
    </contour>
    <contour>
      <point x="689" y="306" type="line"/>
      <point x="730" y="276"/>
      <point x="769" y="254"/>
      <point x="820" y="234" type="curve"/>
      <point x="867" y="237"/>
      <point x="946" y="247"/>
      <point x="985" y="264" type="curve"/>
      <point x="974" y="309" type="line"/>
      <point x="929" y="291"/>
      <point x="871" y="284"/>
      <point x="833" y="282" type="curve"/>
      <point x="793" y="296"/>
      <point x="759" y="318"/>
      <point x="735" y="338" type="curve"/>
    </contour>
    <contour>
      <point x="1116" y="571" type="line"/>
      <point x="1130" y="580"/>
      <point x="1138" y="595"/>
      <point x="1142" y="609" type="curve"/>
      <point x="1130" y="621" type="line"/>
      <point x="500" y="621" type="line"/>
      <point x="486" y="612"/>
      <point x="477" y="597"/>
      <point x="472" y="584" type="curve"/>
      <point x="486" y="571" type="line"/>
    </contour>
    <contour>
      <point x="901" y="500" type="curve"/>
      <point x="901" y="547"/>
      <point x="836" y="621"/>
      <point x="761" y="621" type="curve" smooth="yes"/>
      <point x="688" y="621"/>
      <point x="623" y="587"/>
      <point x="589" y="549" type="curve"/>
      <point x="584" y="526"/>
      <point x="605" y="503"/>
      <point x="640" y="494" type="curve"/>
      <point x="671" y="524"/>
      <point x="714" y="549"/>
      <point x="758" y="549" type="curve" smooth="yes"/>
      <point x="783" y="549"/>
      <point x="807" y="516"/>
      <point x="809" y="491" type="curve" smooth="yes"/>
      <point x="807" y="415"/>
      <point x="699" y="343"/>
      <point x="610" y="329" type="curve" smooth="yes"/>
      <point x="592" y="331"/>
      <point x="575" y="335"/>
      <point x="562" y="343" type="curve"/>
      <point x="516" y="341"/>
      <point x="489" y="303"/>
      <point x="479" y="256" type="curve"/>
      <point x="545" y="183"/>
      <point x="665" y="60"/>
      <point x="749" y="-1" type="curve"/>
      <point x="780" y="7"/>
      <point x="804" y="40"/>
      <point x="797" y="70" type="curve"/>
      <point x="729" y="124"/>
      <point x="641" y="215"/>
      <point x="590" y="263" type="curve"/>
      <point x="594" y="271" type="line"/>
      <point x="721" y="267"/>
      <point x="901" y="394"/>
    </contour>
    <contour>
      <point x="1425" y="571" type="line"/>
      <point x="1439" y="580"/>
      <point x="1447" y="595"/>
      <point x="1451" y="609" type="curve"/>
      <point x="1439" y="621" type="line"/>
      <point x="925" y="621" type="line"/>
      <point x="911" y="612"/>
      <point x="902" y="597"/>
      <point x="897" y="584" type="curve"/>
      <point x="911" y="571" type="line"/>
    </contour>
    <contour>
      <point x="1045" y="205" type="line"/>
      <point x="1014" y="216"/>
      <point x="993" y="234"/>
      <point x="972" y="271" type="curve"/>
      <point x="959" y="244" type="line"/>
      <point x="1095" y="310"/>
      <point x="1206" y="313"/>
      <point x="1357" y="294" type="curve"/>
      <point x="1373" y="334" type="line"/>
      <point x="1224" y="368"/>
      <point x="1028" y="343"/>
      <point x="938" y="293" type="curve"/>
      <point x="916" y="280"/>
      <point x="908" y="253"/>
      <point x="907" y="226" type="curve"/>
      <point x="937" y="173"/>
      <point x="993" y="143"/>
      <point x="1050" y="135" type="curve"/>
      <point x="1085" y="139"/>
      <point x="1119" y="152"/>
      <point x="1139" y="175" type="curve"/>
      <point x="1171" y="278"/>
      <point x="1196" y="469"/>
      <point x="1210" y="610" type="curve"/>
      <point x="1087" y="594" type="line"/>
      <point x="1104" y="473" type="line"/>
      <point x="1098" y="377"/>
      <point x="1085" y="284"/>
      <point x="1055" y="212" type="curve"/>
    </contour>
    <contour>
      <point x="1916" y="614" type="line"/>
      <point x="1897" y="643"/>
      <point x="1865" y="654"/>
      <point x="1798" y="651" type="curve"/>
      <point x="1720" y="314" type="line"/>
      <point x="1741" y="296" type="line"/>
      <point x="1700" y="226" type="line"/>
      <point x="1654" y="32" type="line"/>
      <point x="1684" y="4"/>
      <point x="1731" y="-8"/>
      <point x="1774" y="5" type="curve"/>
      <point x="1830" y="436" type="line"/>
    </contour>
    <contour>
      <point x="2010" y="571" type="line"/>
      <point x="2024" y="580"/>
      <point x="2032" y="595"/>
      <point x="2036" y="609" type="curve"/>
      <point x="2024" y="621" type="line"/>
      <point x="1322" y="621" type="line"/>
      <point x="1308" y="612"/>
      <point x="1299" y="597"/>
      <point x="1294" y="584" type="curve"/>
      <point x="1308" y="571" type="line"/>
    </contour>
    <contour>
      <point x="1383" y="556" type="curve"/>
      <point x="1375" y="531"/>
      <point x="1397" y="509"/>
      <point x="1432" y="500" type="curve"/>
      <point x="1466" y="527"/>
      <point x="1498" y="545"/>
      <point x="1533" y="546" type="curve" smooth="yes"/>
      <point x="1554" y="547"/>
      <point x="1579" y="538"/>
      <point x="1583" y="521" type="curve" smooth="yes"/>
      <point x="1579" y="421"/>
      <point x="1315" y="349"/>
      <point x="1315" y="269" type="curve" smooth="yes"/>
      <point x="1315" y="213"/>
      <point x="1415" y="136"/>
      <point x="1473" y="136" type="curve" smooth="yes"/>
      <point x="1550" y="136"/>
      <point x="1714" y="264"/>
      <point x="1778" y="371" type="curve"/>
      <point x="1741" y="403" type="line"/>
      <point x="1685" y="311"/>
      <point x="1558" y="215"/>
      <point x="1500" y="206" type="curve" smooth="yes"/>
      <point x="1466" y="206"/>
      <point x="1422" y="245"/>
      <point x="1424" y="273" type="curve" smooth="yes"/>
      <point x="1444" y="329"/>
      <point x="1674" y="431"/>
      <point x="1674" y="531" type="curve" smooth="yes"/>
      <point x="1674" y="577"/>
      <point x="1601" y="621"/>
      <point x="1538" y="621" type="curve" smooth="yes"/>
      <point x="1491" y="621"/>
      <point x="1419" y="591"/>
    </contour>
  </outline>
</glyph>
<glyph name="dvLL_YA" format="1">
  <advance width="1371"/>
  <outline>
    <contour>
      <point x="911" y="571" type="line"/>
      <point x="925" y="580"/>
      <point x="933" y="595"/>
      <point x="937" y="609" type="curve"/>
      <point x="925" y="621" type="line"/>
      <point x="27" y="621" type="line"/>
      <point x="13" y="612"/>
      <point x="4" y="597"/>
      <point x="-1" y="584" type="curve"/>
      <point x="13" y="571" type="line"/>
    </contour>
    <contour>
      <point x="354" y="149" type="line"/>
      <point x="391" y="91"/>
      <point x="441" y="30"/>
      <point x="502" y="0" type="curve"/>
      <point x="625" y="22"/>
      <point x="736" y="161"/>
      <point x="737" y="275" type="curve" smooth="yes"/>
      <point x="739" y="351"/>
      <point x="676" y="444"/>
      <point x="633" y="444" type="curve" smooth="yes"/>
      <point x="515" y="444"/>
      <point x="411" y="192"/>
      <point x="179" y="68" type="curve"/>
      <point x="127" y="90"/>
      <point x="106" y="128"/>
      <point x="101" y="174" type="curve"/>
      <point x="109" y="234"/>
      <point x="173" y="308"/>
      <point x="244" y="337" type="curve"/>
      <point x="283" y="294"/>
      <point x="320" y="241"/>
      <point x="359" y="175" type="curve"/>
      <point x="394" y="207" type="line"/>
      <point x="361" y="281"/>
      <point x="313" y="352"/>
      <point x="262" y="412" type="curve"/>
      <point x="131" y="402"/>
      <point x="13" y="255"/>
      <point x="12" y="182" type="curve" smooth="yes"/>
      <point x="11" y="96"/>
      <point x="89" y="16"/>
      <point x="187" y="0" type="curve"/>
      <point x="383" y="69"/>
      <point x="505" y="293"/>
      <point x="625" y="363" type="curve"/>
      <point x="647" y="332"/>
      <point x="656" y="300"/>
      <point x="655" y="268" type="curve" smooth="yes"/>
      <point x="652" y="189"/>
      <point x="593" y="106"/>
      <point x="514" y="68" type="curve"/>
      <point x="471" y="89"/>
      <point x="425" y="139"/>
      <point x="391" y="189" type="curve"/>
    </contour>
    <contour>
      <point x="1405" y="614" type="line"/>
      <point x="1386" y="643"/>
      <point x="1354" y="654"/>
      <point x="1287" y="651" type="curve"/>
      <point x="1210" y="314" type="line"/>
      <point x="1231" y="296" type="line"/>
      <point x="1190" y="226" type="line"/>
      <point x="1144" y="32" type="line"/>
      <point x="1174" y="4"/>
      <point x="1221" y="-8"/>
      <point x="1263" y="5" type="curve"/>
      <point x="1320" y="436" type="line"/>
    </contour>
    <contour>
      <point x="1499" y="571" type="line"/>
      <point x="1513" y="580"/>
      <point x="1521" y="595"/>
      <point x="1525" y="609" type="curve"/>
      <point x="1513" y="621" type="line"/>
      <point x="811" y="621" type="line"/>
      <point x="797" y="612"/>
      <point x="788" y="597"/>
      <point x="783" y="584" type="curve"/>
      <point x="797" y="571" type="line"/>
    </contour>
    <contour>
      <point x="873" y="556" type="curve"/>
      <point x="864" y="531"/>
      <point x="886" y="509"/>
      <point x="921" y="500" type="curve"/>
      <point x="955" y="527"/>
      <point x="987" y="545"/>
      <point x="1023" y="546" type="curve" smooth="yes"/>
      <point x="1043" y="547"/>
      <point x="1068" y="538"/>
      <point x="1073" y="521" type="curve" smooth="yes"/>
      <point x="1068" y="421"/>
      <point x="804" y="349"/>
      <point x="804" y="269" type="curve" smooth="yes"/>
      <point x="804" y="213"/>
      <point x="904" y="136"/>
      <point x="963" y="136" type="curve" smooth="yes"/>
      <point x="1040" y="136"/>
      <point x="1204" y="264"/>
      <point x="1268" y="371" type="curve"/>
      <point x="1230" y="403" type="line"/>
      <point x="1174" y="311"/>
      <point x="1047" y="215"/>
      <point x="990" y="206" type="curve" smooth="yes"/>
      <point x="955" y="206"/>
      <point x="911" y="245"/>
      <point x="913" y="273" type="curve" smooth="yes"/>
      <point x="933" y="329"/>
      <point x="1164" y="431"/>
      <point x="1164" y="531" type="curve" smooth="yes"/>
      <point x="1164" y="577"/>
      <point x="1091" y="621"/>
      <point x="1027" y="621" type="curve" smooth="yes"/>
      <point x="980" y="621"/>
      <point x="908" y="591"/>
    </contour>
  </outline>
</glyph>
<glyph name="dvL" format="1">
  <advance width="420"/>
  <outline>
    <contour>
      <point x="329" y="290" type="line"/>
      <point x="336" y="304"/>
      <point x="342" y="320"/>
      <point x="346" y="335" type="curve" smooth="yes"/>
      <point x="342" y="386"/>
      <point x="317" y="432"/>
      <point x="271" y="454" type="curve"/>
      <point x="245" y="459"/>
      <point x="196" y="457"/>
      <point x="168" y="450" type="curve"/>
      <point x="99" y="417"/>
      <point x="17" y="324"/>
      <point x="17" y="254" type="curve" smooth="yes"/>
      <point x="17" y="175"/>
      <point x="79" y="67"/>
      <point x="179" y="-2" type="curve"/>
      <point x="224" y="6"/>
      <point x="251" y="40"/>
      <point x="249" y="70" type="curve"/>
      <point x="164" y="122"/>
      <point x="128" y="186"/>
      <point x="122" y="247" type="curve" smooth="yes"/>
      <point x="123" y="305"/>
      <point x="161" y="362"/>
      <point x="212" y="386" type="curve"/>
      <point x="243" y="376"/>
      <point x="259" y="354"/>
      <point x="264" y="330" type="curve" smooth="yes"/>
      <point x="263" y="305"/>
      <point x="250" y="276"/>
      <point x="232" y="250" type="curve"/>
      <point x="237" y="225"/>
      <point x="284" y="195"/>
      <point x="327" y="193" type="curve"/>
      <point x="392" y="243"/>
      <point x="493" y="339"/>
      <point x="550" y="393" type="curve"/>
      <point x="524" y="461" type="line"/>
      <point x="472" y="398"/>
      <point x="408" y="338"/>
      <point x="335" y="285" type="curve"/>
    </contour>
    <contour>
      <point x="597" y="571" type="line"/>
      <point x="611" y="580"/>
      <point x="619" y="595"/>
      <point x="623" y="609" type="curve"/>
      <point x="611" y="621" type="line"/>
      <point x="27" y="621" type="line"/>
      <point x="14" y="612"/>
      <point x="5" y="597"/>
      <point x="0" y="584" type="curve"/>
      <point x="14" y="571" type="line"/>
    </contour>
  </outline>
</glyph>
<glyph name="dvL_BA" format="1">
  <advance width="882"/>
  <outline>
    <contour>
      <point x="597" y="571" type="line"/>
      <point x="611" y="580"/>
      <point x="619" y="595"/>
      <point x="623" y="609" type="curve"/>
      <point x="611" y="621" type="line"/>
      <point x="27" y="621" type="line"/>
      <point x="14" y="612"/>
      <point x="5" y="597"/>
      <point x="0" y="584" type="curve"/>
      <point x="14" y="571" type="line"/>
    </contour>
    <contour>
      <point x="499" y="436" type="line"/>
      <point x="446" y="374"/>
      <point x="407" y="339"/>
      <point x="335" y="285" type="curve"/>
      <point x="329" y="290" type="line"/>
      <point x="336" y="304"/>
      <point x="342" y="320"/>
      <point x="346" y="335" type="curve" smooth="yes"/>
      <point x="342" y="386"/>
      <point x="317" y="432"/>
      <point x="271" y="454" type="curve"/>
      <point x="245" y="459"/>
      <point x="196" y="457"/>
      <point x="168" y="450" type="curve"/>
      <point x="99" y="417"/>
      <point x="17" y="324"/>
      <point x="17" y="254" type="curve" smooth="yes"/>
      <point x="17" y="175"/>
      <point x="79" y="67"/>
      <point x="179" y="-2" type="curve"/>
      <point x="224" y="6"/>
      <point x="251" y="40"/>
      <point x="249" y="70" type="curve"/>
      <point x="164" y="122"/>
      <point x="128" y="186"/>
      <point x="122" y="247" type="curve" smooth="yes"/>
      <point x="123" y="305"/>
      <point x="161" y="362"/>
      <point x="212" y="386" type="curve"/>
      <point x="243" y="376"/>
      <point x="259" y="354"/>
      <point x="264" y="330" type="curve" smooth="yes"/>
      <point x="263" y="305"/>
      <point x="250" y="276"/>
      <point x="232" y="250" type="curve"/>
      <point x="237" y="225"/>
      <point x="284" y="195"/>
      <point x="327" y="193" type="curve"/>
      <point x="392" y="243"/>
      <point x="489" y="334"/>
      <point x="546" y="388" type="curve"/>
    </contour>
    <contour>
      <point x="561" y="159" type="curve"/>
      <point x="539" y="170"/>
      <point x="525" y="199"/>
      <point x="525" y="236" type="curve" smooth="yes"/>
      <point x="525" y="337"/>
      <point x="591" y="441"/>
      <point x="654" y="446" type="curve" smooth="yes"/>
      <point x="688" y="442"/>
      <point x="713" y="400"/>
      <point x="733" y="358" type="curve"/>
      <point x="723" y="317" type="line"/>
      <point x="673" y="266"/>
      <point x="616" y="212"/>
    </contour>
    <contour>
      <point x="1010" y="571" type="line"/>
      <point x="1024" y="580"/>
      <point x="1032" y="595"/>
      <point x="1036" y="609" type="curve"/>
      <point x="1024" y="621" type="line"/>
      <point x="431" y="621" type="line"/>
      <point x="418" y="612"/>
      <point x="409" y="597"/>
      <point x="404" y="584" type="curve"/>
      <point x="418" y="571" type="line"/>
    </contour>
    <contour>
      <point x="746" y="421" type="line"/>
      <point x="725" y="463"/>
      <point x="695" y="504"/>
      <point x="647" y="509" type="curve" smooth="yes"/>
      <point x="523" y="509"/>
      <point x="421" y="361"/>
      <point x="421" y="235" type="curve" smooth="yes"/>
      <point x="421" y="146"/>
      <point x="484" y="100"/>
      <point x="575" y="96" type="curve"/>
      <point x="626" y="153"/>
      <point x="677" y="209"/>
      <point x="722" y="260" type="curve"/>
      <point x="731" y="252" type="line"/>
      <point x="691" y="186" type="line"/>
      <point x="654" y="32" type="line"/>
      <point x="684" y="4"/>
      <point x="731" y="-8"/>
      <point x="773" y="5" type="curve"/>
      <point x="831" y="436" type="line"/>
      <point x="916" y="614" type="line"/>
      <point x="897" y="643"/>
      <point x="865" y="654"/>
      <point x="797" y="651" type="curve"/>
      <point x="749" y="422" type="line"/>
    </contour>
    <contour>
      <point x="682" y="233" type="curve"/>
      <point x="714" y="265" type="line"/>
      <point x="663" y="314"/>
      <point x="616" y="370"/>
      <point x="576" y="424" type="curve"/>
      <point x="546" y="383" type="line"/>
      <point x="582" y="332"/>
      <point x="640" y="271"/>
    </contour>
  </outline>
</glyph>
<glyph name="dvL_BHA" format="1">
  <advance width="943"/>
  <outline>
    <contour>
      <point x="566" y="571" type="line"/>
      <point x="580" y="580"/>
      <point x="588" y="595"/>
      <point x="592" y="609" type="curve"/>
      <point x="580" y="621" type="line"/>
      <point x="27" y="621" type="line"/>
      <point x="14" y="612"/>
      <point x="5" y="597"/>
      <point x="0" y="584" type="curve"/>
      <point x="14" y="571" type="line"/>
    </contour>
    <contour>
      <point x="496" y="445" type="line"/>
      <point x="429" y="369"/>
      <point x="375" y="322"/>
      <point x="323" y="282" type="curve"/>
      <point x="317" y="287" type="line"/>
      <point x="340" y="328"/>
      <point x="332" y="398"/>
      <point x="294" y="428" type="curve"/>
      <point x="283" y="443"/>
      <point x="262" y="452"/>
      <point x="232" y="454" type="curve" smooth="yes"/>
      <point x="211" y="455"/>
      <point x="188" y="454"/>
      <point x="168" y="450" type="curve"/>
      <point x="99" y="417"/>
      <point x="17" y="324"/>
      <point x="17" y="254" type="curve" smooth="yes"/>
      <point x="17" y="175"/>
      <point x="79" y="67"/>
      <point x="179" y="-2" type="curve"/>
      <point x="224" y="6"/>
      <point x="251" y="40"/>
      <point x="249" y="70" type="curve"/>
      <point x="164" y="122"/>
      <point x="128" y="186"/>
      <point x="122" y="247" type="curve" smooth="yes"/>
      <point x="123" y="305"/>
      <point x="161" y="362"/>
      <point x="212" y="386" type="curve"/>
      <point x="243" y="376"/>
      <point x="259" y="354"/>
      <point x="264" y="330" type="curve" smooth="yes"/>
      <point x="263" y="305"/>
      <point x="249" y="287"/>
      <point x="231" y="261" type="curve"/>
      <point x="236" y="236"/>
      <point x="283" y="206"/>
      <point x="328" y="210" type="curve"/>
      <point x="391" y="254"/>
      <point x="482" y="350"/>
      <point x="531" y="401" type="curve"/>
    </contour>
    <contour>
      <point x="975" y="496" type="line"/>
      <point x="952" y="525"/>
      <point x="917" y="538"/>
      <point x="859" y="537" type="curve"/>
      <point x="842" y="472" type="line"/>
      <point x="852" y="466" type="line"/>
      <point x="750" y="32" type="line"/>
      <point x="780" y="4"/>
      <point x="827" y="-8"/>
      <point x="869" y="5" type="curve"/>
      <point x="918" y="387" type="line"/>
    </contour>
    <contour>
      <point x="1071" y="571" type="line"/>
      <point x="1084" y="580"/>
      <point x="1092" y="595"/>
      <point x="1096" y="609" type="curve"/>
      <point x="1084" y="621" type="line"/>
      <point x="838" y="621" type="line"/>
      <point x="824" y="612"/>
      <point x="816" y="597"/>
      <point x="811" y="584" type="curve"/>
      <point x="824" y="571" type="line"/>
    </contour>
    <contour>
      <point x="662" y="613" type="line"/>
      <point x="656" y="572"/>
      <point x="646" y="524"/>
      <point x="637" y="482" type="curve"/>
      <point x="647" y="467" type="line"/>
      <point x="630" y="439" type="line"/>
      <point x="616" y="368"/>
      <point x="593" y="289"/>
      <point x="567" y="218" type="curve"/>
      <point x="558" y="212" type="line"/>
      <point x="522" y="226"/>
      <point x="506" y="243"/>
      <point x="486" y="278" type="curve"/>
      <point x="460" y="239" type="line"/>
      <point x="616" y="328"/>
      <point x="752" y="406"/>
      <point x="882" y="497" type="curve"/>
      <point x="859" y="537" type="line"/>
      <point x="739" y="449"/>
      <point x="589" y="370"/>
      <point x="451" y="297" type="curve"/>
      <point x="429" y="285"/>
      <point x="421" y="256"/>
      <point x="420" y="234" type="curve"/>
      <point x="449" y="181"/>
      <point x="505" y="150"/>
      <point x="562" y="142" type="curve"/>
      <point x="595" y="146"/>
      <point x="634" y="159"/>
      <point x="656" y="181" type="curve"/>
      <point x="700" y="341"/>
      <point x="730" y="502"/>
      <point x="758" y="665" type="curve"/>
      <point x="744" y="689"/>
      <point x="702" y="705"/>
      <point x="666" y="703" type="curve"/>
      <point x="621" y="657"/>
      <point x="526" y="589"/>
      <point x="474" y="561" type="curve"/>
      <point x="462" y="551"/>
      <point x="451" y="526"/>
      <point x="450" y="509" type="curve" smooth="yes"/>
      <point x="455" y="481"/>
      <point x="503" y="443"/>
      <point x="552" y="436" type="curve"/>
      <point x="666" y="485" type="line"/>
      <point x="651" y="515" type="line"/>
      <point x="555" y="489" type="line"/>
      <point x="541" y="493"/>
      <point x="529" y="506"/>
      <point x="525" y="514" type="curve"/>
      <point x="569" y="548"/>
      <point x="615" y="583"/>
      <point x="657" y="616" type="curve"/>
    </contour>
  </outline>
</glyph>
<glyph name="dvL_DA" format="1">
  <advance width="867"/>
  <outline>
    <contour>
      <point x="500" y="-25" type="move" name="blwm"/>
    </contour>
    <contour>
      <point x="539" y="645" type="move" name="abvm_Ekaar"/>
    </contour>
    <contour>
      <point x="597" y="571" type="line"/>
      <point x="611" y="580"/>
      <point x="619" y="595"/>
      <point x="623" y="609" type="curve"/>
      <point x="611" y="621" type="line"/>
      <point x="27" y="621" type="line"/>
      <point x="14" y="612"/>
      <point x="5" y="597"/>
      <point x="0" y="584" type="curve"/>
      <point x="14" y="571" type="line"/>
    </contour>
    <contour>
      <point x="503" y="357" type="line"/>
      <point x="450" y="322"/>
      <point x="384" y="293"/>
      <point x="331" y="272" type="curve"/>
      <point x="325" y="277" type="line"/>
      <point x="336" y="294"/>
      <point x="342" y="320"/>
      <point x="346" y="335" type="curve" smooth="yes"/>
      <point x="342" y="386"/>
      <point x="317" y="432"/>
      <point x="271" y="454" type="curve"/>
      <point x="245" y="459"/>
      <point x="196" y="457"/>
      <point x="168" y="450" type="curve"/>
      <point x="99" y="417"/>
      <point x="17" y="324"/>
      <point x="17" y="254" type="curve" smooth="yes"/>
      <point x="17" y="175"/>
      <point x="79" y="67"/>
      <point x="179" y="-2" type="curve"/>
      <point x="224" y="6"/>
      <point x="251" y="40"/>
      <point x="249" y="70" type="curve"/>
      <point x="164" y="122"/>
      <point x="128" y="186"/>
      <point x="122" y="247" type="curve" smooth="yes"/>
      <point x="123" y="305"/>
      <point x="161" y="362"/>
      <point x="212" y="386" type="curve"/>
      <point x="243" y="376"/>
      <point x="259" y="354"/>
      <point x="264" y="330" type="curve" smooth="yes"/>
      <point x="263" y="305"/>
      <point x="250" y="276"/>
      <point x="232" y="250" type="curve"/>
      <point x="230" y="225"/>
      <point x="272" y="196"/>
      <point x="327" y="193" type="curve"/>
      <point x="370" y="215"/>
      <point x="472" y="267"/>
      <point x="532" y="317" type="curve"/>
    </contour>
    <contour>
      <point x="960" y="571" type="line"/>
      <point x="973" y="580"/>
      <point x="981" y="595"/>
      <point x="985" y="609" type="curve"/>
      <point x="973" y="621" type="line"/>
      <point x="394" y="621" type="line"/>
      <point x="381" y="612"/>
      <point x="372" y="597"/>
      <point x="367" y="584" type="curve"/>
      <point x="381" y="571" type="line"/>
    </contour>
    <contour>
      <point x="638" y="615" type="curve"/>
      <point x="599" y="583" type="line"/>
      <point x="652" y="552"/>
      <point x="694" y="526"/>
      <point x="712" y="494" type="curve"/>
      <point x="709" y="486" type="line"/>
      <point x="632" y="393"/>
      <point x="378" y="339"/>
      <point x="378" y="220" type="curve" smooth="yes"/>
      <point x="378" y="133"/>
      <point x="480" y="53"/>
      <point x="600" y="36" type="curve"/>
      <point x="649" y="97"/>
      <point x="697" y="163"/>
      <point x="729" y="200" type="curve"/>
      <point x="736" y="195" type="line"/>
      <point x="710" y="128"/>
      <point x="655" y="-10"/>
      <point x="617" y="-114" type="curve"/>
      <point x="624" y="-143"/>
      <point x="660" y="-158"/>
      <point x="707" y="-157" type="curve"/>
      <point x="745" y="-19"/>
      <point x="783" y="116"/>
      <point x="828" y="222" type="curve"/>
      <point x="801" y="268"/>
      <point x="756" y="284"/>
      <point x="722" y="277" type="curve"/>
      <point x="694" y="246"/>
      <point x="616" y="152"/>
      <point x="566" y="101" type="curve"/>
      <point x="605" y="113" type="line"/>
      <point x="549" y="120"/>
      <point x="491" y="167"/>
      <point x="477" y="217" type="curve"/>
      <point x="518" y="288"/>
      <point x="693" y="360"/>
      <point x="760" y="418" type="curve"/>
      <point x="787" y="448"/>
      <point x="799" y="482"/>
      <point x="790" y="508" type="curve"/>
      <point x="761" y="551"/>
      <point x="693" y="588"/>
    </contour>
  </outline>
</glyph>
<glyph name="dvL_DDA" format="1">
  <advance width="838"/>
  <outline>
    <contour>
      <point x="629" y="2" type="move" name="blwm"/>
    </contour>
    <contour>
      <point x="539" y="645" type="move" name="abvm_Ekaar"/>
    </contour>
    <contour>
      <point x="597" y="571" type="line"/>
      <point x="611" y="580"/>
      <point x="619" y="595"/>
      <point x="623" y="609" type="curve"/>
      <point x="611" y="621" type="line"/>
      <point x="27" y="621" type="line"/>
      <point x="14" y="612"/>
      <point x="5" y="597"/>
      <point x="0" y="584" type="curve"/>
      <point x="14" y="571" type="line"/>
    </contour>
    <contour>
      <point x="484" y="364" type="line"/>
      <point x="446" y="332"/>
      <point x="382" y="298"/>
      <point x="331" y="273" type="curve"/>
      <point x="325" y="277" type="line"/>
      <point x="335" y="293"/>
      <point x="342" y="320"/>
      <point x="346" y="335" type="curve" smooth="yes"/>
      <point x="342" y="386"/>
      <point x="317" y="432"/>
      <point x="271" y="454" type="curve"/>
      <point x="245" y="459"/>
      <point x="196" y="457"/>
      <point x="168" y="450" type="curve"/>
      <point x="99" y="417"/>
      <point x="17" y="324"/>
      <point x="17" y="254" type="curve" smooth="yes"/>
      <point x="17" y="175"/>
      <point x="79" y="67"/>
      <point x="179" y="-2" type="curve"/>
      <point x="224" y="6"/>
      <point x="251" y="40"/>
      <point x="249" y="70" type="curve"/>
      <point x="164" y="122"/>
      <point x="128" y="186"/>
      <point x="122" y="247" type="curve" smooth="yes"/>
      <point x="123" y="305"/>
      <point x="161" y="362"/>
      <point x="212" y="386" type="curve"/>
      <point x="243" y="376"/>
      <point x="259" y="354"/>
      <point x="264" y="330" type="curve" smooth="yes"/>
      <point x="263" y="305"/>
      <point x="250" y="276"/>
      <point x="232" y="250" type="curve"/>
      <point x="233" y="225"/>
      <point x="279" y="195"/>
      <point x="327" y="193" type="curve"/>
      <point x="375" y="226"/>
      <point x="465" y="287"/>
      <point x="516" y="324" type="curve"/>
    </contour>
    <contour>
      <point x="965" y="571" type="line"/>
      <point x="979" y="580"/>
      <point x="987" y="595"/>
      <point x="991" y="609" type="curve"/>
      <point x="979" y="621" type="line"/>
      <point x="405" y="621" type="line"/>
      <point x="391" y="612"/>
      <point x="382" y="597"/>
      <point x="377" y="584" type="curve"/>
      <point x="391" y="571" type="line"/>
    </contour>
    <contour>
      <point x="638" y="612" type="curve"/>
      <point x="603" y="575" type="line"/>
      <point x="642" y="556"/>
      <point x="691" y="535"/>
      <point x="715" y="501" type="curve"/>
      <point x="713" y="493" type="line"/>
      <point x="651" y="456"/>
      <point x="565" y="436"/>
      <point x="482" y="415" type="curve"/>
      <point x="442" y="393"/>
      <point x="429" y="344"/>
      <point x="440" y="303" type="curve"/>
      <point x="514" y="251"/>
      <point x="634" y="239"/>
      <point x="710" y="192" type="curve"/>
      <point x="710" y="185" type="line"/>
      <point x="631" y="127"/>
      <point x="495" y="106"/>
      <point x="392" y="101" type="curve"/>
      <point x="371" y="79"/>
      <point x="379" y="43"/>
      <point x="414" y="13" type="curve"/>
      <point x="533" y="24"/>
      <point x="698" y="68"/>
      <point x="763" y="118" type="curve"/>
      <point x="787" y="150"/>
      <point x="799" y="210"/>
      <point x="777" y="237" type="curve"/>
      <point x="706" y="280"/>
      <point x="592" y="296"/>
      <point x="525" y="335" type="curve"/>
      <point x="527" y="344" type="line"/>
      <point x="593" y="370"/>
      <point x="690" y="389"/>
      <point x="755" y="429" type="curve"/>
      <point x="782" y="453"/>
      <point x="793" y="493"/>
      <point x="788" y="516" type="curve"/>
      <point x="749" y="565"/>
      <point x="693" y="590"/>
    </contour>
  </outline>
</glyph>
<glyph name="dvL_DDHA" format="1">
  <advance width="900"/>
  <outline>
    <contour>
      <point x="679" y="2" type="move" name="blwm"/>
    </contour>
    <contour>
      <point x="570" y="645" type="move" name="abvm_Ekaar"/>
    </contour>
    <contour>
      <point x="597" y="571" type="line"/>
      <point x="611" y="580"/>
      <point x="619" y="595"/>
      <point x="623" y="609" type="curve"/>
      <point x="611" y="621" type="line"/>
      <point x="27" y="621" type="line"/>
      <point x="14" y="612"/>
      <point x="5" y="597"/>
      <point x="0" y="584" type="curve"/>
      <point x="14" y="571" type="line"/>
    </contour>
    <contour>
      <point x="508" y="353" type="line"/>
      <point x="457" y="324"/>
      <point x="387" y="294"/>
      <point x="331" y="273" type="curve"/>
      <point x="325" y="277" type="line"/>
      <point x="335" y="293"/>
      <point x="342" y="320"/>
      <point x="346" y="335" type="curve" smooth="yes"/>
      <point x="342" y="386"/>
      <point x="317" y="432"/>
      <point x="271" y="454" type="curve"/>
      <point x="245" y="459"/>
      <point x="196" y="457"/>
      <point x="168" y="450" type="curve"/>
      <point x="99" y="417"/>
      <point x="17" y="324"/>
      <point x="17" y="254" type="curve" smooth="yes"/>
      <point x="17" y="175"/>
      <point x="79" y="67"/>
      <point x="179" y="-2" type="curve"/>
      <point x="224" y="6"/>
      <point x="251" y="40"/>
      <point x="249" y="70" type="curve"/>
      <point x="164" y="122"/>
      <point x="128" y="186"/>
      <point x="122" y="247" type="curve" smooth="yes"/>
      <point x="123" y="305"/>
      <point x="161" y="362"/>
      <point x="212" y="386" type="curve"/>
      <point x="243" y="376"/>
      <point x="259" y="354"/>
      <point x="264" y="330" type="curve" smooth="yes"/>
      <point x="263" y="305"/>
      <point x="250" y="276"/>
      <point x="232" y="250" type="curve"/>
      <point x="233" y="225"/>
      <point x="279" y="195"/>
      <point x="327" y="193" type="curve"/>
      <point x="377" y="219"/>
      <point x="473" y="278"/>
      <point x="540" y="313" type="curve"/>
    </contour>
    <contour>
      <point x="1014" y="571" type="line"/>
      <point x="1027" y="580"/>
      <point x="1035" y="595"/>
      <point x="1039" y="609" type="curve"/>
      <point x="1027" y="621" type="line"/>
      <point x="404" y="621" type="line"/>
      <point x="390" y="612"/>
      <point x="381" y="597"/>
      <point x="376" y="584" type="curve"/>
      <point x="390" y="571" type="line"/>
    </contour>
    <contour>
      <point x="651" y="610" type="curve"/>
      <point x="611" y="577" type="line"/>
      <point x="663" y="545"/>
      <point x="700" y="524"/>
      <point x="722" y="487" type="curve"/>
      <point x="718" y="477" type="line"/>
      <point x="660" y="421"/>
      <point x="494" y="350"/>
      <point x="413" y="291" type="curve"/>
      <point x="392" y="270"/>
      <point x="381" y="237"/>
      <point x="380" y="208" type="curve"/>
      <point x="410" y="124"/>
      <point x="512" y="36"/>
      <point x="610" y="34" type="curve" smooth="yes"/>
      <point x="694" y="34"/>
      <point x="860" y="127"/>
      <point x="860" y="193" type="curve" smooth="yes"/>
      <point x="860" y="232"/>
      <point x="796" y="290"/>
      <point x="721" y="293" type="curve"/>
      <point x="648" y="238"/>
      <point x="588" y="189"/>
      <point x="513" y="133" type="curve"/>
      <point x="544" y="99" type="line"/>
      <point x="609" y="146"/>
      <point x="674" y="198"/>
      <point x="720" y="226" type="curve"/>
      <point x="741" y="218"/>
      <point x="761" y="203"/>
      <point x="767" y="187" type="curve"/>
      <point x="744" y="139"/>
      <point x="685" y="101"/>
      <point x="611" y="87" type="curve"/>
      <point x="544" y="110"/>
      <point x="485" y="168"/>
      <point x="485" y="217" type="curve" smooth="yes"/>
      <point x="485" y="276"/>
      <point x="707" y="353"/>
      <point x="779" y="431" type="curve"/>
      <point x="800" y="458"/>
      <point x="808" y="481"/>
      <point x="799" y="505" type="curve"/>
      <point x="771" y="547"/>
      <point x="707" y="578"/>
    </contour>
  </outline>
</glyph>
<glyph name="dvL_D_RA" format="1">
  <advance width="867"/>
  <outline>
    <contour>
      <point x="568" y="-226" type="move" name="blwm"/>
    </contour>
    <contour>
      <point x="530" y="645" type="move" name="abvm_Ekaar"/>
    </contour>
    <contour>
      <point x="597" y="571" type="line"/>
      <point x="611" y="580"/>
      <point x="619" y="595"/>
      <point x="623" y="609" type="curve"/>
      <point x="611" y="621" type="line"/>
      <point x="27" y="621" type="line"/>
      <point x="14" y="612"/>
      <point x="5" y="597"/>
      <point x="0" y="584" type="curve"/>
      <point x="14" y="571" type="line"/>
    </contour>
    <contour>
      <point x="503" y="357" type="line"/>
      <point x="450" y="322"/>
      <point x="384" y="293"/>
      <point x="331" y="272" type="curve"/>
      <point x="325" y="277" type="line"/>
      <point x="336" y="294"/>
      <point x="342" y="320"/>
      <point x="346" y="335" type="curve" smooth="yes"/>
      <point x="342" y="386"/>
      <point x="317" y="432"/>
      <point x="271" y="454" type="curve"/>
      <point x="245" y="459"/>
      <point x="196" y="457"/>
      <point x="168" y="450" type="curve"/>
      <point x="99" y="417"/>
      <point x="17" y="324"/>
      <point x="17" y="254" type="curve" smooth="yes"/>
      <point x="17" y="175"/>
      <point x="79" y="67"/>
      <point x="179" y="-2" type="curve"/>
      <point x="224" y="6"/>
      <point x="251" y="40"/>
      <point x="249" y="70" type="curve"/>
      <point x="164" y="122"/>
      <point x="128" y="186"/>
      <point x="122" y="247" type="curve" smooth="yes"/>
      <point x="123" y="305"/>
      <point x="161" y="362"/>
      <point x="212" y="386" type="curve"/>
      <point x="243" y="376"/>
      <point x="259" y="354"/>
      <point x="264" y="330" type="curve" smooth="yes"/>
      <point x="263" y="305"/>
      <point x="250" y="276"/>
      <point x="232" y="250" type="curve"/>
      <point x="230" y="225"/>
      <point x="272" y="196"/>
      <point x="327" y="193" type="curve"/>
      <point x="370" y="215"/>
      <point x="472" y="267"/>
      <point x="532" y="317" type="curve"/>
    </contour>
    <contour>
      <point x="960" y="571" type="line"/>
      <point x="973" y="580"/>
      <point x="981" y="595"/>
      <point x="985" y="609" type="curve"/>
      <point x="973" y="621" type="line"/>
      <point x="394" y="621" type="line"/>
      <point x="381" y="612"/>
      <point x="372" y="597"/>
      <point x="367" y="584" type="curve"/>
      <point x="381" y="571" type="line"/>
    </contour>
    <contour>
      <point x="638" y="615" type="curve"/>
      <point x="599" y="583" type="line"/>
      <point x="652" y="552"/>
      <point x="694" y="526"/>
      <point x="712" y="494" type="curve"/>
      <point x="709" y="486" type="line"/>
      <point x="632" y="393"/>
      <point x="378" y="339"/>
      <point x="378" y="220" type="curve" smooth="yes"/>
      <point x="378" y="133"/>
      <point x="482" y="54"/>
      <point x="600" y="39" type="curve"/>
      <point x="647" y="98"/>
      <point x="696" y="164"/>
      <point x="727" y="201" type="curve"/>
      <point x="734" y="197" type="line"/>
      <point x="712" y="125"/>
      <point x="633" y="-98"/>
      <point x="596" y="-213" type="curve"/>
      <point x="603" y="-242"/>
      <point x="640" y="-256"/>
      <point x="686" y="-253" type="curve"/>
      <point x="723" y="-102"/>
      <point x="781" y="114"/>
      <point x="826" y="225" type="curve"/>
      <point x="797" y="270"/>
      <point x="751" y="285"/>
      <point x="719" y="278" type="curve"/>
      <point x="693" y="247"/>
      <point x="615" y="152"/>
      <point x="567" y="104" type="curve"/>
      <point x="607" y="117" type="line"/>
      <point x="549" y="121"/>
      <point x="491" y="165"/>
      <point x="477" y="217" type="curve"/>
      <point x="518" y="288"/>
      <point x="693" y="360"/>
      <point x="760" y="418" type="curve"/>
      <point x="787" y="448"/>
      <point x="799" y="482"/>
      <point x="790" y="508" type="curve"/>
      <point x="761" y="551"/>
      <point x="693" y="588"/>
    </contour>
    <contour>
      <point x="693" y="52" type="line"/>
      <point x="591" y="-2"/>
      <point x="471" y="-78"/>
      <point x="378" y="-149" type="curve"/>
      <point x="372" y="-176"/>
      <point x="384" y="-198"/>
      <point x="434" y="-212" type="curve"/>
      <point x="506" y="-136"/>
      <point x="631" y="-52"/>
      <point x="698" y="-19" type="curve"/>
    </contour>
  </outline>
</glyph>
<glyph name="dvL_GA" format="1">
  <advance width="1001"/>
  <outline>
    <contour>
      <point x="597" y="571" type="line"/>
      <point x="611" y="580"/>
      <point x="619" y="595"/>
      <point x="623" y="609" type="curve"/>
      <point x="611" y="621" type="line"/>
      <point x="27" y="621" type="line"/>
      <point x="14" y="612"/>
      <point x="5" y="597"/>
      <point x="0" y="584" type="curve"/>
      <point x="14" y="571" type="line"/>
    </contour>
    <contour>
      <point x="481" y="412" type="line"/>
      <point x="437" y="367"/>
      <point x="390" y="326"/>
      <point x="335" y="285" type="curve"/>
      <point x="329" y="290" type="line"/>
      <point x="336" y="304"/>
      <point x="342" y="320"/>
      <point x="346" y="335" type="curve" smooth="yes"/>
      <point x="342" y="386"/>
      <point x="317" y="432"/>
      <point x="271" y="454" type="curve"/>
      <point x="245" y="459"/>
      <point x="196" y="457"/>
      <point x="168" y="450" type="curve"/>
      <point x="99" y="417"/>
      <point x="17" y="324"/>
      <point x="17" y="254" type="curve" smooth="yes"/>
      <point x="17" y="175"/>
      <point x="79" y="67"/>
      <point x="179" y="-2" type="curve"/>
      <point x="224" y="6"/>
      <point x="251" y="40"/>
      <point x="249" y="70" type="curve"/>
      <point x="164" y="122"/>
      <point x="128" y="186"/>
      <point x="122" y="247" type="curve" smooth="yes"/>
      <point x="123" y="305"/>
      <point x="161" y="362"/>
      <point x="212" y="386" type="curve"/>
      <point x="243" y="376"/>
      <point x="259" y="354"/>
      <point x="264" y="330" type="curve" smooth="yes"/>
      <point x="263" y="305"/>
      <point x="250" y="276"/>
      <point x="232" y="250" type="curve"/>
      <point x="237" y="225"/>
      <point x="284" y="195"/>
      <point x="327" y="193" type="curve"/>
      <point x="381" y="235"/>
      <point x="458" y="306"/>
      <point x="515" y="361" type="curve"/>
    </contour>
    <contour>
      <point x="1037" y="614" type="line"/>
      <point x="1018" y="643"/>
      <point x="986" y="654"/>
      <point x="918" y="651" type="curve"/>
      <point x="775" y="32" type="line"/>
      <point x="805" y="4"/>
      <point x="852" y="-8"/>
      <point x="894" y="5" type="curve"/>
      <point x="951" y="436" type="line"/>
    </contour>
    <contour>
      <point x="1129" y="571" type="line"/>
      <point x="1143" y="580"/>
      <point x="1151" y="595"/>
      <point x="1155" y="609" type="curve"/>
      <point x="1143" y="621" type="line"/>
      <point x="479" y="621" type="line"/>
      <point x="465" y="612"/>
      <point x="456" y="597"/>
      <point x="451" y="584" type="curve"/>
      <point x="465" y="571" type="line"/>
    </contour>
    <contour>
      <point x="491" y="241" type="line"/>
      <point x="561" y="280"/>
      <point x="632" y="322"/>
      <point x="700" y="364" type="curve"/>
      <point x="686" y="413" type="line"/>
      <point x="619" y="372"/>
      <point x="550" y="334"/>
      <point x="481" y="299" type="curve"/>
      <point x="462" y="286"/>
      <point x="453" y="260"/>
      <point x="451" y="235" type="curve"/>
      <point x="480" y="179"/>
      <point x="537" y="149"/>
      <point x="597" y="140" type="curve"/>
      <point x="633" y="147"/>
      <point x="664" y="160"/>
      <point x="685" y="183" type="curve"/>
      <point x="718" y="287"/>
      <point x="754" y="471"/>
      <point x="767" y="610" type="curve"/>
      <point x="644" y="594" type="line"/>
      <point x="661" y="476" type="line"/>
      <point x="655" y="379"/>
      <point x="633" y="292"/>
      <point x="601" y="219" type="curve"/>
      <point x="592" y="213" type="line"/>
      <point x="561" y="224"/>
      <point x="540" y="242"/>
      <point x="519" y="279" type="curve"/>
    </contour>
  </outline>
</glyph>
<glyph name="dvL_HA" format="1">
  <advance width="845"/>
  <outline>
    <contour>
      <point x="557" y="2" type="move" name="blwm"/>
    </contour>
    <contour>
      <point x="589" y="645" type="move" name="abvm_Ekaar"/>
    </contour>
    <contour>
      <point x="329" y="290" type="line"/>
      <point x="336" y="304"/>
      <point x="342" y="320"/>
      <point x="346" y="335" type="curve" smooth="yes"/>
      <point x="342" y="386"/>
      <point x="317" y="432"/>
      <point x="271" y="454" type="curve"/>
      <point x="245" y="459"/>
      <point x="196" y="457"/>
      <point x="168" y="450" type="curve"/>
      <point x="99" y="417"/>
      <point x="17" y="324"/>
      <point x="17" y="254" type="curve" smooth="yes"/>
      <point x="17" y="175"/>
      <point x="79" y="67"/>
      <point x="179" y="-2" type="curve"/>
      <point x="224" y="6"/>
      <point x="251" y="40"/>
      <point x="249" y="70" type="curve"/>
      <point x="164" y="122"/>
      <point x="128" y="186"/>
      <point x="122" y="247" type="curve" smooth="yes"/>
      <point x="123" y="305"/>
      <point x="161" y="362"/>
      <point x="212" y="386" type="curve"/>
      <point x="243" y="376"/>
      <point x="259" y="354"/>
      <point x="264" y="330" type="curve" smooth="yes"/>
      <point x="263" y="305"/>
      <point x="250" y="276"/>
      <point x="232" y="250" type="curve"/>
      <point x="237" y="225"/>
      <point x="284" y="195"/>
      <point x="327" y="193" type="curve"/>
      <point x="392" y="243"/>
      <point x="493" y="339"/>
      <point x="550" y="393" type="curve"/>
      <point x="510" y="449" type="line"/>
      <point x="452" y="377"/>
      <point x="403" y="331"/>
      <point x="335" y="285" type="curve"/>
    </contour>
    <contour>
      <point x="597" y="571" type="line"/>
      <point x="611" y="580"/>
      <point x="619" y="595"/>
      <point x="623" y="609" type="curve"/>
      <point x="611" y="621" type="line"/>
      <point x="27" y="621" type="line"/>
      <point x="14" y="612"/>
      <point x="5" y="597"/>
      <point x="0" y="584" type="curve"/>
      <point x="14" y="571" type="line"/>
    </contour>
    <contour>
      <point x="935" y="571" type="line"/>
      <point x="949" y="580"/>
      <point x="957" y="595"/>
      <point x="961" y="609" type="curve"/>
      <point x="949" y="621" type="line"/>
      <point x="427" y="621" type="line"/>
      <point x="413" y="612"/>
      <point x="404" y="597"/>
      <point x="399" y="584" type="curve"/>
      <point x="413" y="571" type="line"/>
    </contour>
    <contour>
      <point x="713" y="603" type="curve"/>
      <point x="675" y="573" type="line"/>
      <point x="702" y="560"/>
      <point x="732" y="543"/>
      <point x="749" y="519" type="curve"/>
      <point x="746" y="512" type="line"/>
      <point x="701" y="484"/>
      <point x="621" y="462"/>
      <point x="522" y="457" type="curve"/>
      <point x="498" y="444"/>
      <point x="476" y="388"/>
      <point x="493" y="361" type="curve"/>
      <point x="525" y="349"/>
      <point x="586" y="318"/>
      <point x="608" y="307" type="curve"/>
      <point x="605" y="300" type="line"/>
      <point x="483" y="302"/>
      <point x="366" y="228"/>
      <point x="366" y="141" type="curve" smooth="yes"/>
      <point x="366" y="57"/>
      <point x="473" y="-29"/>
      <point x="581" y="-38" type="curve"/>
      <point x="656" y="-34"/>
      <point x="734" y="-7"/>
      <point x="772" y="32" type="curve"/>
      <point x="770" y="66"/>
      <point x="750" y="88"/>
      <point x="721" y="90" type="curve"/>
      <point x="685" y="55"/>
      <point x="636" y="32"/>
      <point x="585" y="24" type="curve"/>
      <point x="504" y="42"/>
      <point x="458" y="92"/>
      <point x="452" y="142" type="curve"/>
      <point x="474" y="211"/>
      <point x="558" y="253"/>
      <point x="608" y="256" type="curve" smooth="yes"/>
      <point x="628" y="255"/>
      <point x="636" y="247"/>
      <point x="637" y="235" type="curve" smooth="yes"/>
      <point x="634" y="222"/>
      <point x="621" y="205"/>
      <point x="603" y="190" type="curve"/>
      <point x="604" y="173"/>
      <point x="634" y="152"/>
      <point x="672" y="158" type="curve"/>
      <point x="703" y="192"/>
      <point x="722" y="236"/>
      <point x="722" y="271" type="curve" smooth="yes"/>
      <point x="722" y="321"/>
      <point x="646" y="351"/>
      <point x="571" y="382" type="curve"/>
      <point x="573" y="389" type="line"/>
      <point x="654" y="398"/>
      <point x="718" y="413"/>
      <point x="776" y="443" type="curve"/>
      <point x="802" y="464"/>
      <point x="818" y="497"/>
      <point x="813" y="527" type="curve"/>
      <point x="796" y="562"/>
      <point x="763" y="582"/>
    </contour>
  </outline>
</glyph>
<glyph name="dvL_JxA" format="1">
  <advance width="1099"/>
  <outline>
    <contour>
      <point x="597" y="571" type="line"/>
      <point x="611" y="580"/>
      <point x="619" y="595"/>
      <point x="623" y="609" type="curve"/>
      <point x="611" y="621" type="line"/>
      <point x="27" y="621" type="line"/>
      <point x="14" y="612"/>
      <point x="5" y="597"/>
      <point x="0" y="584" type="curve"/>
      <point x="14" y="571" type="line"/>
    </contour>
    <contour>
      <point x="527" y="432" type="line"/>
      <point x="472" y="372"/>
      <point x="381" y="314"/>
      <point x="335" y="285" type="curve"/>
      <point x="329" y="290" type="line"/>
      <point x="336" y="304"/>
      <point x="342" y="320"/>
      <point x="346" y="335" type="curve" smooth="yes"/>
      <point x="342" y="386"/>
      <point x="317" y="432"/>
      <point x="271" y="454" type="curve"/>
      <point x="245" y="459"/>
      <point x="196" y="457"/>
      <point x="168" y="450" type="curve"/>
      <point x="99" y="417"/>
      <point x="17" y="324"/>
      <point x="17" y="254" type="curve" smooth="yes"/>
      <point x="17" y="175"/>
      <point x="79" y="67"/>
      <point x="179" y="-2" type="curve"/>
      <point x="224" y="6"/>
      <point x="251" y="40"/>
      <point x="249" y="70" type="curve"/>
      <point x="164" y="122"/>
      <point x="128" y="186"/>
      <point x="122" y="247" type="curve" smooth="yes"/>
      <point x="123" y="305"/>
      <point x="161" y="362"/>
      <point x="212" y="386" type="curve"/>
      <point x="243" y="376"/>
      <point x="259" y="354"/>
      <point x="264" y="330" type="curve" smooth="yes"/>
      <point x="263" y="305"/>
      <point x="250" y="276"/>
      <point x="232" y="250" type="curve"/>
      <point x="237" y="225"/>
      <point x="284" y="195"/>
      <point x="327" y="193" type="curve"/>
      <point x="392" y="243"/>
      <point x="513" y="338"/>
      <point x="570" y="392" type="curve"/>
    </contour>
    <contour>
      <point x="1133" y="614" type="line"/>
      <point x="1114" y="643"/>
      <point x="1082" y="654"/>
      <point x="1014" y="651" type="curve"/>
      <point x="953" y="386" type="line"/>
      <point x="974" y="368" type="line"/>
      <point x="933" y="297" type="line"/>
      <point x="871" y="32" type="line"/>
      <point x="901" y="4"/>
      <point x="948" y="-8"/>
      <point x="990" y="5" type="curve"/>
      <point x="1047" y="436" type="line"/>
    </contour>
    <contour>
      <point x="1227" y="571" type="line"/>
      <point x="1241" y="580"/>
      <point x="1249" y="595"/>
      <point x="1253" y="609" type="curve"/>
      <point x="1241" y="621" type="line"/>
      <point x="450" y="621" type="line"/>
      <point x="437" y="612"/>
      <point x="428" y="597"/>
      <point x="423" y="584" type="curve"/>
      <point x="437" y="571" type="line"/>
    </contour>
    <contour>
      <point x="573" y="472" type="curve"/>
      <point x="511" y="434"/>
      <point x="477" y="364"/>
      <point x="470" y="315" type="curve" smooth="yes"/>
      <point x="464" y="220"/>
      <point x="526" y="117"/>
      <point x="606" y="110" type="curve" smooth="yes"/>
      <point x="669" y="108"/>
      <point x="808" y="195"/>
      <point x="814" y="291" type="curve"/>
      <point x="799" y="317" type="line"/>
      <point x="804" y="323" type="line"/>
      <point x="830" y="314" type="line"/>
      <point x="897" y="312"/>
      <point x="964" y="364"/>
      <point x="1012" y="415" type="curve"/>
      <point x="969" y="454" type="line"/>
      <point x="932" y="411"/>
      <point x="888" y="380"/>
      <point x="834" y="376" type="curve"/>
      <point x="817" y="383"/>
      <point x="796" y="399"/>
      <point x="780" y="416" type="curve"/>
      <point x="744" y="419"/>
      <point x="710" y="382"/>
      <point x="699" y="332" type="curve"/>
      <point x="716" y="326"/>
      <point x="739" y="314"/>
      <point x="739" y="295" type="curve" smooth="yes"/>
      <point x="735" y="255"/>
      <point x="678" y="192"/>
      <point x="617" y="177" type="curve"/>
      <point x="576" y="200"/>
      <point x="560" y="252"/>
      <point x="566" y="307" type="curve" smooth="yes"/>
      <point x="571" y="348"/>
      <point x="601" y="392"/>
      <point x="640" y="423" type="curve"/>
      <point x="635" y="456"/>
      <point x="610" y="475"/>
    </contour>
    <contour>
      <point x="531" y="-45" type="curve" smooth="yes"/>
      <point x="561" y="-45"/>
      <point x="586" y="-20"/>
      <point x="586" y="10" type="curve" smooth="yes"/>
      <point x="586" y="42"/>
      <point x="561" y="67"/>
      <point x="531" y="67" type="curve" smooth="yes"/>
      <point x="499" y="67"/>
      <point x="474" y="42"/>
      <point x="474" y="10" type="curve" smooth="yes"/>
      <point x="474" y="-20"/>
      <point x="499" y="-45"/>
    </contour>
  </outline>
</glyph>
<glyph name="dvL_KA" format="1">
  <advance width="1081"/>
  <outline>
    <contour>
      <point x="752" y="2" type="move" name="blwm"/>
    </contour>
    <contour>
      <point x="776" y="645" type="move" name="abvm_Ekaar"/>
    </contour>
    <contour>
      <point x="597" y="571" type="line"/>
      <point x="611" y="580"/>
      <point x="619" y="595"/>
      <point x="623" y="609" type="curve"/>
      <point x="611" y="621" type="line"/>
      <point x="27" y="621" type="line"/>
      <point x="14" y="612"/>
      <point x="5" y="597"/>
      <point x="0" y="584" type="curve"/>
      <point x="14" y="571" type="line"/>
    </contour>
    <contour>
      <point x="506" y="445" type="line"/>
      <point x="450" y="380"/>
      <point x="406" y="336"/>
      <point x="335" y="285" type="curve"/>
      <point x="329" y="290" type="line"/>
      <point x="336" y="304"/>
      <point x="342" y="320"/>
      <point x="346" y="335" type="curve" smooth="yes"/>
      <point x="342" y="386"/>
      <point x="317" y="432"/>
      <point x="271" y="454" type="curve"/>
      <point x="245" y="459"/>
      <point x="196" y="457"/>
      <point x="168" y="450" type="curve"/>
      <point x="99" y="417"/>
      <point x="17" y="324"/>
      <point x="17" y="254" type="curve" smooth="yes"/>
      <point x="17" y="175"/>
      <point x="79" y="67"/>
      <point x="179" y="-2" type="curve"/>
      <point x="224" y="6"/>
      <point x="251" y="40"/>
      <point x="249" y="70" type="curve"/>
      <point x="164" y="122"/>
      <point x="128" y="186"/>
      <point x="122" y="247" type="curve" smooth="yes"/>
      <point x="123" y="305"/>
      <point x="161" y="362"/>
      <point x="212" y="386" type="curve"/>
      <point x="243" y="376"/>
      <point x="259" y="354"/>
      <point x="264" y="330" type="curve" smooth="yes"/>
      <point x="263" y="305"/>
      <point x="250" y="276"/>
      <point x="232" y="250" type="curve"/>
      <point x="237" y="225"/>
      <point x="284" y="195"/>
      <point x="327" y="193" type="curve"/>
      <point x="392" y="243"/>
      <point x="488" y="337"/>
      <point x="545" y="391" type="curve"/>
    </contour>
    <contour>
      <point x="732" y="424" type="line"/>
      <point x="729" y="422" type="line"/>
      <point x="702" y="462"/>
      <point x="673" y="508"/>
      <point x="636" y="508" type="curve"/>
      <point x="525" y="508"/>
      <point x="420" y="359"/>
      <point x="420" y="235" type="curve" smooth="yes"/>
      <point x="420" y="147"/>
      <point x="484" y="103"/>
      <point x="573" y="99" type="curve"/>
      <point x="617" y="152"/>
      <point x="655" y="195"/>
      <point x="694" y="239" type="curve"/>
      <point x="705" y="231" type="line"/>
      <point x="667" y="158" type="line"/>
      <point x="637" y="32" type="line"/>
      <point x="667" y="4"/>
      <point x="714" y="-8"/>
      <point x="756" y="5" type="curve"/>
      <point x="797" y="316" type="line"/>
      <point x="814" y="358" type="line"/>
      <point x="789" y="376" type="line"/>
      <point x="826" y="456"/>
      <point x="863" y="535"/>
      <point x="899" y="614" type="curve"/>
      <point x="880" y="643"/>
      <point x="848" y="654"/>
      <point x="780" y="651" type="curve"/>
    </contour>
    <contour>
      <point x="1209" y="571" type="line"/>
      <point x="1223" y="580"/>
      <point x="1231" y="595"/>
      <point x="1235" y="609" type="curve"/>
      <point x="1223" y="621" type="line"/>
      <point x="419" y="621" type="line"/>
      <point x="405" y="612"/>
      <point x="396" y="597"/>
      <point x="391" y="584" type="curve"/>
      <point x="405" y="571" type="line"/>
    </contour>
    <contour>
      <point x="560" y="162" type="curve"/>
      <point x="539" y="172"/>
      <point x="525" y="195"/>
      <point x="525" y="236" type="curve" smooth="yes"/>
      <point x="525" y="334"/>
      <point x="590" y="438"/>
      <point x="643" y="444" type="curve" smooth="yes"/>
      <point x="669" y="440"/>
      <point x="696" y="402"/>
      <point x="716" y="359" type="curve"/>
      <point x="705" y="313" type="line"/>
      <point x="662" y="265"/>
      <point x="600" y="201"/>
    </contour>
    <contour>
      <point x="784" y="292" type="line"/>
      <point x="828" y="340"/>
      <point x="891" y="402"/>
      <point x="919" y="433" type="curve"/>
      <point x="955" y="429"/>
      <point x="975" y="403"/>
      <point x="975" y="365" type="curve" smooth="yes"/>
      <point x="975" y="288"/>
      <point x="941" y="217"/>
      <point x="849" y="137" type="curve"/>
      <point x="844" y="122"/>
      <point x="855" y="109"/>
      <point x="884" y="99" type="curve"/>
      <point x="994" y="183"/>
      <point x="1074" y="274"/>
      <point x="1074" y="381" type="curve" smooth="yes"/>
      <point x="1074" y="465"/>
      <point x="1006" y="513"/>
      <point x="910" y="497" type="curve"/>
      <point x="864" y="445"/>
      <point x="801" y="375"/>
      <point x="752" y="321" type="curve"/>
    </contour>
  </outline>
</glyph>
<glyph name="dvL_KHA" format="1">
  <advance width="1194"/>
  <outline>
    <contour>
      <point x="597" y="571" type="line"/>
      <point x="611" y="580"/>
      <point x="619" y="595"/>
      <point x="623" y="609" type="curve"/>
      <point x="611" y="621" type="line"/>
      <point x="27" y="621" type="line"/>
      <point x="14" y="612"/>
      <point x="5" y="597"/>
      <point x="0" y="584" type="curve"/>
      <point x="14" y="571" type="line"/>
    </contour>
    <contour>
      <point x="457" y="381" type="line"/>
      <point x="420" y="339"/>
      <point x="382" y="311"/>
      <point x="337" y="285" type="curve"/>
      <point x="331" y="290" type="line"/>
      <point x="338" y="304"/>
      <point x="344" y="320"/>
      <point x="348" y="335" type="curve" smooth="yes"/>
      <point x="344" y="386"/>
      <point x="319" y="432"/>
      <point x="273" y="454" type="curve"/>
      <point x="247" y="459"/>
      <point x="198" y="457"/>
      <point x="170" y="450" type="curve"/>
      <point x="102" y="417"/>
      <point x="19" y="324"/>
      <point x="19" y="254" type="curve" smooth="yes"/>
      <point x="19" y="175"/>
      <point x="81" y="67"/>
      <point x="181" y="-2" type="curve"/>
      <point x="226" y="6"/>
      <point x="253" y="40"/>
      <point x="252" y="70" type="curve"/>
      <point x="166" y="122"/>
      <point x="130" y="186"/>
      <point x="124" y="247" type="curve" smooth="yes"/>
      <point x="125" y="305"/>
      <point x="163" y="362"/>
      <point x="214" y="386" type="curve"/>
      <point x="245" y="376"/>
      <point x="261" y="354"/>
      <point x="266" y="330" type="curve" smooth="yes"/>
      <point x="265" y="305"/>
      <point x="252" y="276"/>
      <point x="234" y="250" type="curve"/>
      <point x="239" y="225"/>
      <point x="286" y="195"/>
      <point x="329" y="193" type="curve"/>
      <point x="396" y="240"/>
      <point x="458" y="288"/>
      <point x="497" y="342" type="curve"/>
    </contour>
    <contour>
      <point x="1322" y="571" type="line"/>
      <point x="1336" y="580"/>
      <point x="1344" y="595"/>
      <point x="1348" y="609" type="curve"/>
      <point x="1336" y="621" type="line"/>
      <point x="418" y="621" type="line"/>
      <point x="404" y="612"/>
      <point x="396" y="597"/>
      <point x="391" y="584" type="curve"/>
      <point x="404" y="571" type="line"/>
    </contour>
    <contour>
      <point x="930" y="233" type="curve"/>
      <point x="905" y="233"/>
      <point x="890" y="253"/>
      <point x="890" y="281" type="curve" smooth="yes"/>
      <point x="890" y="332"/>
      <point x="933" y="440"/>
      <point x="986" y="445" type="curve" smooth="yes"/>
      <point x="1012" y="441"/>
      <point x="1031" y="398"/>
      <point x="1038" y="361" type="curve"/>
      <point x="1032" y="330" type="line"/>
      <point x="1011" y="282"/>
      <point x="965" y="233"/>
    </contour>
    <contour>
      <point x="680" y="43" type="curve"/>
      <point x="780" y="55"/>
      <point x="952" y="153"/>
      <point x="1010" y="217" type="curve"/>
      <point x="1020" y="207" type="line"/>
      <point x="993" y="170" type="line"/>
      <point x="960" y="32" type="line"/>
      <point x="990" y="4"/>
      <point x="1037" y="-8"/>
      <point x="1079" y="5" type="curve"/>
      <point x="1136" y="436" type="line"/>
      <point x="1221" y="614" type="line"/>
      <point x="1202" y="643"/>
      <point x="1170" y="654"/>
      <point x="1103" y="651" type="curve"/>
      <point x="1058" y="435" type="line"/>
      <point x="1054" y="433" type="line"/>
      <point x="1040" y="475"/>
      <point x="1017" y="508"/>
      <point x="980" y="508" type="curve" smooth="yes"/>
      <point x="872" y="508"/>
      <point x="799" y="360"/>
      <point x="799" y="282" type="curve" smooth="yes"/>
      <point x="799" y="236"/>
      <point x="831" y="197"/>
      <point x="882" y="196" type="curve"/>
      <point x="885" y="191" type="line"/>
      <point x="830" y="163"/>
      <point x="745" y="121"/>
      <point x="697" y="120" type="curve" smooth="yes"/>
      <point x="638" y="126"/>
      <point x="565" y="215"/>
      <point x="524" y="265" type="curve"/>
      <point x="528" y="273" type="line"/>
      <point x="655" y="279"/>
      <point x="823" y="392"/>
      <point x="823" y="500" type="curve" smooth="yes"/>
      <point x="823" y="547"/>
      <point x="761" y="621"/>
      <point x="690" y="621" type="curve" smooth="yes"/>
      <point x="613" y="621"/>
      <point x="549" y="584"/>
      <point x="523" y="549" type="curve"/>
      <point x="518" y="526"/>
      <point x="539" y="503"/>
      <point x="573" y="494" type="curve"/>
      <point x="604" y="527"/>
      <point x="649" y="548"/>
      <point x="683" y="548" type="curve" smooth="yes"/>
      <point x="707" y="548"/>
      <point x="730" y="516"/>
      <point x="731" y="491" type="curve" smooth="yes"/>
      <point x="730" y="412"/>
      <point x="632" y="341"/>
      <point x="513" y="325" type="curve"/>
      <point x="496" y="343" type="line"/>
      <point x="449" y="341"/>
      <point x="421" y="302"/>
      <point x="411" y="255" type="curve"/>
      <point x="480" y="169"/>
      <point x="568" y="65"/>
    </contour>
  </outline>
</glyph>
<glyph name="dvL_K_YA" format="1">
  <advance width="1504"/>
  <outline>
    <contour>
      <point x="597" y="571" type="line"/>
      <point x="611" y="580"/>
      <point x="619" y="595"/>
      <point x="623" y="609" type="curve"/>
      <point x="611" y="621" type="line"/>
      <point x="27" y="621" type="line"/>
      <point x="14" y="612"/>
      <point x="5" y="597"/>
      <point x="0" y="584" type="curve"/>
      <point x="14" y="571" type="line"/>
    </contour>
    <contour>
      <point x="506" y="445" type="line"/>
      <point x="450" y="380"/>
      <point x="406" y="336"/>
      <point x="335" y="285" type="curve"/>
      <point x="329" y="290" type="line"/>
      <point x="336" y="304"/>
      <point x="342" y="320"/>
      <point x="346" y="335" type="curve" smooth="yes"/>
      <point x="342" y="386"/>
      <point x="317" y="432"/>
      <point x="271" y="454" type="curve"/>
      <point x="245" y="459"/>
      <point x="196" y="457"/>
      <point x="168" y="450" type="curve"/>
      <point x="99" y="417"/>
      <point x="17" y="324"/>
      <point x="17" y="254" type="curve" smooth="yes"/>
      <point x="17" y="175"/>
      <point x="79" y="67"/>
      <point x="179" y="-2" type="curve"/>
      <point x="224" y="6"/>
      <point x="251" y="40"/>
      <point x="249" y="70" type="curve"/>
      <point x="164" y="122"/>
      <point x="128" y="186"/>
      <point x="122" y="247" type="curve" smooth="yes"/>
      <point x="123" y="305"/>
      <point x="161" y="362"/>
      <point x="212" y="386" type="curve"/>
      <point x="243" y="376"/>
      <point x="259" y="354"/>
      <point x="264" y="330" type="curve" smooth="yes"/>
      <point x="263" y="305"/>
      <point x="250" y="276"/>
      <point x="232" y="250" type="curve"/>
      <point x="237" y="225"/>
      <point x="284" y="195"/>
      <point x="327" y="193" type="curve"/>
      <point x="392" y="243"/>
      <point x="488" y="337"/>
      <point x="545" y="391" type="curve"/>
    </contour>
    <contour>
      <point x="732" y="424" type="line"/>
      <point x="729" y="422" type="line"/>
      <point x="702" y="462"/>
      <point x="673" y="508"/>
      <point x="636" y="508" type="curve"/>
      <point x="525" y="508"/>
      <point x="420" y="359"/>
      <point x="420" y="235" type="curve" smooth="yes"/>
      <point x="420" y="147"/>
      <point x="484" y="103"/>
      <point x="573" y="99" type="curve"/>
      <point x="617" y="152"/>
      <point x="655" y="195"/>
      <point x="694" y="239" type="curve"/>
      <point x="705" y="231" type="line"/>
      <point x="667" y="158" type="line"/>
      <point x="637" y="32" type="line"/>
      <point x="667" y="4"/>
      <point x="714" y="-8"/>
      <point x="756" y="5" type="curve"/>
      <point x="797" y="316" type="line"/>
      <point x="814" y="358" type="line"/>
      <point x="789" y="376" type="line"/>
      <point x="826" y="456"/>
      <point x="863" y="535"/>
      <point x="899" y="614" type="curve"/>
      <point x="880" y="643"/>
      <point x="848" y="654"/>
      <point x="780" y="651" type="curve"/>
    </contour>
    <contour>
      <point x="1073" y="571" type="line"/>
      <point x="1087" y="580"/>
      <point x="1095" y="595"/>
      <point x="1099" y="609" type="curve"/>
      <point x="1087" y="621" type="line"/>
      <point x="419" y="621" type="line"/>
      <point x="405" y="612"/>
      <point x="396" y="597"/>
      <point x="391" y="584" type="curve"/>
      <point x="405" y="571" type="line"/>
    </contour>
    <contour>
      <point x="560" y="162" type="curve"/>
      <point x="539" y="172"/>
      <point x="525" y="195"/>
      <point x="525" y="236" type="curve" smooth="yes"/>
      <point x="525" y="334"/>
      <point x="590" y="438"/>
      <point x="643" y="444" type="curve" smooth="yes"/>
      <point x="669" y="440"/>
      <point x="696" y="402"/>
      <point x="716" y="359" type="curve"/>
      <point x="705" y="313" type="line"/>
      <point x="662" y="265"/>
      <point x="600" y="201"/>
    </contour>
    <contour>
      <point x="1066" y="377" type="line"/>
      <point x="1059" y="439"/>
      <point x="1022" y="507"/>
      <point x="910" y="497" type="curve"/>
      <point x="864" y="445"/>
      <point x="801" y="375"/>
      <point x="752" y="321" type="curve"/>
      <point x="784" y="292" type="line"/>
      <point x="828" y="340"/>
      <point x="891" y="402"/>
      <point x="919" y="433" type="curve"/>
      <point x="965" y="432"/>
      <point x="991" y="380"/>
      <point x="983" y="326" type="curve"/>
    </contour>
    <contour>
      <point x="1538" y="614" type="line"/>
      <point x="1519" y="643"/>
      <point x="1487" y="654"/>
      <point x="1420" y="651" type="curve"/>
      <point x="1343" y="314" type="line"/>
      <point x="1364" y="296" type="line"/>
      <point x="1323" y="226" type="line"/>
      <point x="1277" y="32" type="line"/>
      <point x="1307" y="4"/>
      <point x="1354" y="-8"/>
      <point x="1396" y="5" type="curve"/>
      <point x="1453" y="436" type="line"/>
    </contour>
    <contour>
      <point x="1632" y="571" type="line"/>
      <point x="1646" y="580"/>
      <point x="1654" y="595"/>
      <point x="1658" y="609" type="curve"/>
      <point x="1646" y="621" type="line"/>
      <point x="944" y="621" type="line"/>
      <point x="930" y="612"/>
      <point x="921" y="597"/>
      <point x="916" y="584" type="curve"/>
      <point x="930" y="571" type="line"/>
    </contour>
    <contour>
      <point x="1006" y="556" type="curve"/>
      <point x="997" y="531"/>
      <point x="1019" y="509"/>
      <point x="1054" y="500" type="curve"/>
      <point x="1088" y="527"/>
      <point x="1120" y="545"/>
      <point x="1156" y="546" type="curve" smooth="yes"/>
      <point x="1176" y="547"/>
      <point x="1201" y="538"/>
      <point x="1206" y="521" type="curve" smooth="yes"/>
      <point x="1201" y="421"/>
      <point x="937" y="349"/>
      <point x="937" y="269" type="curve" smooth="yes"/>
      <point x="937" y="213"/>
      <point x="1037" y="136"/>
      <point x="1096" y="136" type="curve" smooth="yes"/>
      <point x="1173" y="136"/>
      <point x="1337" y="264"/>
      <point x="1401" y="371" type="curve"/>
      <point x="1363" y="403" type="line"/>
      <point x="1307" y="311"/>
      <point x="1180" y="215"/>
      <point x="1123" y="206" type="curve" smooth="yes"/>
      <point x="1088" y="206"/>
      <point x="1044" y="245"/>
      <point x="1046" y="273" type="curve" smooth="yes"/>
      <point x="1066" y="329"/>
      <point x="1297" y="431"/>
      <point x="1297" y="531" type="curve" smooth="yes"/>
      <point x="1297" y="577"/>
      <point x="1224" y="621"/>
      <point x="1160" y="621" type="curve" smooth="yes"/>
      <point x="1113" y="621"/>
      <point x="1041" y="591"/>
    </contour>
  </outline>
</glyph>
<glyph name="dvL_LA" format="1">
  <advance width="1048"/>
  <outline>
    <contour>
      <point x="597" y="571" type="line"/>
      <point x="611" y="580"/>
      <point x="619" y="595"/>
      <point x="623" y="609" type="curve"/>
      <point x="611" y="621" type="line"/>
      <point x="27" y="621" type="line"/>
      <point x="14" y="612"/>
      <point x="5" y="597"/>
      <point x="0" y="584" type="curve"/>
      <point x="14" y="571" type="line"/>
    </contour>
    <contour>
      <point x="491" y="395" type="line"/>
      <point x="453" y="361"/>
      <point x="384" y="312"/>
      <point x="334" y="280" type="curve"/>
      <point x="328" y="284" type="line"/>
      <point x="335" y="299"/>
      <point x="342" y="320"/>
      <point x="346" y="335" type="curve" smooth="yes"/>
      <point x="342" y="386"/>
      <point x="317" y="432"/>
      <point x="271" y="454" type="curve"/>
      <point x="245" y="459"/>
      <point x="196" y="457"/>
      <point x="168" y="450" type="curve"/>
      <point x="99" y="417"/>
      <point x="17" y="324"/>
      <point x="17" y="254" type="curve" smooth="yes"/>
      <point x="17" y="175"/>
      <point x="79" y="67"/>
      <point x="179" y="-2" type="curve"/>
      <point x="224" y="6"/>
      <point x="251" y="40"/>
      <point x="249" y="70" type="curve"/>
      <point x="164" y="122"/>
      <point x="128" y="186"/>
      <point x="122" y="247" type="curve" smooth="yes"/>
      <point x="123" y="305"/>
      <point x="161" y="362"/>
      <point x="212" y="386" type="curve"/>
      <point x="243" y="376"/>
      <point x="259" y="354"/>
      <point x="264" y="330" type="curve" smooth="yes"/>
      <point x="263" y="305"/>
      <point x="250" y="276"/>
      <point x="232" y="250" type="curve"/>
      <point x="237" y="225"/>
      <point x="284" y="195"/>
      <point x="327" y="193" type="curve"/>
      <point x="377" y="233"/>
      <point x="467" y="305"/>
      <point x="521" y="356" type="curve"/>
    </contour>
    <contour>
      <point x="1081" y="614" type="line"/>
      <point x="1062" y="643"/>
      <point x="1030" y="654"/>
      <point x="963" y="651" type="curve"/>
      <point x="895" y="356" type="line"/>
      <point x="909" y="342" type="line"/>
      <point x="880" y="294" type="line"/>
      <point x="820" y="32" type="line"/>
      <point x="850" y="4"/>
      <point x="897" y="-8"/>
      <point x="939" y="5" type="curve"/>
      <point x="996" y="436" type="line"/>
    </contour>
    <contour>
      <point x="1176" y="571" type="line"/>
      <point x="1189" y="580"/>
      <point x="1197" y="595"/>
      <point x="1201" y="609" type="curve"/>
      <point x="1189" y="621" type="line"/>
      <point x="422" y="621" type="line"/>
      <point x="408" y="612"/>
      <point x="400" y="597"/>
      <point x="395" y="584" type="curve"/>
      <point x="408" y="571" type="line"/>
    </contour>
    <contour>
      <point x="712" y="269" type="line"/>
      <point x="722" y="285"/>
      <point x="732" y="308"/>
      <point x="739" y="326" type="curve"/>
      <point x="734" y="382"/>
      <point x="709" y="429"/>
      <point x="661" y="454" type="curve"/>
      <point x="642" y="459"/>
      <point x="595" y="458"/>
      <point x="568" y="452" type="curve"/>
      <point x="499" y="420"/>
      <point x="412" y="317"/>
      <point x="412" y="251" type="curve" smooth="yes"/>
      <point x="412" y="176"/>
      <point x="469" y="69"/>
      <point x="573" y="0" type="curve"/>
      <point x="627" y="10"/>
      <point x="654" y="44"/>
      <point x="638" y="75" type="curve"/>
      <point x="556" y="119"/>
      <point x="518" y="183"/>
      <point x="504" y="258" type="curve"/>
      <point x="512" y="312"/>
      <point x="561" y="380"/>
      <point x="609" y="394" type="curve"/>
      <point x="641" y="383"/>
      <point x="658" y="353"/>
      <point x="665" y="319" type="curve"/>
      <point x="658" y="297"/>
      <point x="646" y="278"/>
      <point x="630" y="256" type="curve"/>
      <point x="628" y="226"/>
      <point x="667" y="197"/>
      <point x="721" y="193" type="curve"/>
      <point x="796" y="252"/>
      <point x="896" y="347"/>
      <point x="945" y="393" type="curve"/>
      <point x="919" y="456" type="line"/>
      <point x="855" y="380"/>
      <point x="777" y="306"/>
      <point x="717" y="265" type="curve"/>
    </contour>
  </outline>
</glyph>
<glyph name="dvL_L_YA" format="1">
  <advance width="1353"/>
  <outline>
    <contour>
      <point x="597" y="571" type="line"/>
      <point x="611" y="580"/>
      <point x="619" y="595"/>
      <point x="623" y="609" type="curve"/>
      <point x="611" y="621" type="line"/>
      <point x="27" y="621" type="line"/>
      <point x="14" y="612"/>
      <point x="5" y="597"/>
      <point x="0" y="584" type="curve"/>
      <point x="14" y="571" type="line"/>
    </contour>
    <contour>
      <point x="491" y="395" type="line"/>
      <point x="453" y="361"/>
      <point x="384" y="312"/>
      <point x="334" y="280" type="curve"/>
      <point x="328" y="284" type="line"/>
      <point x="335" y="299"/>
      <point x="342" y="320"/>
      <point x="346" y="335" type="curve" smooth="yes"/>
      <point x="342" y="386"/>
      <point x="317" y="432"/>
      <point x="271" y="454" type="curve"/>
      <point x="245" y="459"/>
      <point x="196" y="457"/>
      <point x="168" y="450" type="curve"/>
      <point x="99" y="417"/>
      <point x="17" y="324"/>
      <point x="17" y="254" type="curve" smooth="yes"/>
      <point x="17" y="175"/>
      <point x="79" y="67"/>
      <point x="179" y="-2" type="curve"/>
      <point x="224" y="6"/>
      <point x="251" y="40"/>
      <point x="249" y="70" type="curve"/>
      <point x="164" y="122"/>
      <point x="128" y="186"/>
      <point x="122" y="247" type="curve" smooth="yes"/>
      <point x="123" y="305"/>
      <point x="161" y="362"/>
      <point x="212" y="386" type="curve"/>
      <point x="243" y="376"/>
      <point x="259" y="354"/>
      <point x="264" y="330" type="curve" smooth="yes"/>
      <point x="263" y="305"/>
      <point x="250" y="276"/>
      <point x="232" y="250" type="curve"/>
      <point x="237" y="225"/>
      <point x="284" y="195"/>
      <point x="327" y="193" type="curve"/>
      <point x="377" y="233"/>
      <point x="467" y="305"/>
      <point x="521" y="356" type="curve"/>
    </contour>
    <contour>
      <point x="995" y="571" type="line"/>
      <point x="1009" y="580"/>
      <point x="1017" y="595"/>
      <point x="1021" y="609" type="curve"/>
      <point x="1009" y="621" type="line"/>
      <point x="425" y="621" type="line"/>
      <point x="412" y="612"/>
      <point x="403" y="597"/>
      <point x="398" y="584" type="curve"/>
      <point x="412" y="571" type="line"/>
    </contour>
    <contour>
      <point x="882" y="360" type="line"/>
      <point x="830" y="326"/>
      <point x="775" y="294"/>
      <point x="729" y="271" type="curve"/>
      <point x="723" y="276" type="line"/>
      <point x="735" y="297"/>
      <point x="740" y="320"/>
      <point x="744" y="335" type="curve" smooth="yes"/>
      <point x="740" y="386"/>
      <point x="715" y="432"/>
      <point x="669" y="454" type="curve"/>
      <point x="643" y="459"/>
      <point x="594" y="457"/>
      <point x="566" y="450" type="curve"/>
      <point x="497" y="417"/>
      <point x="415" y="324"/>
      <point x="415" y="254" type="curve" smooth="yes"/>
      <point x="415" y="175"/>
      <point x="477" y="67"/>
      <point x="577" y="-2" type="curve"/>
      <point x="622" y="6"/>
      <point x="649" y="40"/>
      <point x="647" y="70" type="curve"/>
      <point x="562" y="122"/>
      <point x="526" y="186"/>
      <point x="520" y="247" type="curve" smooth="yes"/>
      <point x="521" y="305"/>
      <point x="559" y="362"/>
      <point x="610" y="386" type="curve"/>
      <point x="641" y="376"/>
      <point x="657" y="354"/>
      <point x="661" y="330" type="curve" smooth="yes"/>
      <point x="661" y="305"/>
      <point x="648" y="276"/>
      <point x="630" y="250" type="curve"/>
      <point x="631" y="223"/>
      <point x="678" y="193"/>
      <point x="725" y="193" type="curve"/>
      <point x="782" y="228"/>
      <point x="848" y="277"/>
      <point x="906" y="321" type="curve"/>
    </contour>
    <contour>
      <point x="1387" y="614" type="line"/>
      <point x="1368" y="643"/>
      <point x="1336" y="654"/>
      <point x="1269" y="651" type="curve"/>
      <point x="1192" y="314" type="line"/>
      <point x="1213" y="296" type="line"/>
      <point x="1172" y="226" type="line"/>
      <point x="1126" y="32" type="line"/>
      <point x="1156" y="4"/>
      <point x="1203" y="-8"/>
      <point x="1245" y="5" type="curve"/>
      <point x="1302" y="436" type="line"/>
    </contour>
    <contour>
      <point x="1481" y="571" type="line"/>
      <point x="1495" y="580"/>
      <point x="1503" y="595"/>
      <point x="1507" y="609" type="curve"/>
      <point x="1495" y="621" type="line"/>
      <point x="793" y="621" type="line"/>
      <point x="779" y="612"/>
      <point x="770" y="597"/>
      <point x="765" y="584" type="curve"/>
      <point x="779" y="571" type="line"/>
    </contour>
    <contour>
      <point x="855" y="556" type="curve"/>
      <point x="846" y="531"/>
      <point x="868" y="509"/>
      <point x="903" y="500" type="curve"/>
      <point x="937" y="527"/>
      <point x="969" y="545"/>
      <point x="1005" y="546" type="curve" smooth="yes"/>
      <point x="1025" y="547"/>
      <point x="1050" y="538"/>
      <point x="1055" y="521" type="curve" smooth="yes"/>
      <point x="1050" y="421"/>
      <point x="786" y="349"/>
      <point x="786" y="269" type="curve" smooth="yes"/>
      <point x="786" y="213"/>
      <point x="886" y="136"/>
      <point x="945" y="136" type="curve" smooth="yes"/>
      <point x="1022" y="136"/>
      <point x="1186" y="264"/>
      <point x="1250" y="371" type="curve"/>
      <point x="1212" y="403" type="line"/>
      <point x="1156" y="311"/>
      <point x="1029" y="215"/>
      <point x="972" y="206" type="curve" smooth="yes"/>
      <point x="937" y="206"/>
      <point x="893" y="245"/>
      <point x="895" y="273" type="curve" smooth="yes"/>
      <point x="915" y="329"/>
      <point x="1146" y="431"/>
      <point x="1146" y="531" type="curve" smooth="yes"/>
      <point x="1146" y="577"/>
      <point x="1073" y="621"/>
      <point x="1009" y="621" type="curve" smooth="yes"/>
      <point x="962" y="621"/>
      <point x="890" y="591"/>
    </contour>
  </outline>
</glyph>
<glyph name="dvL_MA" format="1">
  <advance width="947"/>
  <outline>
    <contour>
      <point x="597" y="571" type="line"/>
      <point x="610" y="579"/>
      <point x="619" y="593"/>
      <point x="623" y="609" type="curve"/>
      <point x="611" y="621" type="line"/>
      <point x="27" y="621" type="line"/>
      <point x="15" y="613"/>
      <point x="5" y="599"/>
      <point x="0" y="584" type="curve"/>
      <point x="14" y="571" type="line"/>
    </contour>
    <contour>
      <point x="491" y="346" type="line"/>
      <point x="450" y="322"/>
      <point x="371" y="286"/>
      <point x="329" y="273" type="curve"/>
      <point x="323" y="277" type="line"/>
      <point x="335" y="295"/>
      <point x="342" y="320"/>
      <point x="346" y="335" type="curve" smooth="yes"/>
      <point x="342" y="386"/>
      <point x="317" y="432"/>
      <point x="271" y="454" type="curve"/>
      <point x="245" y="459"/>
      <point x="196" y="457"/>
      <point x="168" y="450" type="curve"/>
      <point x="99" y="417"/>
      <point x="17" y="324"/>
      <point x="17" y="254" type="curve" smooth="yes"/>
      <point x="17" y="175"/>
      <point x="79" y="67"/>
      <point x="179" y="-2" type="curve"/>
      <point x="224" y="6"/>
      <point x="251" y="40"/>
      <point x="249" y="70" type="curve"/>
      <point x="164" y="122"/>
      <point x="128" y="186"/>
      <point x="122" y="247" type="curve" smooth="yes"/>
      <point x="123" y="305"/>
      <point x="161" y="362"/>
      <point x="212" y="386" type="curve"/>
      <point x="243" y="376"/>
      <point x="259" y="354"/>
      <point x="264" y="330" type="curve" smooth="yes"/>
      <point x="263" y="305"/>
      <point x="250" y="276"/>
      <point x="232" y="250" type="curve"/>
      <point x="237" y="225"/>
      <point x="284" y="195"/>
      <point x="327" y="193" type="curve"/>
      <point x="368" y="214"/>
      <point x="453" y="261"/>
      <point x="511" y="308" type="curve"/>
    </contour>
    <contour>
      <point x="1075" y="571" type="line"/>
      <point x="1089" y="580"/>
      <point x="1097" y="595"/>
      <point x="1101" y="609" type="curve"/>
      <point x="1089" y="621" type="line"/>
      <point x="416" y="621" type="line"/>
      <point x="402" y="612"/>
      <point x="393" y="597"/>
      <point x="388" y="584" type="curve"/>
      <point x="402" y="571" type="line"/>
    </contour>
    <contour>
      <point x="526" y="212" type="line"/>
      <point x="495" y="223"/>
      <point x="474" y="241"/>
      <point x="453" y="278" type="curve"/>
      <point x="440" y="252" type="line"/>
      <point x="594" y="339"/>
      <point x="724" y="415"/>
      <point x="856" y="501" type="curve"/>
      <point x="828" y="537" type="line"/>
      <point x="706" y="455"/>
      <point x="553" y="372"/>
      <point x="419" y="300" type="curve"/>
      <point x="397" y="287"/>
      <point x="389" y="261"/>
      <point x="389" y="233" type="curve"/>
      <point x="418" y="180"/>
      <point x="474" y="150"/>
      <point x="531" y="142" type="curve"/>
      <point x="566" y="147"/>
      <point x="600" y="160"/>
      <point x="620" y="182" type="curve"/>
      <point x="652" y="285"/>
      <point x="687" y="469"/>
      <point x="701" y="610" type="curve"/>
      <point x="578" y="594" type="line"/>
      <point x="595" y="473" type="line"/>
      <point x="590" y="377"/>
      <point x="566" y="291"/>
      <point x="536" y="219" type="curve"/>
    </contour>
    <contour>
      <point x="944" y="496" type="line"/>
      <point x="921" y="525"/>
      <point x="886" y="538"/>
      <point x="828" y="537" type="curve"/>
      <point x="810" y="472" type="line"/>
      <point x="821" y="466" type="line"/>
      <point x="719" y="32" type="line"/>
      <point x="749" y="4"/>
      <point x="796" y="-8"/>
      <point x="838" y="5" type="curve"/>
      <point x="887" y="387" type="line"/>
    </contour>
  </outline>
</glyph>
<glyph name="dvL_PA" format="1">
  <advance width="936"/>
  <outline>
    <contour>
      <point x="329" y="290" type="line"/>
      <point x="336" y="304"/>
      <point x="342" y="320"/>
      <point x="346" y="335" type="curve" smooth="yes"/>
      <point x="342" y="386"/>
      <point x="317" y="432"/>
      <point x="271" y="454" type="curve"/>
      <point x="245" y="459"/>
      <point x="196" y="457"/>
      <point x="168" y="450" type="curve"/>
      <point x="99" y="417"/>
      <point x="17" y="324"/>
      <point x="17" y="254" type="curve" smooth="yes"/>
      <point x="17" y="175"/>
      <point x="79" y="67"/>
      <point x="179" y="-2" type="curve"/>
      <point x="224" y="6"/>
      <point x="251" y="40"/>
      <point x="249" y="70" type="curve"/>
      <point x="164" y="122"/>
      <point x="128" y="186"/>
      <point x="122" y="247" type="curve" smooth="yes"/>
      <point x="123" y="305"/>
      <point x="161" y="362"/>
      <point x="212" y="386" type="curve"/>
      <point x="243" y="376"/>
      <point x="259" y="354"/>
      <point x="264" y="330" type="curve" smooth="yes"/>
      <point x="263" y="305"/>
      <point x="250" y="276"/>
      <point x="232" y="250" type="curve"/>
      <point x="237" y="225"/>
      <point x="284" y="195"/>
      <point x="327" y="193" type="curve"/>
      <point x="392" y="243"/>
      <point x="493" y="339"/>
      <point x="550" y="393" type="curve"/>
      <point x="524" y="461" type="line"/>
      <point x="472" y="398"/>
      <point x="408" y="338"/>
      <point x="335" y="285" type="curve"/>
    </contour>
    <contour>
      <point x="597" y="571" type="line"/>
      <point x="611" y="580"/>
      <point x="619" y="595"/>
      <point x="623" y="609" type="curve"/>
      <point x="611" y="621" type="line"/>
      <point x="27" y="621" type="line"/>
      <point x="14" y="612"/>
      <point x="5" y="597"/>
      <point x="0" y="584" type="curve"/>
      <point x="14" y="571" type="line"/>
    </contour>
    <contour>
      <point x="970" y="614" type="line"/>
      <point x="951" y="643"/>
      <point x="919" y="654"/>
      <point x="852" y="651" type="curve"/>
      <point x="786" y="364" type="line"/>
      <point x="797" y="356" type="line"/>
      <point x="774" y="313" type="line"/>
      <point x="708" y="32" type="line"/>
      <point x="738" y="4"/>
      <point x="786" y="-8"/>
      <point x="828" y="5" type="curve"/>
      <point x="885" y="436" type="line"/>
    </contour>
    <contour>
      <point x="1064" y="571" type="line"/>
      <point x="1078" y="580"/>
      <point x="1086" y="595"/>
      <point x="1090" y="609" type="curve"/>
      <point x="1078" y="621" type="line"/>
      <point x="448" y="621" type="line"/>
      <point x="434" y="612"/>
      <point x="425" y="597"/>
      <point x="420" y="584" type="curve"/>
      <point x="434" y="571" type="line"/>
    </contour>
    <contour>
      <point x="545" y="599" type="line"/>
      <point x="508" y="472"/>
      <point x="475" y="352"/>
      <point x="443" y="223" type="curve"/>
      <point x="460" y="183"/>
      <point x="519" y="160"/>
      <point x="563" y="160" type="curve"/>
      <point x="640" y="225"/>
      <point x="768" y="342"/>
      <point x="834" y="405" type="curve"/>
      <point x="804" y="438" type="line"/>
      <point x="743" y="380"/>
      <point x="638" y="295"/>
      <point x="565" y="241" type="curve"/>
      <point x="556" y="246" type="line"/>
      <point x="568" y="315"/>
      <point x="583" y="378"/>
      <point x="597" y="441" type="curve"/>
      <point x="667" y="576" type="line"/>
    </contour>
  </outline>
</glyph>
<glyph name="dvL_PHA" format="1">
  <advance width="1150"/>
  <outline>
    <contour>
      <point x="798" y="2" type="move" name="blwm"/>
    </contour>
    <contour>
      <point x="822" y="645" type="move" name="abvm_Ekaar"/>
    </contour>
    <contour>
      <point x="329" y="290" type="line"/>
      <point x="336" y="304"/>
      <point x="342" y="320"/>
      <point x="346" y="335" type="curve" smooth="yes"/>
      <point x="342" y="386"/>
      <point x="317" y="432"/>
      <point x="271" y="454" type="curve"/>
      <point x="245" y="459"/>
      <point x="196" y="457"/>
      <point x="168" y="450" type="curve"/>
      <point x="99" y="417"/>
      <point x="17" y="324"/>
      <point x="17" y="254" type="curve" smooth="yes"/>
      <point x="17" y="175"/>
      <point x="79" y="67"/>
      <point x="179" y="-2" type="curve"/>
      <point x="224" y="6"/>
      <point x="251" y="40"/>
      <point x="249" y="70" type="curve"/>
      <point x="164" y="122"/>
      <point x="128" y="186"/>
      <point x="122" y="247" type="curve" smooth="yes"/>
      <point x="123" y="305"/>
      <point x="161" y="362"/>
      <point x="212" y="386" type="curve"/>
      <point x="243" y="376"/>
      <point x="259" y="354"/>
      <point x="264" y="330" type="curve" smooth="yes"/>
      <point x="263" y="305"/>
      <point x="250" y="276"/>
      <point x="232" y="250" type="curve"/>
      <point x="237" y="225"/>
      <point x="284" y="195"/>
      <point x="327" y="193" type="curve"/>
      <point x="392" y="243"/>
      <point x="493" y="339"/>
      <point x="550" y="393" type="curve"/>
      <point x="524" y="461" type="line"/>
      <point x="472" y="398"/>
      <point x="408" y="338"/>
      <point x="335" y="285" type="curve"/>
    </contour>
    <contour>
      <point x="597" y="571" type="line"/>
      <point x="611" y="580"/>
      <point x="619" y="595"/>
      <point x="623" y="609" type="curve"/>
      <point x="611" y="621" type="line"/>
      <point x="27" y="621" type="line"/>
      <point x="14" y="612"/>
      <point x="5" y="597"/>
      <point x="0" y="584" type="curve"/>
      <point x="14" y="571" type="line"/>
    </contour>
    <contour>
      <point x="945" y="614" type="line"/>
      <point x="926" y="643"/>
      <point x="894" y="654"/>
      <point x="827" y="651" type="curve"/>
      <point x="756" y="345" type="line"/>
      <point x="766" y="336" type="line"/>
      <point x="744" y="293" type="line"/>
      <point x="683" y="32" type="line"/>
      <point x="713" y="4"/>
      <point x="761" y="-8"/>
      <point x="803" y="5" type="curve"/>
      <point x="850" y="359" type="line"/>
      <point x="833" y="376" type="line"/>
      <point x="860" y="436" type="line"/>
    </contour>
    <contour>
      <point x="1260" y="571" type="line"/>
      <point x="1273" y="580"/>
      <point x="1281" y="595"/>
      <point x="1285" y="609" type="curve"/>
      <point x="1273" y="621" type="line"/>
      <point x="448" y="621" type="line"/>
      <point x="434" y="612"/>
      <point x="425" y="597"/>
      <point x="420" y="584" type="curve"/>
      <point x="434" y="571" type="line"/>
    </contour>
    <contour>
      <point x="836" y="304" type="line"/>
      <point x="890" y="354"/>
      <point x="948" y="405"/>
      <point x="1000" y="452" type="curve"/>
      <point x="1039" y="442"/>
      <point x="1056" y="414"/>
      <point x="1056" y="374" type="curve" smooth="yes"/>
      <point x="1056" y="294"/>
      <point x="1007" y="231"/>
      <point x="912" y="157" type="curve"/>
      <point x="948" y="119" type="line"/>
      <point x="1060" y="202"/>
      <point x="1155" y="275"/>
      <point x="1155" y="396" type="curve" smooth="yes"/>
      <point x="1155" y="471"/>
      <point x="1098" y="528"/>
      <point x="995" y="520" type="curve"/>
      <point x="932" y="457"/>
      <point x="867" y="394"/>
      <point x="804" y="333" type="curve"/>
    </contour>
    <contour>
      <point x="547" y="599" type="line"/>
      <point x="507" y="472"/>
      <point x="472" y="352"/>
      <point x="439" y="225" type="curve"/>
      <point x="455" y="187"/>
      <point x="513" y="163"/>
      <point x="558" y="163" type="curve"/>
      <point x="641" y="234"/>
      <point x="723" y="309"/>
      <point x="807" y="388" type="curve"/>
      <point x="777" y="422" type="line"/>
      <point x="706" y="356"/>
      <point x="631" y="295"/>
      <point x="560" y="244" type="curve"/>
      <point x="551" y="249" type="line"/>
      <point x="565" y="316"/>
      <point x="582" y="380"/>
      <point x="598" y="441" type="curve"/>
      <point x="668" y="576" type="line"/>
    </contour>
  </outline>
</glyph>
<glyph name="dvL_RA" format="1">
  <advance width="653"/>
  <outline>
    <contour>
      <point x="474" y="213" type="line"/>
      <point x="406" y="140"/>
      <point x="354" y="100"/>
      <point x="262" y="44" type="curve"/>
      <point x="254" y="14"/>
      <point x="265" y="-7"/>
      <point x="316" y="-27" type="curve"/>
      <point x="384" y="39"/>
      <point x="428" y="85"/>
      <point x="472" y="140" type="curve"/>
      <point x="480" y="135" type="line"/>
      <point x="436" y="28" type="line"/>
      <point x="464" y="4"/>
      <point x="508" y="-7"/>
      <point x="551" y="5" type="curve"/>
      <point x="608" y="436" type="line"/>
      <point x="693" y="614" type="line"/>
      <point x="674" y="643"/>
      <point x="642" y="654"/>
      <point x="575" y="651" type="curve"/>
      <point x="506" y="356" type="line"/>
      <point x="520" y="342" type="line"/>
      <point x="492" y="293" type="line"/>
    </contour>
    <contour>
      <point x="787" y="571" type="line"/>
      <point x="801" y="580"/>
      <point x="809" y="595"/>
      <point x="813" y="609" type="curve"/>
      <point x="801" y="621" type="line"/>
      <point x="27" y="621" type="line"/>
      <point x="14" y="612"/>
      <point x="5" y="597"/>
      <point x="0" y="584" type="curve"/>
      <point x="14" y="571" type="line"/>
    </contour>
    <contour>
      <point x="331" y="290" type="line"/>
      <point x="338" y="304"/>
      <point x="343" y="320"/>
      <point x="346" y="335" type="curve" smooth="yes"/>
      <point x="343" y="385"/>
      <point x="318" y="430"/>
      <point x="276" y="453" type="curve"/>
      <point x="249" y="459"/>
      <point x="199" y="457"/>
      <point x="168" y="450" type="curve"/>
      <point x="99" y="417"/>
      <point x="17" y="324"/>
      <point x="17" y="254" type="curve" smooth="yes"/>
      <point x="17" y="178"/>
      <point x="73" y="72"/>
      <point x="173" y="-2" type="curve"/>
      <point x="218" y="6"/>
      <point x="244" y="40"/>
      <point x="244" y="70" type="curve"/>
      <point x="162" y="125"/>
      <point x="128" y="187"/>
      <point x="122" y="247" type="curve" smooth="yes"/>
      <point x="123" y="305"/>
      <point x="161" y="362"/>
      <point x="212" y="386" type="curve"/>
      <point x="243" y="376"/>
      <point x="259" y="354"/>
      <point x="264" y="330" type="curve" smooth="yes"/>
      <point x="264" y="305"/>
      <point x="251" y="276"/>
      <point x="234" y="250" type="curve"/>
      <point x="239" y="225"/>
      <point x="286" y="195"/>
      <point x="329" y="193" type="curve"/>
      <point x="394" y="243"/>
      <point x="500" y="339"/>
      <point x="556" y="393" type="curve"/>
      <point x="531" y="461" type="line"/>
      <point x="478" y="398"/>
      <point x="410" y="338"/>
      <point x="337" y="285" type="curve"/>
    </contour>
  </outline>
</glyph>
